{"accessors":[{"bufferView":0,"byteOffset":0,"componentType":5123,"count":4122,"type":"SCALAR"},{"bufferView":1,"byteOffset":0,"componentType":5126,"count":4026,"max":[0.360354483127594,0.329681992530823,0.359732270240784],"min":[-0.36477041244507,-0.01166826859117,-0.35646867752075],"type":"VEC3"},{"bufferView":2,"byteOffset":0,"componentType":5126,"count":4026,"type":"VEC3"},{"bufferView":3,"byteOffset":0,"componentType":5126,"count":4026,"type":"VEC2"}],"asset":{"generator":"FBX2glTF v0.13.1","version":"2.0"},"bufferViews":[{"buffer":0,"byteLength":8244,"byteOffset":0,"target":34963},{"buffer":0,"byteLength":48312,"byteOffset":8244,"target":34962},{"buffer":0,"byteLength":48312,"byteOffset":56556,"target":34962},{"buffer":0,"byteLength":32208,"byteOffset":104868,"target":34962}],"buffers":[{"byteLength":137076,"uri":"Bonfire_01.bin"}],"images":[{"name":"Polygon_Texture_vol3","uri":"Polygon_Texture_vol3.png"}],"materials":[{"alphaMode":"OPAQUE","doubleSided":false,"extras":{"fromFBX":{"isTruePBR":false,"shadingModel":"Phong"}},"name":"main","pbrMetallicRoughness":{"baseColorFactor":[1,1,1,1],"baseColorTexture":{"index":0,"texCoord":0},"metallicFactor":0.400000005960464,"roughnessFactor":0.229415729641914}}],"meshes":[{"name":"Bonfire_01","primitives":[{"attributes":{"NORMAL":2,"POSITION":1,"TEXCOORD_0":3},"indices":0,"material":0,"mode":4}]}],"nodes":[{"mesh":0,"name":"Bonfire_01","rotation":[0,0,0,1],"scale":[1,1,1],"translation":[32.3341026306152,0.00433592824265361,-0.09281602501869]}],"samplers":[{}],"scene":0,"scenes":[{"name":"Root Scene","nodes":[0]}],"textures":[{"name":"base_color_texture","sampler":0,"source":0}]}