{"accessors":[{"bufferView":0,"byteOffset":0,"componentType":5123,"count":1260,"type":"SCALAR"},{"bufferView":1,"byteOffset":0,"componentType":5126,"count":1220,"max":[0.0692499205470085,0.0156568493694067,0.251667022705078],"min":[-0.06991665810347,-0.01572300307453,-0.22309222817421],"type":"VEC3"},{"bufferView":2,"byteOffset":0,"componentType":5126,"count":1220,"type":"VEC3"},{"bufferView":3,"byteOffset":0,"componentType":5126,"count":1220,"type":"VEC2"}],"asset":{"generator":"FBX2glTF v0.13.1","version":"2.0"},"bufferViews":[{"buffer":0,"byteLength":2520,"byteOffset":0,"target":34963},{"buffer":0,"byteLength":14640,"byteOffset":2520,"target":34962},{"buffer":0,"byteLength":14640,"byteOffset":17160,"target":34962},{"buffer":0,"byteLength":9760,"byteOffset":31800,"target":34962}],"buffers":[{"byteLength":41560,"uri":"Homemade_Medical_Splint.bin"}],"images":[{"name":"Polygon_Texture_vol3","uri":"Polygon_Texture_vol3.png"}],"materials":[{"alphaMode":"OPAQUE","doubleSided":false,"extras":{"fromFBX":{"isTruePBR":false,"shadingModel":"Phong"}},"name":"main","pbrMetallicRoughness":{"baseColorFactor":[1,1,1,1],"baseColorTexture":{"index":0,"texCoord":0},"metallicFactor":0.400000005960464,"roughnessFactor":0.229415729641914}}],"meshes":[{"name":"Homemade_Medical_Splint","primitives":[{"attributes":{"NORMAL":2,"POSITION":1,"TEXCOORD_0":3},"indices":0,"material":0,"mode":4}]}],"nodes":[{"mesh":0,"name":"Homemade_Medical_Splint","rotation":[0,0,0,1],"scale":[1,1,1],"translation":[29.0833339691162,0.0123003264889121,-0.02096576802433]}],"samplers":[{}],"scene":0,"scenes":[{"name":"Root Scene","nodes":[0]}],"textures":[{"name":"base_color_texture","sampler":0,"source":0}]}