{"accessors":[{"bufferView":0,"byteOffset":0,"componentType":5123,"count":684,"type":"SCALAR"},{"bufferView":1,"byteOffset":0,"componentType":5126,"count":576,"max":[0.0427754335105419,0.0344701074063778,0.0520318411290646],"min":[-0.05541440844536,-0.06991913169622,-0.04424703866243],"type":"VEC3"},{"bufferView":2,"byteOffset":0,"componentType":5126,"count":576,"type":"VEC3"},{"bufferView":3,"byteOffset":0,"componentType":5126,"count":576,"type":"VEC2"}],"asset":{"generator":"FBX2glTF v0.13.1","version":"2.0"},"bufferViews":[{"buffer":0,"byteLength":1368,"byteOffset":0,"target":34963},{"buffer":0,"byteLength":6912,"byteOffset":1368,"target":34962},{"buffer":0,"byteLength":6912,"byteOffset":8280,"target":34962},{"buffer":0,"byteLength":4608,"byteOffset":15192,"target":34962}],"buffers":[{"byteLength":19800,"uri":"Orange_01.bin"}],"images":[{"name":"Polygon_Texture_vol3","uri":"Polygon_Texture_vol3.png"}],"materials":[{"alphaMode":"OPAQUE","doubleSided":false,"extras":{"fromFBX":{"isTruePBR":false,"shadingModel":"Phong"}},"name":"main","pbrMetallicRoughness":{"baseColorFactor":[1,1,1,1],"baseColorTexture":{"index":0,"texCoord":0},"metallicFactor":0.400000005960464,"roughnessFactor":0.229415729641914}}],"meshes":[{"name":"Orange_01","primitives":[{"attributes":{"NORMAL":2,"POSITION":1,"TEXCOORD_0":3},"indices":0,"material":0,"mode":4}]}],"nodes":[{"mesh":0,"name":"Orange_01","rotation":[0,0,0,1],"scale":[1,1,1],"translation":[49.1154098510742,0.0695779249072075,0.00146342813968658]}],"samplers":[{}],"scene":0,"scenes":[{"name":"Root Scene","nodes":[0]}],"textures":[{"name":"base_color_texture","sampler":0,"source":0}]}