{"accessors":[{"bufferView":0,"byteOffset":0,"componentType":5123,"count":3738,"type":"SCALAR"},{"bufferView":1,"byteOffset":0,"componentType":5126,"count":2328,"max":[0.297054141759872,0.883777439594269,0.31313556432724],"min":[-0.5472097992897,-0.00291320984252,-0.36464262008667],"type":"VEC3"},{"bufferView":2,"byteOffset":0,"componentType":5126,"count":2328,"type":"VEC3"},{"bufferView":3,"byteOffset":0,"componentType":5126,"count":2328,"type":"VEC2"},{"bufferView":4,"byteOffset":0,"componentType":5123,"count":1374,"type":"SCALAR"},{"bufferView":5,"byteOffset":0,"componentType":5126,"count":850,"max":[0.304067075252533,0.880070447921753,0.308859378099442],"min":[-0.30406707525253,-0.00000002651051,-0.30885937809944],"type":"VEC3"},{"bufferView":6,"byteOffset":0,"componentType":5126,"count":850,"type":"VEC3"},{"bufferView":7,"byteOffset":0,"componentType":5126,"count":850,"type":"VEC2"}],"asset":{"generator":"FBX2glTF v0.13.1","version":"2.0"},"bufferViews":[{"buffer":0,"byteLength":7476,"byteOffset":0,"target":34963},{"buffer":0,"byteLength":27936,"byteOffset":7476,"target":34962},{"buffer":0,"byteLength":27936,"byteOffset":35412,"target":34962},{"buffer":0,"byteLength":18624,"byteOffset":63348,"target":34962},{"buffer":0,"byteLength":2748,"byteOffset":81972,"target":34963},{"buffer":0,"byteLength":10200,"byteOffset":84720,"target":34962},{"buffer":0,"byteLength":10200,"byteOffset":94920,"target":34962},{"buffer":0,"byteLength":6800,"byteOffset":105120,"target":34962}],"buffers":[{"byteLength":111920,"uri":"SM_Barrel_Open_01.bin"}],"images":[{"name":"Polygon_Texture_vol2","uri":"Polygon_Texture_vol2.png"}],"materials":[{"alphaMode":"OPAQUE","doubleSided":false,"extras":{"fromFBX":{"isTruePBR":false,"shadingModel":"Phong"}},"name":"Red","pbrMetallicRoughness":{"baseColorFactor":[0.00303096207790077,0,0.800000071525574,1],"metallicFactor":0.400000005960464,"roughnessFactor":0.272165536880493}},{"alphaMode":"OPAQUE","doubleSided":false,"extras":{"fromFBX":{"isTruePBR":false,"shadingModel":"Phong"}},"name":"main","pbrMetallicRoughness":{"baseColorFactor":[1,1,1,1],"baseColorTexture":{"index":0,"texCoord":0},"metallicFactor":0.400000005960464,"roughnessFactor":0.229415729641914}}],"meshes":[{"name":"SM_Barrel_Open_01","primitives":[{"attributes":{"NORMAL":2,"POSITION":1,"TEXCOORD_0":3},"indices":0,"material":1,"mode":4},{"attributes":{"NORMAL":6,"POSITION":5,"TEXCOORD_0":7},"indices":4,"material":0,"mode":4}]}],"nodes":[{"mesh":0,"name":"SM_Barrel_Open_01","rotation":[0,0,0,1],"scale":[1,1,1],"translation":[109.680450439453,0,0]}],"samplers":[{}],"scene":0,"scenes":[{"name":"Root Scene","nodes":[0]}],"textures":[{"name":"base_color_texture","sampler":0,"source":0}]}