{"accessors":[{"bufferView":0,"byteOffset":0,"componentType":5123,"count":1518,"type":"SCALAR"},{"bufferView":1,"byteOffset":0,"componentType":5126,"count":898,"max":[0.028739720582962,0.0275339856743813,0.0134131498634815],"min":[-0.02125373482704,0.0000000633299350738525,-0.0134131507948],"type":"VEC3"},{"bufferView":2,"byteOffset":0,"componentType":5126,"count":898,"type":"VEC3"},{"bufferView":3,"byteOffset":0,"componentType":5126,"count":898,"type":"VEC2"}],"asset":{"generator":"FBX2glTF v0.13.1","version":"2.0"},"bufferViews":[{"buffer":0,"byteLength":3036,"byteOffset":0,"target":34963},{"buffer":0,"byteLength":10776,"byteOffset":3036,"target":34962},{"buffer":0,"byteLength":10776,"byteOffset":13812,"target":34962},{"buffer":0,"byteLength":7184,"byteOffset":24588,"target":34962}],"buffers":[{"byteLength":31772,"uri":"SM_Collimator_Sight_A_01.bin"}],"images":[{"name":"Polygon_Texture_vol2","uri":"Polygon_Texture_vol2.png"}],"materials":[{"alphaMode":"OPAQUE","doubleSided":false,"extras":{"fromFBX":{"isTruePBR":false,"shadingModel":"Phong"}},"name":"main","pbrMetallicRoughness":{"baseColorFactor":[1,1,1,1],"baseColorTexture":{"index":0,"texCoord":0},"metallicFactor":0.400000005960464,"roughnessFactor":0.229415729641914}}],"meshes":[{"name":"SM_Collimator_Sight_A_01","primitives":[{"attributes":{"NORMAL":2,"POSITION":1,"TEXCOORD_0":3},"indices":0,"material":0,"mode":4}]}],"nodes":[{"mesh":0,"name":"SM_Collimator_Sight_A_01","rotation":[0,0,0,1],"scale":[1,1,1],"translation":[15.2888154983521,0.0815309286117554,0.0564848035573959]}],"samplers":[{}],"scene":0,"scenes":[{"name":"Root Scene","nodes":[0]}],"textures":[{"name":"base_color_texture","sampler":0,"source":0}]}