{"accessors":[{"bufferView":0,"byteOffset":0,"componentType":5123,"count":11985,"type":"SCALAR"},{"bufferView":1,"byteOffset":0,"componentType":5126,"count":7518,"max":[0.462287396192551,0.271237879991531,0.20468108355999],"min":[-0.84750270843506,-0.18686993420124,-0.14423809945583],"type":"VEC3"},{"bufferView":2,"byteOffset":0,"componentType":5126,"count":7518,"type":"VEC3"},{"bufferView":3,"byteOffset":0,"componentType":5126,"count":7518,"type":"VEC2"}],"asset":{"generator":"FBX2glTF v0.13.1","version":"2.0"},"bufferViews":[{"buffer":0,"byteLength":23970,"byteOffset":0,"target":34963},{"buffer":0,"byteLength":90216,"byteOffset":23972,"target":34962},{"buffer":0,"byteLength":90216,"byteOffset":114188,"target":34962},{"buffer":0,"byteLength":60144,"byteOffset":204404,"target":34962}],"buffers":[{"byteLength":264548,"uri":"SM_Chainsaw.bin"}],"images":[{"name":"Polygon_Texture_vol2","uri":"Polygon_Texture_vol2.png"}],"materials":[{"alphaMode":"OPAQUE","doubleSided":false,"extras":{"fromFBX":{"isTruePBR":false,"shadingModel":"Phong"}},"name":"main","pbrMetallicRoughness":{"baseColorFactor":[1,1,1,1],"baseColorTexture":{"index":0,"texCoord":0},"metallicFactor":0.400000005960464,"roughnessFactor":0.229415729641914}}],"meshes":[{"name":"SM_Chainsaw","primitives":[{"attributes":{"NORMAL":2,"POSITION":1,"TEXCOORD_0":3},"indices":0,"material":0,"mode":4}]}],"nodes":[{"mesh":0,"name":"SM_Chainsaw","rotation":[0,0,0,1],"scale":[1,1,1],"translation":[112.970748901367,0.19816330075264,0.0000000968575477600098]}],"samplers":[{}],"scene":0,"scenes":[{"name":"Root Scene","nodes":[0]}],"textures":[{"name":"base_color_texture","sampler":0,"source":0}]}