{"accessors":[{"bufferView":0,"byteOffset":0,"componentType":5123,"count":672,"type":"SCALAR"},{"bufferView":1,"byteOffset":0,"componentType":5126,"count":436,"max":[0.0231404826045036,0.0440449640154839,0.0094018429517746],"min":[-0.02239945344627,-0.08456049859524,-0.00940184295177],"type":"VEC3"},{"bufferView":2,"byteOffset":0,"componentType":5126,"count":436,"type":"VEC3"},{"bufferView":3,"byteOffset":0,"componentType":5126,"count":436,"type":"VEC2"}],"asset":{"generator":"FBX2glTF v0.13.1","version":"2.0"},"bufferViews":[{"buffer":0,"byteLength":1344,"byteOffset":0,"target":34963},{"buffer":0,"byteLength":5232,"byteOffset":1344,"target":34962},{"buffer":0,"byteLength":5232,"byteOffset":6576,"target":34962},{"buffer":0,"byteLength":3488,"byteOffset":11808,"target":34962}],"buffers":[{"byteLength":15296,"uri":"SM_Large_Magazine_For_Army_Pistol.bin"}],"images":[{"name":"Polygon_Texture_vol2","uri":"Polygon_Texture_vol2.png"}],"materials":[{"alphaMode":"OPAQUE","doubleSided":false,"extras":{"fromFBX":{"isTruePBR":false,"shadingModel":"Phong"}},"name":"main","pbrMetallicRoughness":{"baseColorFactor":[1,1,1,1],"baseColorTexture":{"index":0,"texCoord":0},"metallicFactor":0.400000005960464,"roughnessFactor":0.229415729641914}}],"meshes":[{"name":"SM_Large_Magazine_For_Army_Pistol","primitives":[{"attributes":{"NORMAL":2,"POSITION":1,"TEXCOORD_0":3},"indices":0,"material":0,"mode":4}]}],"nodes":[{"mesh":0,"name":"SM_Large_Magazine_For_Army_Pistol","rotation":[0,0,0,1],"scale":[1,1,1],"translation":[13.5605783462524,0.184358358383179,0.000000186264514923096]}],"samplers":[{}],"scene":0,"scenes":[{"name":"Root Scene","nodes":[0]}],"textures":[{"name":"base_color_texture","sampler":0,"source":0}]}