{"accessors":[{"bufferView":0,"byteOffset":0,"componentType":5123,"count":1740,"type":"SCALAR"},{"bufferView":1,"byteOffset":0,"componentType":5126,"count":1046,"max":[0.00133943208493292,0.0151336193084717,0.014729019254446],"min":[-0.16792081296444,-0.02630388736725,-0.0147289801389],"type":"VEC3"},{"bufferView":2,"byteOffset":0,"componentType":5126,"count":1046,"type":"VEC3"},{"bufferView":3,"byteOffset":0,"componentType":5126,"count":1046,"type":"VEC2"}],"asset":{"generator":"FBX2glTF v0.13.1","version":"2.0"},"bufferViews":[{"buffer":0,"byteLength":3480,"byteOffset":0,"target":34963},{"buffer":0,"byteLength":12552,"byteOffset":3480,"target":34962},{"buffer":0,"byteLength":12552,"byteOffset":16032,"target":34962},{"buffer":0,"byteLength":8368,"byteOffset":28584,"target":34962}],"buffers":[{"byteLength":36952,"uri":"SM_Muffler_04.bin"}],"images":[{"name":"Polygon_Texture_vol2","uri":"Polygon_Texture_vol2.png"}],"materials":[{"alphaMode":"OPAQUE","doubleSided":false,"extras":{"fromFBX":{"isTruePBR":false,"shadingModel":"Phong"}},"name":"main","pbrMetallicRoughness":{"baseColorFactor":[1,1,1,1],"baseColorTexture":{"index":0,"texCoord":0},"metallicFactor":0.400000005960464,"roughnessFactor":0.229415729641914}}],"meshes":[{"name":"SM_Muffler_04","primitives":[{"attributes":{"NORMAL":2,"POSITION":1,"TEXCOORD_0":3},"indices":0,"material":0,"mode":4}]}],"nodes":[{"mesh":0,"name":"SM_Muffler_04","rotation":[0,0,0,1],"scale":[1,1,1],"translation":[11.8686103820801,0.56368750333786,0.00000016503842914517]}],"samplers":[{}],"scene":0,"scenes":[{"name":"Root Scene","nodes":[0]}],"textures":[{"name":"base_color_texture","sampler":0,"source":0}]}