{"accessors":[{"bufferView":0,"byteOffset":0,"componentType":5123,"count":10530,"type":"SCALAR"},{"bufferView":1,"byteOffset":0,"componentType":5126,"count":6460,"max":[0.192814916372299,0.0862796306610107,0.0428601317107677],"min":[-0.12623620033264,-0.00012315483764,-0.17471742630005],"type":"VEC3"},{"bufferView":2,"byteOffset":0,"componentType":5126,"count":6460,"type":"VEC3"},{"bufferView":3,"byteOffset":0,"componentType":5126,"count":6460,"type":"VEC2"}],"asset":{"generator":"FBX2glTF v0.13.1","version":"2.0"},"bufferViews":[{"buffer":0,"byteLength":21060,"byteOffset":0,"target":34963},{"buffer":0,"byteLength":77520,"byteOffset":21060,"target":34962},{"buffer":0,"byteLength":77520,"byteOffset":98580,"target":34962},{"buffer":0,"byteLength":51680,"byteOffset":176100,"target":34962}],"buffers":[{"byteLength":227780,"uri":"SM_THREADS.bin"}],"images":[{"name":"Polygon_Texture_vol2","uri":"Polygon_Texture_vol2.png"}],"materials":[{"alphaMode":"OPAQUE","doubleSided":false,"extras":{"fromFBX":{"isTruePBR":false,"shadingModel":"Phong"}},"name":"main","pbrMetallicRoughness":{"baseColorFactor":[1,1,1,1],"baseColorTexture":{"index":0,"texCoord":0},"metallicFactor":0.400000005960464,"roughnessFactor":0.229415729641914}}],"meshes":[{"name":"SM_THREADS","primitives":[{"attributes":{"NORMAL":2,"POSITION":1,"TEXCOORD_0":3},"indices":0,"material":0,"mode":4}]}],"nodes":[{"mesh":0,"name":"SM_THREADS","rotation":[0,0,0,1],"scale":[1,1,1],"translation":[47.887580871582,0,0]}],"samplers":[{}],"scene":0,"scenes":[{"name":"Root Scene","nodes":[0]}],"textures":[{"name":"base_color_texture","sampler":0,"source":0}]}