{"accessors":[{"bufferView":0,"byteOffset":0,"componentType":5123,"count":804,"type":"SCALAR"},{"bufferView":1,"byteOffset":0,"componentType":5126,"count":476,"max":[0.0712791904807091,0.0243987031280994,0.0450891852378845],"min":[-0.07127919048071,0.000000000931322574615479,-0.04508918523788],"type":"VEC3"},{"bufferView":2,"byteOffset":0,"componentType":5126,"count":476,"type":"VEC3"},{"bufferView":3,"byteOffset":0,"componentType":5126,"count":476,"type":"VEC2"}],"asset":{"generator":"FBX2glTF v0.13.1","version":"2.0"},"bufferViews":[{"buffer":0,"byteLength":1608,"byteOffset":0,"target":34963},{"buffer":0,"byteLength":5712,"byteOffset":1608,"target":34962},{"buffer":0,"byteLength":5712,"byteOffset":7320,"target":34962},{"buffer":0,"byteLength":3808,"byteOffset":13032,"target":34962}],"buffers":[{"byteLength":16840,"uri":"Small_Canned_Food_C_03.bin"}],"images":[{"name":"Polygon_Texture_vol3","uri":"Polygon_Texture_vol3.png"}],"materials":[{"alphaMode":"OPAQUE","doubleSided":false,"extras":{"fromFBX":{"isTruePBR":false,"shadingModel":"Phong"}},"name":"main","pbrMetallicRoughness":{"baseColorFactor":[1,1,1,1],"baseColorTexture":{"index":0,"texCoord":0},"metallicFactor":0.400000005960464,"roughnessFactor":0.229415729641914}}],"meshes":[{"name":"Small_Canned_Food_C_03","primitives":[{"attributes":{"NORMAL":2,"POSITION":1,"TEXCOORD_0":3},"indices":0,"material":0,"mode":4}]}],"nodes":[{"mesh":0,"name":"Small_Canned_Food_C_03","rotation":[0,0,0,1],"scale":[1,1,1],"translation":[50.211555480957,0,-0.27438420057297]}],"samplers":[{}],"scene":0,"scenes":[{"name":"Root Scene","nodes":[0]}],"textures":[{"name":"base_color_texture","sampler":0,"source":0}]}