{"accessors":[{"bufferView":0,"byteOffset":0,"componentType":5123,"count":570,"type":"SCALAR"},{"bufferView":1,"byteOffset":0,"componentType":5126,"count":508,"max":[0.680074691772461,0.404797732830048,0.809144735336304],"min":[-0.83731466531753,-0.2201325148344,-1.02098083496094],"type":"VEC3"},{"bufferView":2,"byteOffset":0,"componentType":5126,"count":508,"type":"VEC3"},{"bufferView":3,"byteOffset":0,"componentType":5126,"count":508,"type":"VEC2"},{"bufferView":4,"byteOffset":0,"componentType":5123,"count":7677,"type":"SCALAR"},{"bufferView":5,"byteOffset":0,"componentType":5126,"count":7201,"max":[2.97506713867188,10.838716506958,1.61547768115997],"min":[-1.75965893268585,0.105883300304413,-1.82083737850189],"type":"VEC3"},{"bufferView":6,"byteOffset":0,"componentType":5126,"count":7201,"type":"VEC3"},{"bufferView":7,"byteOffset":0,"componentType":5126,"count":7201,"type":"VEC2"},{"bufferView":8,"byteOffset":0,"componentType":5123,"count":330,"type":"SCALAR"},{"bufferView":9,"byteOffset":0,"componentType":5126,"count":304,"max":[0.68474805355072,0.404797732830048,0.809084057807922],"min":[-0.83503323793411,-0.22368696331978,-1.01960515975952],"type":"VEC3"},{"bufferView":10,"byteOffset":0,"componentType":5126,"count":304,"type":"VEC3"},{"bufferView":11,"byteOffset":0,"componentType":5126,"count":304,"type":"VEC2"},{"bufferView":12,"byteOffset":0,"componentType":5123,"count":3792,"type":"SCALAR"},{"bufferView":13,"byteOffset":0,"componentType":5126,"count":3604,"max":[2.971839427948,10.7635555267334,1.6054185628891],"min":[-1.75635874271393,0.0895391851663589,-1.81757962703705],"type":"VEC3"},{"bufferView":14,"byteOffset":0,"componentType":5126,"count":3604,"type":"VEC3"},{"bufferView":15,"byteOffset":0,"componentType":5126,"count":3604,"type":"VEC2"},{"bufferView":16,"byteOffset":0,"componentType":5123,"count":102,"type":"SCALAR"},{"bufferView":17,"byteOffset":0,"componentType":5126,"count":102,"max":[0.672231256961823,0.247887298464775,0.807639360427856],"min":[-0.83789509534836,-0.20505033433437,-1.01352524757385],"type":"VEC3"},{"bufferView":18,"byteOffset":0,"componentType":5126,"count":102,"type":"VEC3"},{"bufferView":19,"byteOffset":0,"componentType":5126,"count":102,"type":"VEC2"},{"bufferView":20,"byteOffset":0,"componentType":5123,"count":1956,"type":"SCALAR"},{"bufferView":21,"byteOffset":0,"componentType":5126,"count":1886,"max":[2.93672442436218,10.7635555267334,1.6054185628891],"min":[-1.75635874271393,-0.06840655207634,-1.81757962703705],"type":"VEC3"},{"bufferView":22,"byteOffset":0,"componentType":5126,"count":1886,"type":"VEC3"},{"bufferView":23,"byteOffset":0,"componentType":5126,"count":1886,"type":"VEC2"},{"bufferView":24,"byteOffset":0,"componentType":5123,"count":8100,"type":"SCALAR"},{"bufferView":25,"byteOffset":0,"componentType":5126,"count":5400,"max":[3.91112947463989,12.0832872390747,3.36647796630859],"min":[-2.75130391120911,5.18344163894653,-3.49900436401367],"type":"VEC3"},{"bufferView":26,"byteOffset":0,"componentType":5126,"count":5400,"type":"VEC3"},{"bufferView":27,"byteOffset":0,"componentType":5126,"count":5400,"type":"VEC2"},{"bufferView":28,"byteOffset":0,"componentType":5123,"count":5670,"type":"SCALAR"},{"bufferView":29,"byteOffset":0,"componentType":5126,"count":3780,"max":[3.80003428459167,11.9771003723145,3.3186399936676],"min":[-2.78902053833008,5.19971227645874,-3.47092986106873],"type":"VEC3"},{"bufferView":30,"byteOffset":0,"componentType":5126,"count":3780,"type":"VEC3"},{"bufferView":31,"byteOffset":0,"componentType":5126,"count":3780,"type":"VEC2"},{"bufferView":32,"byteOffset":0,"componentType":5123,"count":3240,"type":"SCALAR"},{"bufferView":33,"byteOffset":0,"componentType":5126,"count":2160,"max":[3.73640012741089,12.0313682556152,3.07144975662231],"min":[-2.78691005706787,5.19165134429932,-3.52491474151611],"type":"VEC3"},{"bufferView":34,"byteOffset":0,"componentType":5126,"count":2160,"type":"VEC3"},{"bufferView":35,"byteOffset":0,"componentType":5126,"count":2160,"type":"VEC2"}],"asset":{"generator":"FBX2glTF v0.13.1","version":"2.0"},"bufferViews":[{"buffer":0,"byteLength":1140,"byteOffset":0,"target":34963},{"buffer":0,"byteLength":6096,"byteOffset":1140,"target":34962},{"buffer":0,"byteLength":6096,"byteOffset":7236,"target":34962},{"buffer":0,"byteLength":4064,"byteOffset":13332,"target":34962},{"buffer":0,"byteLength":15354,"byteOffset":17396,"target":34963},{"buffer":0,"byteLength":86412,"byteOffset":32752,"target":34962},{"buffer":0,"byteLength":86412,"byteOffset":119164,"target":34962},{"buffer":0,"byteLength":57608,"byteOffset":205576,"target":34962},{"buffer":0,"byteLength":660,"byteOffset":263184,"target":34963},{"buffer":0,"byteLength":3648,"byteOffset":263844,"target":34962},{"buffer":0,"byteLength":3648,"byteOffset":267492,"target":34962},{"buffer":0,"byteLength":2432,"byteOffset":271140,"target":34962},{"buffer":0,"byteLength":7584,"byteOffset":273572,"target":34963},{"buffer":0,"byteLength":43248,"byteOffset":281156,"target":34962},{"buffer":0,"byteLength":43248,"byteOffset":324404,"target":34962},{"buffer":0,"byteLength":28832,"byteOffset":367652,"target":34962},{"buffer":0,"byteLength":204,"byteOffset":396484,"target":34963},{"buffer":0,"byteLength":1224,"byteOffset":396688,"target":34962},{"buffer":0,"byteLength":1224,"byteOffset":397912,"target":34962},{"buffer":0,"byteLength":816,"byteOffset":399136,"target":34962},{"buffer":0,"byteLength":3912,"byteOffset":399952,"target":34963},{"buffer":0,"byteLength":22632,"byteOffset":403864,"target":34962},{"buffer":0,"byteLength":22632,"byteOffset":426496,"target":34962},{"buffer":0,"byteLength":15088,"byteOffset":449128,"target":34962},{"buffer":0,"byteLength":16200,"byteOffset":464216,"target":34963},{"buffer":0,"byteLength":64800,"byteOffset":480416,"target":34962},{"buffer":0,"byteLength":64800,"byteOffset":545216,"target":34962},{"buffer":0,"byteLength":43200,"byteOffset":610016,"target":34962},{"buffer":0,"byteLength":11340,"byteOffset":653216,"target":34963},{"buffer":0,"byteLength":45360,"byteOffset":664556,"target":34962},{"buffer":0,"byteLength":45360,"byteOffset":709916,"target":34962},{"buffer":0,"byteLength":30240,"byteOffset":755276,"target":34962},{"buffer":0,"byteLength":6480,"byteOffset":785516,"target":34963},{"buffer":0,"byteLength":25920,"byteOffset":791996,"target":34962},{"buffer":0,"byteLength":25920,"byteOffset":817916,"target":34962},{"buffer":0,"byteLength":17280,"byteOffset":843836,"target":34962}],"buffers":[{"byteLength":861116,"uri":"SM_Birch_03_LOD.bin"}],"images":[{"name":"New Palitra","uri":"New Palitra.jpg"},{"name":"Tree_02","uri":"../Textures/Tree_02.png"}],"materials":[{"alphaMode":"OPAQUE","doubleSided":false,"extras":{"fromFBX":{"isTruePBR":false,"shadingModel":"Phong"}},"name":"Birch_Leavse_New","pbrMetallicRoughness":{"baseColorFactor":[0.800000011920929,0.800000011920929,0.800000011920929,1],"metallicFactor":0.400000005960464,"roughnessFactor":0.272165536880493}},{"alphaMode":"OPAQUE","doubleSided":false,"extras":{"fromFBX":{"isTruePBR":false,"shadingModel":"Phong"}},"name":"MainMaterial","pbrMetallicRoughness":{"baseColorFactor":[1,1,1,1],"baseColorTexture":{"index":0,"texCoord":0},"metallicFactor":0.400000005960464,"roughnessFactor":0.272165536880493}},{"alphaMode":"OPAQUE","doubleSided":false,"extras":{"fromFBX":{"isTruePBR":false,"shadingModel":"Phong"}},"name":"Tree","pbrMetallicRoughness":{"baseColorFactor":[1,1,1,1],"baseColorTexture":{"index":1,"texCoord":0},"metallicFactor":0.400000005960464,"roughnessFactor":0.272165536880493}},{"alphaMode":"OPAQUE","doubleSided":false,"extras":{"fromFBX":{"isTruePBR":false,"shadingModel":"Phong"}},"name":"MainMaterial.001","pbrMetallicRoughness":{"baseColorFactor":[1,1,1,1],"baseColorTexture":{"index":0,"texCoord":0},"metallicFactor":0.400000005960464,"roughnessFactor":0.272165536880493}},{"alphaMode":"OPAQUE","doubleSided":false,"extras":{"fromFBX":{"isTruePBR":false,"shadingModel":"Phong"}},"name":"Tree.001","pbrMetallicRoughness":{"baseColorFactor":[1,1,1,1],"baseColorTexture":{"index":1,"texCoord":0},"metallicFactor":0.400000005960464,"roughnessFactor":0.272165536880493}},{"alphaMode":"OPAQUE","doubleSided":false,"extras":{"fromFBX":{"isTruePBR":false,"shadingModel":"Phong"}},"name":"Birch_Leavse_New.017","pbrMetallicRoughness":{"baseColorFactor":[0.800000011920929,0.800000011920929,0.800000011920929,1],"metallicFactor":0.400000005960464,"roughnessFactor":0.272165536880493}},{"alphaMode":"OPAQUE","doubleSided":false,"extras":{"fromFBX":{"isTruePBR":false,"shadingModel":"Phong"}},"name":"MainMaterial.002","pbrMetallicRoughness":{"baseColorFactor":[1,1,1,1],"baseColorTexture":{"index":0,"texCoord":0},"metallicFactor":0.400000005960464,"roughnessFactor":0.272165536880493}},{"alphaMode":"OPAQUE","doubleSided":false,"extras":{"fromFBX":{"isTruePBR":false,"shadingModel":"Phong"}},"name":"Tree.002","pbrMetallicRoughness":{"baseColorFactor":[1,1,1,1],"baseColorTexture":{"index":1,"texCoord":0},"metallicFactor":0.400000005960464,"roughnessFactor":0.272165536880493}},{"alphaMode":"OPAQUE","doubleSided":false,"extras":{"fromFBX":{"isTruePBR":false,"shadingModel":"Phong"}},"name":"Birch_Leavse_New.018","pbrMetallicRoughness":{"baseColorFactor":[0.800000011920929,0.800000011920929,0.800000011920929,1],"metallicFactor":0.400000005960464,"roughnessFactor":0.272165536880493}}],"meshes":[{"name":"SM_Birch_03_LOD0","primitives":[{"attributes":{"NORMAL":2,"POSITION":1,"TEXCOORD_0":3},"indices":0,"material":1,"mode":4},{"attributes":{"NORMAL":6,"POSITION":5,"TEXCOORD_0":7},"indices":4,"material":2,"mode":4}]},{"name":"SM_Birch_03_LOD1","primitives":[{"attributes":{"NORMAL":10,"POSITION":9,"TEXCOORD_0":11},"indices":8,"material":3,"mode":4},{"attributes":{"NORMAL":14,"POSITION":13,"TEXCOORD_0":15},"indices":12,"material":4,"mode":4}]},{"name":"SM_Birch_03_LOD2","primitives":[{"attributes":{"NORMAL":18,"POSITION":17,"TEXCOORD_0":19},"indices":16,"material":6,"mode":4},{"attributes":{"NORMAL":22,"POSITION":21,"TEXCOORD_0":23},"indices":20,"material":7,"mode":4}]},{"name":"Birch_03_LOD0","primitives":[{"attributes":{"NORMAL":26,"POSITION":25,"TEXCOORD_0":27},"indices":24,"material":0,"mode":4}]},{"name":"Birch_03_LOD1","primitives":[{"attributes":{"NORMAL":30,"POSITION":29,"TEXCOORD_0":31},"indices":28,"material":5,"mode":4}]},{"name":"Birch_03_LOD2","primitives":[{"attributes":{"NORMAL":34,"POSITION":33,"TEXCOORD_0":35},"indices":32,"material":8,"mode":4}]}],"nodes":[{"mesh":3,"name":"Birch_03_LOD0","rotation":[0,0,0,1],"scale":[1,1,1],"translation":[0,0,0]},{"mesh":0,"name":"SM_Birch_03_LOD0","rotation":[0,0,0,1],"scale":[1,1,1],"translation":[0,0,0]},{"mesh":1,"name":"SM_Birch_03_LOD1","rotation":[0,0,0,1],"scale":[1,1,1],"translation":[0,0,0]},{"mesh":4,"name":"Birch_03_LOD1","rotation":[0,0,0,1],"scale":[1,1,1],"translation":[0,0,0]},{"mesh":2,"name":"SM_Birch_03_LOD2","rotation":[0,0,0,1],"scale":[1,1,1],"translation":[0,0,0]},{"mesh":5,"name":"Birch_03_LOD2","rotation":[0,0,0,1],"scale":[1,1,1],"translation":[0,0,0]}],"samplers":[{}],"scene":0,"scenes":[{"name":"Root Scene","nodes":[0,1,2,3,4,5]}],"textures":[{"name":"base_color_texture","sampler":0,"source":0},{"name":"base_color_texture","sampler":0,"source":1}]}