{"accessors":[{"bufferView":0,"byteOffset":0,"componentType":5123,"count":6405,"type":"SCALAR"},{"bufferView":1,"byteOffset":0,"componentType":5126,"count":5829,"max":[2.57965683937073,9.52767181396484,2.27739071846008],"min":[-2.66600298881531,-0.2861265540123,-2.67261815071106],"type":"VEC3"},{"bufferView":2,"byteOffset":0,"componentType":5126,"count":5829,"type":"VEC3"},{"bufferView":3,"byteOffset":0,"componentType":5126,"count":5829,"type":"VEC2"},{"bufferView":4,"byteOffset":0,"componentType":5123,"count":3198,"type":"SCALAR"},{"bufferView":5,"byteOffset":0,"componentType":5126,"count":2988,"max":[2.56863236427307,9.52840328216553,2.27363562583923],"min":[-2.65706419944763,-0.2869123518467,-2.66656756401062],"type":"VEC3"},{"bufferView":6,"byteOffset":0,"componentType":5126,"count":2988,"type":"VEC3"},{"bufferView":7,"byteOffset":0,"componentType":5126,"count":2988,"type":"VEC2"},{"bufferView":8,"byteOffset":0,"componentType":5123,"count":1596,"type":"SCALAR"},{"bufferView":9,"byteOffset":0,"componentType":5126,"count":1532,"max":[2.57753682136536,9.52563190460205,2.27363562583923],"min":[-2.65706419944763,-0.17915524542332,-2.6198582649231],"type":"VEC3"},{"bufferView":10,"byteOffset":0,"componentType":5126,"count":1532,"type":"VEC3"},{"bufferView":11,"byteOffset":0,"componentType":5126,"count":1532,"type":"VEC2"},{"bufferView":12,"byteOffset":0,"componentType":5123,"count":10800,"type":"SCALAR"},{"bufferView":13,"byteOffset":0,"componentType":5126,"count":7200,"max":[3.67948627471924,10.2834739685059,3.14685106277466],"min":[-4.10548734664917,2.87840414047241,-3.59513473510742],"type":"VEC3"},{"bufferView":14,"byteOffset":0,"componentType":5126,"count":7200,"type":"VEC3"},{"bufferView":15,"byteOffset":0,"componentType":5126,"count":7200,"type":"VEC2"},{"bufferView":16,"byteOffset":0,"componentType":5123,"count":7554,"type":"SCALAR"},{"bufferView":17,"byteOffset":0,"componentType":5126,"count":5036,"max":[3.67663717269897,10.2990245819092,3.1004638671875],"min":[-3.96179342269897,2.8490777015686,-3.70035266876221],"type":"VEC3"},{"bufferView":18,"byteOffset":0,"componentType":5126,"count":5036,"type":"VEC3"},{"bufferView":19,"byteOffset":0,"componentType":5126,"count":5036,"type":"VEC2"},{"bufferView":20,"byteOffset":0,"componentType":5123,"count":4320,"type":"SCALAR"},{"bufferView":21,"byteOffset":0,"componentType":5126,"count":2880,"max":[3.65538954734802,10.3016185760498,3.08515596389771],"min":[-3.9805908203125,2.9809467792511,-3.58330535888672],"type":"VEC3"},{"bufferView":22,"byteOffset":0,"componentType":5126,"count":2880,"type":"VEC3"},{"bufferView":23,"byteOffset":0,"componentType":5126,"count":2880,"type":"VEC2"}],"asset":{"generator":"FBX2glTF v0.13.1","version":"2.0"},"bufferViews":[{"buffer":0,"byteLength":12810,"byteOffset":0,"target":34963},{"buffer":0,"byteLength":69948,"byteOffset":12812,"target":34962},{"buffer":0,"byteLength":69948,"byteOffset":82760,"target":34962},{"buffer":0,"byteLength":46632,"byteOffset":152708,"target":34962},{"buffer":0,"byteLength":6396,"byteOffset":199340,"target":34963},{"buffer":0,"byteLength":35856,"byteOffset":205736,"target":34962},{"buffer":0,"byteLength":35856,"byteOffset":241592,"target":34962},{"buffer":0,"byteLength":23904,"byteOffset":277448,"target":34962},{"buffer":0,"byteLength":3192,"byteOffset":301352,"target":34963},{"buffer":0,"byteLength":18384,"byteOffset":304544,"target":34962},{"buffer":0,"byteLength":18384,"byteOffset":322928,"target":34962},{"buffer":0,"byteLength":12256,"byteOffset":341312,"target":34962},{"buffer":0,"byteLength":21600,"byteOffset":353568,"target":34963},{"buffer":0,"byteLength":86400,"byteOffset":375168,"target":34962},{"buffer":0,"byteLength":86400,"byteOffset":461568,"target":34962},{"buffer":0,"byteLength":57600,"byteOffset":547968,"target":34962},{"buffer":0,"byteLength":15108,"byteOffset":605568,"target":34963},{"buffer":0,"byteLength":60432,"byteOffset":620676,"target":34962},{"buffer":0,"byteLength":60432,"byteOffset":681108,"target":34962},{"buffer":0,"byteLength":40288,"byteOffset":741540,"target":34962},{"buffer":0,"byteLength":8640,"byteOffset":781828,"target":34963},{"buffer":0,"byteLength":34560,"byteOffset":790468,"target":34962},{"buffer":0,"byteLength":34560,"byteOffset":825028,"target":34962},{"buffer":0,"byteLength":23040,"byteOffset":859588,"target":34962}],"buffers":[{"byteLength":882628,"uri":"SM_Maple_LOD.bin"}],"images":[{"name":"New Palitra","uri":"New Palitra.jpg"}],"materials":[{"alphaMode":"OPAQUE","doubleSided":false,"extras":{"fromFBX":{"isTruePBR":false,"shadingModel":"Phong"}},"name":"Mapel_Leavse_New","pbrMetallicRoughness":{"baseColorFactor":[0.800000011920929,0.800000011920929,0.800000011920929,1],"metallicFactor":0.400000005960464,"roughnessFactor":0.272165536880493}},{"alphaMode":"OPAQUE","doubleSided":false,"extras":{"fromFBX":{"isTruePBR":false,"shadingModel":"Phong"}},"name":"Mapel_Leavse_New.001","pbrMetallicRoughness":{"baseColorFactor":[0.800000011920929,0.800000011920929,0.800000011920929,1],"metallicFactor":0.400000005960464,"roughnessFactor":0.272165536880493}},{"alphaMode":"OPAQUE","doubleSided":false,"extras":{"fromFBX":{"isTruePBR":false,"shadingModel":"Phong"}},"name":"Mapel_Leavse_New.002","pbrMetallicRoughness":{"baseColorFactor":[0.800000011920929,0.800000011920929,0.800000011920929,1],"metallicFactor":0.400000005960464,"roughnessFactor":0.272165536880493}},{"alphaMode":"OPAQUE","doubleSided":false,"extras":{"fromFBX":{"isTruePBR":false,"shadingModel":"Phong"}},"name":"MainMaterial","pbrMetallicRoughness":{"baseColorFactor":[1,1,1,1],"baseColorTexture":{"index":0,"texCoord":0},"metallicFactor":0.400000005960464,"roughnessFactor":0.272165536880493}}],"meshes":[{"name":"SM_Maple_LOD0","primitives":[{"attributes":{"NORMAL":2,"POSITION":1,"TEXCOORD_0":3},"indices":0,"material":3,"mode":4}]},{"name":"SM_Maple_LOD1","primitives":[{"attributes":{"NORMAL":6,"POSITION":5,"TEXCOORD_0":7},"indices":4,"material":3,"mode":4}]},{"name":"SM_Maple_LOD2","primitives":[{"attributes":{"NORMAL":10,"POSITION":9,"TEXCOORD_0":11},"indices":8,"material":3,"mode":4}]},{"name":"Maple_LOD0","primitives":[{"attributes":{"NORMAL":14,"POSITION":13,"TEXCOORD_0":15},"indices":12,"material":0,"mode":4}]},{"name":"Maple_LOD1","primitives":[{"attributes":{"NORMAL":18,"POSITION":17,"TEXCOORD_0":19},"indices":16,"material":1,"mode":4}]},{"name":"Maple_LOD2","primitives":[{"attributes":{"NORMAL":22,"POSITION":21,"TEXCOORD_0":23},"indices":20,"material":2,"mode":4}]}],"nodes":[{"mesh":3,"name":"Maple_LOD0","rotation":[0,0,0,1],"scale":[1,1,1],"translation":[0,0,0]},{"mesh":4,"name":"Maple_LOD1","rotation":[0,0,0,1],"scale":[1,1,1],"translation":[0,0,0]},{"mesh":5,"name":"Maple_LOD2","rotation":[0,0,0,1],"scale":[1,1,1],"translation":[0,0,0]},{"mesh":0,"name":"SM_Maple_LOD0","rotation":[0,0,0,1],"scale":[1,1,1],"translation":[0,0,0]},{"mesh":1,"name":"SM_Maple_LOD1","rotation":[0,0,0,1],"scale":[1,1,1],"translation":[0,0,0]},{"mesh":2,"name":"SM_Maple_LOD2","rotation":[0,0,0,1],"scale":[1,1,1],"translation":[0,0,0]}],"samplers":[{}],"scene":0,"scenes":[{"name":"Root Scene","nodes":[0,1,2,3,4,5]}],"textures":[{"name":"base_color_texture","sampler":0,"source":0}]}