{"accessors":[{"bufferView":0,"byteOffset":0,"componentType":5123,"count":105,"type":"SCALAR"},{"bufferView":1,"byteOffset":0,"componentType":5126,"count":105,"max":[-0.00000047683716,1.14714813232422,0.0117688179016113],"min":[-4.00072002410889,-0.00000005960464,-4.00106143951416],"type":"VEC3"},{"bufferView":2,"byteOffset":0,"componentType":5126,"count":105,"type":"VEC3"},{"bufferView":3,"byteOffset":0,"componentType":5126,"count":105,"type":"VEC2"}],"asset":{"generator":"FBX2glTF v0.13.1","version":"2.0"},"bufferViews":[{"buffer":0,"byteLength":210,"byteOffset":0,"target":34963},{"buffer":0,"byteLength":1260,"byteOffset":212,"target":34962},{"buffer":0,"byteLength":1260,"byteOffset":1472,"target":34962},{"buffer":0,"byteLength":840,"byteOffset":2732,"target":34962}],"buffers":[{"byteLength":3572,"uri":"SM_Ground_12_A.bin"}],"images":[{"name":"Polygon_Texture_vol2","uri":"Polygon_Texture_vol2.png"}],"materials":[{"alphaMode":"OPAQUE","doubleSided":false,"extras":{"fromFBX":{"isTruePBR":false,"shadingModel":"Phong"}},"name":"Material.001","pbrMetallicRoughness":{"baseColorFactor":[1,1,1,1],"baseColorTexture":{"index":0,"texCoord":0},"metallicFactor":0.400000005960464,"roughnessFactor":0.272165536880493}}],"meshes":[{"name":"Plane.020","primitives":[{"attributes":{"NORMAL":2,"POSITION":1,"TEXCOORD_0":3},"indices":0,"material":0,"mode":4}]}],"nodes":[{"mesh":0,"name":"Plane.020","rotation":[0,0,0,1],"scale":[1,1,1],"translation":[-12.9002208709717,-1.36347365379333,-72.10302734375]}],"samplers":[{}],"scene":0,"scenes":[{"name":"Root Scene","nodes":[0]}],"textures":[{"name":"base_color_texture","sampler":0,"source":0}]}