{"accessors":[{"bufferView":0,"byteOffset":0,"componentType":5123,"count":276,"type":"SCALAR"},{"bufferView":1,"byteOffset":0,"componentType":5126,"count":276,"max":[8.02284240722656,0.638757348060608,8.05704402923584],"min":[-8.00799369812012,-0.21639724075794,-8.02507305145264],"type":"VEC3"},{"bufferView":2,"byteOffset":0,"componentType":5126,"count":276,"type":"VEC3"},{"bufferView":3,"byteOffset":0,"componentType":5126,"count":276,"type":"VEC2"}],"asset":{"generator":"FBX2glTF v0.13.1","version":"2.0"},"bufferViews":[{"buffer":0,"byteLength":552,"byteOffset":0,"target":34963},{"buffer":0,"byteLength":3312,"byteOffset":552,"target":34962},{"buffer":0,"byteLength":3312,"byteOffset":3864,"target":34962},{"buffer":0,"byteLength":2208,"byteOffset":7176,"target":34962}],"buffers":[{"byteLength":9384,"uri":"SM_Ground_15.bin"}],"images":[{"name":"Polygon_Texture_vol2","uri":"Polygon_Texture_vol2.png"}],"materials":[{"alphaMode":"OPAQUE","doubleSided":false,"extras":{"fromFBX":{"isTruePBR":false,"shadingModel":"Phong"}},"name":"Material.001","pbrMetallicRoughness":{"baseColorFactor":[1,1,1,1],"baseColorTexture":{"index":0,"texCoord":0},"metallicFactor":0.400000005960464,"roughnessFactor":0.272165536880493}}],"meshes":[{"name":"Plane.026","primitives":[{"attributes":{"NORMAL":2,"POSITION":1,"TEXCOORD_0":3},"indices":0,"material":0,"mode":4}]}],"nodes":[{"mesh":0,"name":"Plane.026","rotation":[0,0,0,1],"scale":[1,1,1],"translation":[-44.3058052062988,0,-83.6659240722656]}],"samplers":[{}],"scene":0,"scenes":[{"name":"Root Scene","nodes":[0]}],"textures":[{"name":"base_color_texture","sampler":0,"source":0}]}