{"accessors":[{"bufferView":0,"byteOffset":0,"componentType":5123,"count":219,"type":"SCALAR"},{"bufferView":1,"byteOffset":0,"componentType":5126,"count":219,"max":[0.00211310386657715,1.14936411380768,0.000000715255737304688],"min":[-8.00581359863281,0,-8.00330257415771],"type":"VEC3"},{"bufferView":2,"byteOffset":0,"componentType":5126,"count":219,"type":"VEC3"},{"bufferView":3,"byteOffset":0,"componentType":5126,"count":219,"type":"VEC2"}],"asset":{"generator":"FBX2glTF v0.13.1","version":"2.0"},"bufferViews":[{"buffer":0,"byteLength":438,"byteOffset":0,"target":34963},{"buffer":0,"byteLength":2628,"byteOffset":440,"target":34962},{"buffer":0,"byteLength":2628,"byteOffset":3068,"target":34962},{"buffer":0,"byteLength":1752,"byteOffset":5696,"target":34962}],"buffers":[{"byteLength":7448,"uri":"SM_Ground_11_B.bin"}],"images":[{"name":"Polygon_Texture_vol2","uri":"Polygon_Texture_vol2.png"}],"materials":[{"alphaMode":"OPAQUE","doubleSided":false,"extras":{"fromFBX":{"isTruePBR":false,"shadingModel":"Phong"}},"name":"Material.001","pbrMetallicRoughness":{"baseColorFactor":[1,1,1,1],"baseColorTexture":{"index":0,"texCoord":0},"metallicFactor":0.400000005960464,"roughnessFactor":0.272165536880493}}],"meshes":[{"name":"Plane.028","primitives":[{"attributes":{"NORMAL":2,"POSITION":1,"TEXCOORD_0":3},"indices":0,"material":0,"mode":4}]}],"nodes":[{"mesh":0,"name":"Plane.028","rotation":[0,0,0,1],"scale":[1,1,1],"translation":[-9.84011268615723,-1.00071346759796,-62.2702713012695]}],"samplers":[{}],"scene":0,"scenes":[{"name":"Root Scene","nodes":[0]}],"textures":[{"name":"base_color_texture","sampler":0,"source":0}]}