{"accessors":[{"bufferView":0,"byteOffset":0,"componentType":5123,"count":330,"type":"SCALAR"},{"bufferView":1,"byteOffset":0,"componentType":5126,"count":330,"max":[4.46010160446167,0.507547736167908,4.57984924316406],"min":[-3.53989791870117,-0.63220047950745,-3.42075705528259],"type":"VEC3"},{"bufferView":2,"byteOffset":0,"componentType":5126,"count":330,"type":"VEC3"},{"bufferView":3,"byteOffset":0,"componentType":5126,"count":330,"type":"VEC2"}],"asset":{"generator":"FBX2glTF v0.13.1","version":"2.0"},"bufferViews":[{"buffer":0,"byteLength":660,"byteOffset":0,"target":34963},{"buffer":0,"byteLength":3960,"byteOffset":660,"target":34962},{"buffer":0,"byteLength":3960,"byteOffset":4620,"target":34962},{"buffer":0,"byteLength":2640,"byteOffset":8580,"target":34962}],"buffers":[{"byteLength":11220,"uri":"SM_Ground_01_A.bin"}],"images":[{"name":"Polygon_Texture_vol2","uri":"Polygon_Texture_vol2.png"}],"materials":[{"alphaMode":"OPAQUE","doubleSided":false,"extras":{"fromFBX":{"isTruePBR":false,"shadingModel":"Phong"}},"name":"Material","pbrMetallicRoughness":{"baseColorFactor":[1,1,1,1],"baseColorTexture":{"index":0,"texCoord":0},"metallicFactor":0.400000005960464,"roughnessFactor":0.272165536880493}}],"meshes":[{"name":"Plane.002","primitives":[{"attributes":{"NORMAL":2,"POSITION":1,"TEXCOORD_0":3},"indices":0,"material":0,"mode":4}]}],"nodes":[{"mesh":0,"name":"Plane.002","rotation":[0,0,0,1],"scale":[1,1,1],"translation":[-14.3002080917358,-0.36851301789284,8.01683235168457]}],"samplers":[{}],"scene":0,"scenes":[{"name":"Root Scene","nodes":[0]}],"textures":[{"name":"base_color_texture","sampler":0,"source":0}]}