{"accessors":[{"bufferView":0,"byteOffset":0,"componentType":5123,"count":96,"type":"SCALAR"},{"bufferView":1,"byteOffset":0,"componentType":5126,"count":96,"max":[0.00628280639648438,1.0203685760498,0.0000368356704711914],"min":[-4.00250291824341,0,-4.0021185874939],"type":"VEC3"},{"bufferView":2,"byteOffset":0,"componentType":5126,"count":96,"type":"VEC3"},{"bufferView":3,"byteOffset":0,"componentType":5126,"count":96,"type":"VEC2"}],"asset":{"generator":"FBX2glTF v0.13.1","version":"2.0"},"bufferViews":[{"buffer":0,"byteLength":192,"byteOffset":0,"target":34963},{"buffer":0,"byteLength":1152,"byteOffset":192,"target":34962},{"buffer":0,"byteLength":1152,"byteOffset":1344,"target":34962},{"buffer":0,"byteLength":768,"byteOffset":2496,"target":34962}],"buffers":[{"byteLength":3264,"uri":"SM_Ground_12_B.bin"}],"images":[{"name":"Polygon_Texture_vol2","uri":"Polygon_Texture_vol2.png"}],"materials":[{"alphaMode":"OPAQUE","doubleSided":false,"extras":{"fromFBX":{"isTruePBR":false,"shadingModel":"Phong"}},"name":"Material.001","pbrMetallicRoughness":{"baseColorFactor":[1,1,1,1],"baseColorTexture":{"index":0,"texCoord":0},"metallicFactor":0.400000005960464,"roughnessFactor":0.272165536880493}}],"meshes":[{"name":"Plane.019","primitives":[{"attributes":{"NORMAL":2,"POSITION":1,"TEXCOORD_0":3},"indices":0,"material":0,"mode":4}]}],"nodes":[{"mesh":0,"name":"Plane.019","rotation":[0,0,0,1],"scale":[1,1,1],"translation":[-12.8973760604858,-1.36347365379333,-76.5135879516602]}],"samplers":[{}],"scene":0,"scenes":[{"name":"Root Scene","nodes":[0]}],"textures":[{"name":"base_color_texture","sampler":0,"source":0}]}