{"accessors":[{"bufferView":0,"byteOffset":0,"componentType":5123,"count":468,"type":"SCALAR"},{"bufferView":1,"byteOffset":0,"componentType":5126,"count":468,"max":[8.00555610656738,4.58719396591187,7.96168088912964],"min":[-7.99444437026978,-0.21135956048966,-8.03831958770752],"type":"VEC3"},{"bufferView":2,"byteOffset":0,"componentType":5126,"count":468,"type":"VEC3"},{"bufferView":3,"byteOffset":0,"componentType":5126,"count":468,"type":"VEC2"}],"asset":{"generator":"FBX2glTF v0.13.1","version":"2.0"},"bufferViews":[{"buffer":0,"byteLength":936,"byteOffset":0,"target":34963},{"buffer":0,"byteLength":5616,"byteOffset":936,"target":34962},{"buffer":0,"byteLength":5616,"byteOffset":6552,"target":34962},{"buffer":0,"byteLength":3744,"byteOffset":12168,"target":34962}],"buffers":[{"byteLength":15912,"uri":"SM_Ground_09.bin"}],"images":[{"name":"Polygon_Texture_vol2","uri":"Polygon_Texture_vol2.png"}],"materials":[{"alphaMode":"OPAQUE","doubleSided":false,"extras":{"fromFBX":{"isTruePBR":false,"shadingModel":"Phong"}},"name":"Material","pbrMetallicRoughness":{"baseColorFactor":[1,1,1,1],"baseColorTexture":{"index":0,"texCoord":0},"metallicFactor":0.400000005960464,"roughnessFactor":0.272165536880493}}],"meshes":[{"name":"Plane.007","primitives":[{"attributes":{"NORMAL":2,"POSITION":1,"TEXCOORD_0":3},"indices":0,"material":0,"mode":4}]}],"nodes":[{"mesh":0,"name":"Plane.007","rotation":[0,0,0,1],"scale":[1,1,1],"translation":[-62.2183036804199,0,-18.2155208587646]}],"samplers":[{}],"scene":0,"scenes":[{"name":"Root Scene","nodes":[0]}],"textures":[{"name":"base_color_texture","sampler":0,"source":0}]}