{"accessors":[{"bufferView":0,"byteOffset":0,"componentType":5123,"count":240,"type":"SCALAR"},{"bufferView":1,"byteOffset":0,"componentType":5126,"count":240,"max":[0.00054931640625,0.0927315130829811,0.00086593627929687],"min":[-7.99992179870605,-0.14786787331104,-8.00001907348633],"type":"VEC3"},{"bufferView":2,"byteOffset":0,"componentType":5126,"count":240,"type":"VEC3"},{"bufferView":3,"byteOffset":0,"componentType":5126,"count":240,"type":"VEC2"}],"asset":{"generator":"FBX2glTF v0.13.1","version":"2.0"},"bufferViews":[{"buffer":0,"byteLength":480,"byteOffset":0,"target":34963},{"buffer":0,"byteLength":2880,"byteOffset":480,"target":34962},{"buffer":0,"byteLength":2880,"byteOffset":3360,"target":34962},{"buffer":0,"byteLength":1920,"byteOffset":6240,"target":34962}],"buffers":[{"byteLength":8160,"uri":"SM_Ground_20_D.bin"}],"images":[{"name":"Polygon_Texture_vol2","uri":"Polygon_Texture_vol2.png"}],"materials":[{"alphaMode":"OPAQUE","doubleSided":false,"extras":{"fromFBX":{"isTruePBR":false,"shadingModel":"Phong"}},"name":"Material.002","pbrMetallicRoughness":{"baseColorFactor":[1,1,1,1],"baseColorTexture":{"index":0,"texCoord":0},"metallicFactor":0.400000005960464,"roughnessFactor":0.272165536880493}}],"meshes":[{"name":"Plane.033","primitives":[{"attributes":{"NORMAL":2,"POSITION":1,"TEXCOORD_0":3},"indices":0,"material":0,"mode":4}]}],"nodes":[{"mesh":0,"name":"Plane.033","rotation":[0,0,0,1],"scale":[1,1,1],"translation":[-19.5106620788574,-0.0051941126585,-125.787132263184]}],"samplers":[{}],"scene":0,"scenes":[{"name":"Root Scene","nodes":[0]}],"textures":[{"name":"base_color_texture","sampler":0,"source":0}]}