{"accessors":[{"bufferView":0,"byteOffset":0,"componentType":5123,"count":1011,"type":"SCALAR"},{"bufferView":1,"byteOffset":0,"componentType":5126,"count":1011,"max":[7.99838066101074,2.56786823272705,8.09732341766357],"min":[-8.00304222106934,-0.25074291229248,-8.09067630767822],"type":"VEC3"},{"bufferView":2,"byteOffset":0,"componentType":5126,"count":1011,"type":"VEC3"},{"bufferView":3,"byteOffset":0,"componentType":5126,"count":1011,"type":"VEC2"}],"asset":{"generator":"FBX2glTF v0.13.1","version":"2.0"},"bufferViews":[{"buffer":0,"byteLength":2022,"byteOffset":0,"target":34963},{"buffer":0,"byteLength":12132,"byteOffset":2024,"target":34962},{"buffer":0,"byteLength":12132,"byteOffset":14156,"target":34962},{"buffer":0,"byteLength":8088,"byteOffset":26288,"target":34962}],"buffers":[{"byteLength":34376,"uri":"SM_Ground_05.bin"}],"images":[{"name":"Polygon_Texture_vol2","uri":"Polygon_Texture_vol2.png"}],"materials":[{"alphaMode":"OPAQUE","doubleSided":false,"extras":{"fromFBX":{"isTruePBR":false,"shadingModel":"Phong"}},"name":"Material","pbrMetallicRoughness":{"baseColorFactor":[1,1,1,1],"baseColorTexture":{"index":0,"texCoord":0},"metallicFactor":0.400000005960464,"roughnessFactor":0.272165536880493}}],"meshes":[{"name":"Plane.008","primitives":[{"attributes":{"NORMAL":2,"POSITION":1,"TEXCOORD_0":3},"indices":0,"material":0,"mode":4}]}],"nodes":[{"mesh":0,"name":"Plane.008","rotation":[0,0,0,1],"scale":[1,1,1],"translation":[19.9689674377441,0,-0.7160187959671]}],"samplers":[{}],"scene":0,"scenes":[{"name":"Root Scene","nodes":[0]}],"textures":[{"name":"base_color_texture","sampler":0,"source":0}]}