{"accessors":[{"bufferView":0,"byteOffset":0,"componentType":5123,"count":480,"type":"SCALAR"},{"bufferView":1,"byteOffset":0,"componentType":5126,"count":480,"max":[3.45828604698181,0.244652479887009,3.54373073577881],"min":[-4.54171419143677,-0.88427412509918,-4.45626926422119],"type":"VEC3"},{"bufferView":2,"byteOffset":0,"componentType":5126,"count":480,"type":"VEC3"},{"bufferView":3,"byteOffset":0,"componentType":5126,"count":480,"type":"VEC2"}],"asset":{"generator":"FBX2glTF v0.13.1","version":"2.0"},"bufferViews":[{"buffer":0,"byteLength":960,"byteOffset":0,"target":34963},{"buffer":0,"byteLength":5760,"byteOffset":960,"target":34962},{"buffer":0,"byteLength":5760,"byteOffset":6720,"target":34962},{"buffer":0,"byteLength":3840,"byteOffset":12480,"target":34962}],"buffers":[{"byteLength":16320,"uri":"SM_Ground_01_C.bin"}],"images":[{"name":"Polygon_Texture_vol2","uri":"Polygon_Texture_vol2.png"}],"materials":[{"alphaMode":"OPAQUE","doubleSided":false,"extras":{"fromFBX":{"isTruePBR":false,"shadingModel":"Phong"}},"name":"Material","pbrMetallicRoughness":{"baseColorFactor":[1,1,1,1],"baseColorTexture":{"index":0,"texCoord":0},"metallicFactor":0.400000005960464,"roughnessFactor":0.272165536880493}}],"meshes":[{"name":"Plane.004","primitives":[{"attributes":{"NORMAL":2,"POSITION":1,"TEXCOORD_0":3},"indices":0,"material":0,"mode":4}]}],"nodes":[{"mesh":0,"name":"Plane.004","rotation":[0,0,0,1],"scale":[1,1,1],"translation":[-22.9688663482666,-0.11643932014704,9.05295085906982]}],"samplers":[{}],"scene":0,"scenes":[{"name":"Root Scene","nodes":[0]}],"textures":[{"name":"base_color_texture","sampler":0,"source":0}]}