{"accessors":[{"bufferView":0,"byteOffset":0,"componentType":5123,"count":78,"type":"SCALAR"},{"bufferView":1,"byteOffset":0,"componentType":5126,"count":77,"max":[0.00096654891967773,0.14206001162529,0.00035047531127929],"min":[-4.00091981887817,-0.0905032530427,-4.00011777877808],"type":"VEC3"},{"bufferView":2,"byteOffset":0,"componentType":5126,"count":77,"type":"VEC3"},{"bufferView":3,"byteOffset":0,"componentType":5126,"count":77,"type":"VEC2"}],"asset":{"generator":"FBX2glTF v0.13.1","version":"2.0"},"bufferViews":[{"buffer":0,"byteLength":156,"byteOffset":0,"target":34963},{"buffer":0,"byteLength":924,"byteOffset":156,"target":34962},{"buffer":0,"byteLength":924,"byteOffset":1080,"target":34962},{"buffer":0,"byteLength":616,"byteOffset":2004,"target":34962}],"buffers":[{"byteLength":2620,"uri":"SM_Ground_21_D.bin"}],"images":[{"name":"Polygon_Texture_vol2","uri":"Polygon_Texture_vol2.png"}],"materials":[{"alphaMode":"OPAQUE","doubleSided":false,"extras":{"fromFBX":{"isTruePBR":false,"shadingModel":"Phong"}},"name":"Material.002","pbrMetallicRoughness":{"baseColorFactor":[1,1,1,1],"baseColorTexture":{"index":0,"texCoord":0},"metallicFactor":0.400000005960464,"roughnessFactor":0.272165536880493}}],"meshes":[{"name":"Plane.042","primitives":[{"attributes":{"NORMAL":2,"POSITION":1,"TEXCOORD_0":3},"indices":0,"material":0,"mode":4}]}],"nodes":[{"mesh":0,"name":"Plane.042","rotation":[0,0,0,1],"scale":[1,1,1],"translation":[-17.3118667602539,-0.37177473306656,-140.025939941406]}],"samplers":[{}],"scene":0,"scenes":[{"name":"Root Scene","nodes":[0]}],"textures":[{"name":"base_color_texture","sampler":0,"source":0}]}