{"accessors":[{"bufferView":0,"byteOffset":0,"componentType":5123,"count":324,"type":"SCALAR"},{"bufferView":1,"byteOffset":0,"componentType":5126,"count":324,"max":[8.02316570281982,0.21458001434803,8.04818725585938],"min":[-8.02057552337646,-0.23752574622631,-8.04395198822021],"type":"VEC3"},{"bufferView":2,"byteOffset":0,"componentType":5126,"count":324,"type":"VEC3"},{"bufferView":3,"byteOffset":0,"componentType":5126,"count":324,"type":"VEC2"}],"asset":{"generator":"FBX2glTF v0.13.1","version":"2.0"},"bufferViews":[{"buffer":0,"byteLength":648,"byteOffset":0,"target":34963},{"buffer":0,"byteLength":3888,"byteOffset":648,"target":34962},{"buffer":0,"byteLength":3888,"byteOffset":4536,"target":34962},{"buffer":0,"byteLength":2592,"byteOffset":8424,"target":34962}],"buffers":[{"byteLength":11016,"uri":"SM_Ground_07.bin"}],"images":[{"name":"Polygon_Texture_vol2","uri":"Polygon_Texture_vol2.png"}],"materials":[{"alphaMode":"OPAQUE","doubleSided":false,"extras":{"fromFBX":{"isTruePBR":false,"shadingModel":"Phong"}},"name":"Material","pbrMetallicRoughness":{"baseColorFactor":[1,1,1,1],"baseColorTexture":{"index":0,"texCoord":0},"metallicFactor":0.400000005960464,"roughnessFactor":0.272165536880493}}],"meshes":[{"name":"Plane","primitives":[{"attributes":{"NORMAL":2,"POSITION":1,"TEXCOORD_0":3},"indices":0,"material":0,"mode":4}]}],"nodes":[{"mesh":0,"name":"Plane","rotation":[0,0,0,1],"scale":[1,1,1],"translation":[-44.3058052062988,0,-0.83036869764328]}],"samplers":[{}],"scene":0,"scenes":[{"name":"Root Scene","nodes":[0]}],"textures":[{"name":"base_color_texture","sampler":0,"source":0}]}