{"accessors":[{"bufferView":0,"byteOffset":0,"componentType":5123,"count":786,"type":"SCALAR"},{"bufferView":1,"byteOffset":0,"componentType":5126,"count":502,"max":[0.0854803994297981,0.0206336490809917,0.317297846078873],"min":[-0.08557276427746,-0.02063364908099,-0.41477411985397],"type":"VEC3"},{"bufferView":2,"byteOffset":0,"componentType":5126,"count":502,"type":"VEC3"},{"bufferView":3,"byteOffset":0,"componentType":5126,"count":502,"type":"VEC2"}],"asset":{"generator":"FBX2glTF v0.13.1","version":"2.0"},"bufferViews":[{"buffer":0,"byteLength":1572,"byteOffset":0,"target":34963},{"buffer":0,"byteLength":6024,"byteOffset":1572,"target":34962},{"buffer":0,"byteLength":6024,"byteOffset":7596,"target":34962},{"buffer":0,"byteLength":4016,"byteOffset":13620,"target":34962}],"buffers":[{"byteLength":17636,"uri":"SM_Ax_01.bin"}],"images":[{"name":"Polygon_Camping_Texture_vol2.0","uri":"Polygon_Camping_Texture_vol2.0.jpg"}],"materials":[{"alphaMode":"OPAQUE","doubleSided":false,"extras":{"fromFBX":{"isTruePBR":false,"shadingModel":"Phong"}},"name":"Material","pbrMetallicRoughness":{"baseColorFactor":[1,1,1,1],"baseColorTexture":{"index":0,"texCoord":0},"metallicFactor":0.400000005960464,"roughnessFactor":0.272165536880493}}],"meshes":[{"name":"SM_Ax_01","primitives":[{"attributes":{"NORMAL":2,"POSITION":1,"TEXCOORD_0":3},"indices":0,"material":0,"mode":4}]}],"nodes":[{"mesh":0,"name":"SM_Ax_01","rotation":[0,0,0,1],"scale":[1,1,1],"translation":[6.16341781616211,0,0.186097174882889]}],"samplers":[{}],"scene":0,"scenes":[{"name":"Root Scene","nodes":[0]}],"textures":[{"name":"base_color_texture","sampler":0,"source":0}]}