{"accessors":[{"bufferView":0,"byteOffset":0,"componentType":5123,"count":6597,"type":"SCALAR"},{"bufferView":1,"byteOffset":0,"componentType":5126,"count":4207,"max":[0.61707991361618,0.402582317590714,-0.05349903926253],"min":[-0.67788529396057,-0.03324488550425,-1.58226573467255],"type":"VEC3"},{"bufferView":2,"byteOffset":0,"componentType":5126,"count":4207,"type":"VEC3"},{"bufferView":3,"byteOffset":0,"componentType":5126,"count":4207,"type":"VEC2"}],"asset":{"generator":"FBX2glTF v0.13.1","version":"2.0"},"bufferViews":[{"buffer":0,"byteLength":13194,"byteOffset":0,"target":34963},{"buffer":0,"byteLength":50484,"byteOffset":13196,"target":34962},{"buffer":0,"byteLength":50484,"byteOffset":63680,"target":34962},{"buffer":0,"byteLength":33656,"byteOffset":114164,"target":34962}],"buffers":[{"byteLength":147820,"uri":"SM_Boat_01_B.bin"}],"images":[{"name":"Polygon_Camping_Texture_vol2.0","uri":"Polygon_Camping_Texture_vol2.0.jpg"}],"materials":[{"alphaMode":"OPAQUE","doubleSided":false,"extras":{"fromFBX":{"isTruePBR":false,"shadingModel":"Phong"}},"name":"Material","pbrMetallicRoughness":{"baseColorFactor":[1,1,1,1],"baseColorTexture":{"index":0,"texCoord":0},"metallicFactor":0.400000005960464,"roughnessFactor":0.272165536880493}}],"meshes":[{"name":"SM_Boat_01_B","primitives":[{"attributes":{"NORMAL":2,"POSITION":1,"TEXCOORD_0":3},"indices":0,"material":0,"mode":4}]}],"nodes":[{"mesh":0,"name":"SM_Boat_01_B","rotation":[0,0,0,1],"scale":[1,1,1],"translation":[-0.73562240600586,0,0]}],"samplers":[{}],"scene":0,"scenes":[{"name":"Root Scene","nodes":[0]}],"textures":[{"name":"base_color_texture","sampler":0,"source":0}]}