{"accessors":[{"bufferView":0,"byteOffset":0,"componentType":5123,"count":7338,"type":"SCALAR"},{"bufferView":1,"byteOffset":0,"componentType":5126,"count":4645,"max":[0.858090877532959,0.286851704120636,1.10168409347534],"min":[-0.71958762407303,-0.03324488550425,-0.60393565893173],"type":"VEC3"},{"bufferView":2,"byteOffset":0,"componentType":5126,"count":4645,"type":"VEC3"},{"bufferView":3,"byteOffset":0,"componentType":5126,"count":4645,"type":"VEC2"}],"asset":{"generator":"FBX2glTF v0.13.1","version":"2.0"},"bufferViews":[{"buffer":0,"byteLength":14676,"byteOffset":0,"target":34963},{"buffer":0,"byteLength":55740,"byteOffset":14676,"target":34962},{"buffer":0,"byteLength":55740,"byteOffset":70416,"target":34962},{"buffer":0,"byteLength":37160,"byteOffset":126156,"target":34962}],"buffers":[{"byteLength":163316,"uri":"SM_Boat_01_A.bin"}],"images":[{"name":"Polygon_Camping_Texture_vol2.0","uri":"Polygon_Camping_Texture_vol2.0.jpg"}],"materials":[{"alphaMode":"OPAQUE","doubleSided":false,"extras":{"fromFBX":{"isTruePBR":false,"shadingModel":"Phong"}},"name":"Material","pbrMetallicRoughness":{"baseColorFactor":[1,1,1,1],"baseColorTexture":{"index":0,"texCoord":0},"metallicFactor":0.400000005960464,"roughnessFactor":0.272165536880493}}],"meshes":[{"name":"SM_Boat_01_A","primitives":[{"attributes":{"NORMAL":2,"POSITION":1,"TEXCOORD_0":3},"indices":0,"material":0,"mode":4}]}],"nodes":[{"mesh":0,"name":"SM_Boat_01_A","rotation":[0,0,0,1],"scale":[1,1,1],"translation":[0.738712310791016,0,-0.40455549955368]}],"samplers":[{}],"scene":0,"scenes":[{"name":"Root Scene","nodes":[0]}],"textures":[{"name":"base_color_texture","sampler":0,"source":0}]}