{"accessors":[{"bufferView":0,"byteOffset":0,"componentType":5123,"count":12348,"type":"SCALAR"},{"bufferView":1,"byteOffset":0,"componentType":5126,"count":7963,"max":[0.68718147277832,0.402582317590714,1.0491601228714],"min":[-0.69063895940781,-0.03324488550425,-1.58226573467255],"type":"VEC3"},{"bufferView":2,"byteOffset":0,"componentType":5126,"count":7963,"type":"VEC3"},{"bufferView":3,"byteOffset":0,"componentType":5126,"count":7963,"type":"VEC2"}],"asset":{"generator":"FBX2glTF v0.13.1","version":"2.0"},"bufferViews":[{"buffer":0,"byteLength":24696,"byteOffset":0,"target":34963},{"buffer":0,"byteLength":95556,"byteOffset":24696,"target":34962},{"buffer":0,"byteLength":95556,"byteOffset":120252,"target":34962},{"buffer":0,"byteLength":63704,"byteOffset":215808,"target":34962}],"buffers":[{"byteLength":279512,"uri":"SM_Boat_02.bin"}],"images":[{"name":"Polygon_Camping_Texture_vol2.0","uri":"Polygon_Camping_Texture_vol2.0.jpg"}],"materials":[{"alphaMode":"OPAQUE","doubleSided":false,"extras":{"fromFBX":{"isTruePBR":false,"shadingModel":"Phong"}},"name":"Material","pbrMetallicRoughness":{"baseColorFactor":[1,1,1,1],"baseColorTexture":{"index":0,"texCoord":0},"metallicFactor":0.400000005960464,"roughnessFactor":0.272165536880493}}],"meshes":[{"name":"SM_Boat_02","primitives":[{"attributes":{"NORMAL":2,"POSITION":1,"TEXCOORD_0":3},"indices":0,"material":0,"mode":4}]}],"nodes":[{"mesh":0,"name":"SM_Boat_02","rotation":[0,0,0,1],"scale":[1,1,1],"translation":[-4.79054069519043,0,0]}],"samplers":[{}],"scene":0,"scenes":[{"name":"Root Scene","nodes":[0]}],"textures":[{"name":"base_color_texture","sampler":0,"source":0}]}