{"accessors":[{"bufferView":0,"byteOffset":0,"componentType":5123,"count":7680,"type":"SCALAR"},{"bufferView":1,"byteOffset":0,"componentType":5126,"count":4637,"max":[0.545230984687805,2.39302206039429,0.54523104429245],"min":[-0.54523116350174,-0.11317920684815,-0.54523104429245],"type":"VEC3"},{"bufferView":2,"byteOffset":0,"componentType":5126,"count":4637,"type":"VEC3"},{"bufferView":3,"byteOffset":0,"componentType":5126,"count":4637,"type":"VEC2"}],"asset":{"generator":"FBX2glTF v0.13.1","version":"2.0"},"bufferViews":[{"buffer":0,"byteLength":15360,"byteOffset":0,"target":34963},{"buffer":0,"byteLength":55644,"byteOffset":15360,"target":34962},{"buffer":0,"byteLength":55644,"byteOffset":71004,"target":34962},{"buffer":0,"byteLength":37096,"byteOffset":126648,"target":34962}],"buffers":[{"byteLength":163744,"uri":"SM_Bouy_01.bin"}],"images":[{"name":"Polygon_Camping_Texture_vol2.0","uri":"Polygon_Camping_Texture_vol2.0.jpg"}],"materials":[{"alphaMode":"OPAQUE","doubleSided":false,"extras":{"fromFBX":{"isTruePBR":false,"shadingModel":"Phong"}},"name":"Material","pbrMetallicRoughness":{"baseColorFactor":[1,1,1,1],"baseColorTexture":{"index":0,"texCoord":0},"metallicFactor":0.400000005960464,"roughnessFactor":0.272165536880493}}],"meshes":[{"name":"SM_Bouy_01","primitives":[{"attributes":{"NORMAL":2,"POSITION":1,"TEXCOORD_0":3},"indices":0,"material":0,"mode":4}]}],"nodes":[{"mesh":0,"name":"SM_Bouy_01","rotation":[0,0,0,1],"scale":[1,1,1],"translation":[8.85532760620117,0,0]}],"samplers":[{}],"scene":0,"scenes":[{"name":"Root Scene","nodes":[0]}],"textures":[{"name":"base_color_texture","sampler":0,"source":0}]}