{"accessors":[{"bufferView":0,"byteOffset":0,"componentType":5123,"count":996,"type":"SCALAR"},{"bufferView":1,"byteOffset":0,"componentType":5126,"count":594,"max":[0.119181543588638,0.0391500145196915,0.296069264411926],"min":[-0.11918155103922,-0.03915000334382,-0.36156988143921],"type":"VEC3"},{"bufferView":2,"byteOffset":0,"componentType":5126,"count":594,"type":"VEC3"},{"bufferView":3,"byteOffset":0,"componentType":5126,"count":594,"type":"VEC2"}],"asset":{"generator":"FBX2glTF v0.13.1","version":"2.0"},"bufferViews":[{"buffer":0,"byteLength":1992,"byteOffset":0,"target":34963},{"buffer":0,"byteLength":7128,"byteOffset":1992,"target":34962},{"buffer":0,"byteLength":7128,"byteOffset":9120,"target":34962},{"buffer":0,"byteLength":4752,"byteOffset":16248,"target":34962}],"buffers":[{"byteLength":21000,"uri":"SM_Hammer_02.bin"}],"images":[{"name":"Polygon_Camping_Texture_vol2.0","uri":"Polygon_Camping_Texture_vol2.0.jpg"}],"materials":[{"alphaMode":"OPAQUE","doubleSided":false,"extras":{"fromFBX":{"isTruePBR":false,"shadingModel":"Phong"}},"name":"Material","pbrMetallicRoughness":{"baseColorFactor":[1,1,1,1],"baseColorTexture":{"index":0,"texCoord":0},"metallicFactor":0.400000005960464,"roughnessFactor":0.272165536880493}}],"meshes":[{"name":"SM_Hammer_02","primitives":[{"attributes":{"NORMAL":2,"POSITION":1,"TEXCOORD_0":3},"indices":0,"material":0,"mode":4}]}],"nodes":[{"mesh":0,"name":"SM_Hammer_02","rotation":[0,0,0,1],"scale":[1,1,1],"translation":[6.89075231552124,0,0]}],"samplers":[{}],"scene":0,"scenes":[{"name":"Root Scene","nodes":[0]}],"textures":[{"name":"base_color_texture","sampler":0,"source":0}]}