{"accessors":[{"bufferView":0,"byteOffset":0,"componentType":5123,"count":1548,"type":"SCALAR"},{"bufferView":1,"byteOffset":0,"componentType":5126,"count":1016,"max":[0.162784934043884,0.0237753260880709,0.512989342212677],"min":[-0.1588106751442,-0.03428189828992,-0.83103519678116],"type":"VEC3"},{"bufferView":2,"byteOffset":0,"componentType":5126,"count":1016,"type":"VEC3"},{"bufferView":3,"byteOffset":0,"componentType":5126,"count":1016,"type":"VEC2"}],"asset":{"generator":"FBX2glTF v0.13.1","version":"2.0"},"bufferViews":[{"buffer":0,"byteLength":3096,"byteOffset":0,"target":34963},{"buffer":0,"byteLength":12192,"byteOffset":3096,"target":34962},{"buffer":0,"byteLength":12192,"byteOffset":15288,"target":34962},{"buffer":0,"byteLength":8128,"byteOffset":27480,"target":34962}],"buffers":[{"byteLength":35608,"uri":"SM_Pitchfork_01.bin"}],"images":[{"name":"Polygon_Camping_Texture_vol2.0","uri":"Polygon_Camping_Texture_vol2.0.jpg"}],"materials":[{"alphaMode":"OPAQUE","doubleSided":false,"extras":{"fromFBX":{"isTruePBR":false,"shadingModel":"Phong"}},"name":"Material","pbrMetallicRoughness":{"baseColorFactor":[1,1,1,1],"baseColorTexture":{"index":0,"texCoord":0},"metallicFactor":0.400000005960464,"roughnessFactor":0.272165536880493}}],"meshes":[{"name":"SM_Pitchfork_01","primitives":[{"attributes":{"NORMAL":2,"POSITION":1,"TEXCOORD_0":3},"indices":0,"material":0,"mode":4}]}],"nodes":[{"mesh":0,"name":"SM_Pitchfork_01","rotation":[0,0,0,1],"scale":[1,1,1],"translation":[7.29354095458984,0,0.252177894115448]}],"samplers":[{}],"scene":0,"scenes":[{"name":"Root Scene","nodes":[0]}],"textures":[{"name":"base_color_texture","sampler":0,"source":0}]}