{"accessors":[{"bufferView":0,"byteOffset":0,"componentType":5123,"count":144,"type":"SCALAR"},{"bufferView":1,"byteOffset":0,"componentType":5126,"count":92,"max":[0.0288070011883974,2,0.0225814580917358],"min":[-0.03710772842169,0,-0.02258145809174],"type":"VEC3"},{"bufferView":2,"byteOffset":0,"componentType":5126,"count":92,"type":"VEC3"},{"bufferView":3,"byteOffset":0,"componentType":5126,"count":92,"type":"VEC2"}],"asset":{"generator":"FBX2glTF v0.13.1","version":"2.0"},"bufferViews":[{"buffer":0,"byteLength":288,"byteOffset":0,"target":34963},{"buffer":0,"byteLength":1104,"byteOffset":288,"target":34962},{"buffer":0,"byteLength":1104,"byteOffset":1392,"target":34962},{"buffer":0,"byteLength":736,"byteOffset":2496,"target":34962}],"buffers":[{"byteLength":3232,"uri":"SM_Stick_01.bin"}],"images":[{"name":"Polygon_Camping_Texture_vol2.0","uri":"Polygon_Camping_Texture_vol2.0.jpg"}],"materials":[{"alphaMode":"OPAQUE","doubleSided":false,"extras":{"fromFBX":{"isTruePBR":false,"shadingModel":"Phong"}},"name":"Material","pbrMetallicRoughness":{"baseColorFactor":[1,1,1,1],"baseColorTexture":{"index":0,"texCoord":0},"metallicFactor":0.400000005960464,"roughnessFactor":0.272165536880493}}],"meshes":[{"name":"SM_Stick_01","primitives":[{"attributes":{"NORMAL":2,"POSITION":1,"TEXCOORD_0":3},"indices":0,"material":0,"mode":4}]}],"nodes":[{"mesh":0,"name":"SM_Stick_01","rotation":[0,0,0,1],"scale":[1,1,1],"translation":[-8.18589782714844,0,0]}],"samplers":[{}],"scene":0,"scenes":[{"name":"Root Scene","nodes":[0]}],"textures":[{"name":"base_color_texture","sampler":0,"source":0}]}