{"accessors":[{"bufferView":0,"byteOffset":0,"componentType":5123,"count":429,"type":"SCALAR"},{"bufferView":1,"byteOffset":0,"componentType":5126,"count":285,"max":[19.9581260681152,6.20486211776733,19.9710483551025],"min":[-20.0418701171875,-0.00001907348633,-20.0289535522461],"type":"VEC3"},{"bufferView":2,"byteOffset":0,"componentType":5126,"count":285,"type":"VEC3"},{"bufferView":3,"byteOffset":0,"componentType":5126,"count":285,"type":"VEC2"}],"asset":{"generator":"FBX2glTF v0.13.1","version":"2.0"},"bufferViews":[{"buffer":0,"byteLength":858,"byteOffset":0,"target":34963},{"buffer":0,"byteLength":3420,"byteOffset":860,"target":34962},{"buffer":0,"byteLength":3420,"byteOffset":4280,"target":34962},{"buffer":0,"byteLength":2280,"byteOffset":7700,"target":34962}],"buffers":[{"byteLength":9980,"uri":"SM_Bg_02.bin"}],"images":[{"name":"Polygon_Texture_vol2","uri":"Polygon_Texture_vol2.png"}],"materials":[{"alphaMode":"OPAQUE","doubleSided":false,"extras":{"fromFBX":{"isTruePBR":false,"shadingModel":"Phong"}},"name":"Material","pbrMetallicRoughness":{"baseColorFactor":[1,1,1,1],"baseColorTexture":{"index":0,"texCoord":0},"metallicFactor":0.400000005960464,"roughnessFactor":0.272165536880493}}],"meshes":[{"name":"SM_Bg_02","primitives":[{"attributes":{"NORMAL":2,"POSITION":1,"TEXCOORD_0":3},"indices":0,"material":0,"mode":4}]}],"nodes":[{"mesh":0,"name":"SM_Bg_02","rotation":[0,0,0,1],"scale":[1,1,1],"translation":[301.055603027344,0,0.0289583262056112]}],"samplers":[{}],"scene":0,"scenes":[{"name":"Root Scene","nodes":[0]}],"textures":[{"name":"base_color_texture","sampler":0,"source":0}]}