{"accessors":[{"bufferView":0,"byteOffset":0,"componentType":5123,"count":2766,"type":"SCALAR"},{"bufferView":1,"byteOffset":0,"componentType":5126,"count":2744,"max":[17.7045001983643,4.81064176559448,8.565598487854],"min":[-17.7376880645752,-4.02079486846924,-7.31465864181519],"type":"VEC3"},{"bufferView":2,"byteOffset":0,"componentType":5126,"count":2744,"type":"VEC3"},{"bufferView":3,"byteOffset":0,"componentType":5126,"count":2744,"type":"VEC2"}],"asset":{"generator":"FBX2glTF v0.13.1","version":"2.0"},"bufferViews":[{"buffer":0,"byteLength":5532,"byteOffset":0,"target":34963},{"buffer":0,"byteLength":32928,"byteOffset":5532,"target":34962},{"buffer":0,"byteLength":32928,"byteOffset":38460,"target":34962},{"buffer":0,"byteLength":21952,"byteOffset":71388,"target":34962}],"buffers":[{"byteLength":93340,"uri":"SM_Cloud_03.bin"}],"images":[{"name":"Polygon_Texture_vol2","uri":"Polygon_Texture_vol2.png"}],"materials":[{"alphaMode":"OPAQUE","doubleSided":false,"extras":{"fromFBX":{"isTruePBR":false,"shadingModel":"Phong"}},"name":"Material","pbrMetallicRoughness":{"baseColorFactor":[1,1,1,1],"baseColorTexture":{"index":0,"texCoord":0},"metallicFactor":0.400000005960464,"roughnessFactor":0.272165536880493}}],"meshes":[{"name":"SM_Cloud_03","primitives":[{"attributes":{"NORMAL":2,"POSITION":1,"TEXCOORD_0":3},"indices":0,"material":0,"mode":4}]}],"nodes":[{"mesh":0,"name":"SM_Cloud_03","rotation":[0,0,0,1],"scale":[1,1,1],"translation":[208.257919311523,-0.78918814659119,2.25318145751953]}],"samplers":[{}],"scene":0,"scenes":[{"name":"Root Scene","nodes":[0]}],"textures":[{"name":"base_color_texture","sampler":0,"source":0}]}