{"accessors":[{"bufferView":0,"byteOffset":0,"componentType":5123,"count":3102,"type":"SCALAR"},{"bufferView":1,"byteOffset":0,"componentType":5126,"count":3080,"max":[2.66031455993652,1.57062113285065,1.93432152271271],"min":[-2.26137661933899,-1.21769750118256,-1.90961968898773],"type":"VEC3"},{"bufferView":2,"byteOffset":0,"componentType":5126,"count":3080,"type":"VEC3"},{"bufferView":3,"byteOffset":0,"componentType":5126,"count":3080,"type":"VEC2"}],"asset":{"generator":"FBX2glTF v0.13.1","version":"2.0"},"bufferViews":[{"buffer":0,"byteLength":6204,"byteOffset":0,"target":34963},{"buffer":0,"byteLength":36960,"byteOffset":6204,"target":34962},{"buffer":0,"byteLength":36960,"byteOffset":43164,"target":34962},{"buffer":0,"byteLength":24640,"byteOffset":80124,"target":34962}],"buffers":[{"byteLength":104764,"uri":"SM_Cloud_02.bin"}],"images":[{"name":"Polygon_Texture_vol2","uri":"Polygon_Texture_vol2.png"}],"materials":[{"alphaMode":"OPAQUE","doubleSided":false,"extras":{"fromFBX":{"isTruePBR":false,"shadingModel":"Phong"}},"name":"Material","pbrMetallicRoughness":{"baseColorFactor":[1,1,1,1],"baseColorTexture":{"index":0,"texCoord":0},"metallicFactor":0.400000005960464,"roughnessFactor":0.272165536880493}}],"meshes":[{"name":"SM_Cloud_02","primitives":[{"attributes":{"NORMAL":2,"POSITION":1,"TEXCOORD_0":3},"indices":0,"material":0,"mode":4}]}],"nodes":[{"mesh":0,"name":"SM_Cloud_02","rotation":[0,0,0,1],"scale":[8.84780597686768,8.84780597686768,8.84780597686768],"translation":[161.521484375,0.986206650733948,0.08476871997118]}],"samplers":[{}],"scene":0,"scenes":[{"name":"Root Scene","nodes":[0]}],"textures":[{"name":"base_color_texture","sampler":0,"source":0}]}