{"accessors":[{"bufferView":0,"byteOffset":0,"componentType":5123,"count":3384,"type":"SCALAR"},{"bufferView":1,"byteOffset":0,"componentType":5126,"count":3384,"max":[11.8366985321045,4.21065807342529,6.29650640487671],"min":[-11.2907543182373,-4.02824068069458,-5.5250449180603],"type":"VEC3"},{"bufferView":2,"byteOffset":0,"componentType":5126,"count":3384,"type":"VEC3"},{"bufferView":3,"byteOffset":0,"componentType":5126,"count":3384,"type":"VEC2"}],"asset":{"generator":"FBX2glTF v0.13.1","version":"2.0"},"bufferViews":[{"buffer":0,"byteLength":6768,"byteOffset":0,"target":34963},{"buffer":0,"byteLength":40608,"byteOffset":6768,"target":34962},{"buffer":0,"byteLength":40608,"byteOffset":47376,"target":34962},{"buffer":0,"byteLength":27072,"byteOffset":87984,"target":34962}],"buffers":[{"byteLength":115056,"uri":"SM_Cloud_01.bin"}],"images":[{"name":"Polygon_Texture_vol2","uri":"Polygon_Texture_vol2.png"}],"materials":[{"alphaMode":"OPAQUE","doubleSided":false,"extras":{"fromFBX":{"isTruePBR":false,"shadingModel":"Phong"}},"name":"Material","pbrMetallicRoughness":{"baseColorFactor":[1,1,1,1],"baseColorTexture":{"index":0,"texCoord":0},"metallicFactor":0.400000005960464,"roughnessFactor":0.272165536880493}}],"meshes":[{"name":"SM_Cloud_01","primitives":[{"attributes":{"NORMAL":2,"POSITION":1,"TEXCOORD_0":3},"indices":0,"material":0,"mode":4}]}],"nodes":[{"mesh":0,"name":"SM_Cloud_01","rotation":[0,0,0,1],"scale":[3.48470664024353,3.48470664024353,3.48470664024353],"translation":[96.6534042358398,-0.88027608394623,0.0555934756994247]}],"samplers":[{}],"scene":0,"scenes":[{"name":"Root Scene","nodes":[0]}],"textures":[{"name":"base_color_texture","sampler":0,"source":0}]}