{"accessors":[{"bufferView":0,"byteOffset":0,"componentType":5123,"count":5685,"type":"SCALAR"},{"bufferView":1,"byteOffset":0,"componentType":5126,"count":3444,"max":[0.153865128755569,1.98226618766785,0.115892224013805],"min":[-1.01289963722229,0,-0.11589222401381],"type":"VEC3"},{"bufferView":2,"byteOffset":0,"componentType":5126,"count":3444,"type":"VEC3"},{"bufferView":3,"byteOffset":0,"componentType":5126,"count":3444,"type":"VEC2"}],"asset":{"generator":"FBX2glTF v0.13.1","version":"2.0"},"bufferViews":[{"buffer":0,"byteLength":11370,"byteOffset":0,"target":34963},{"buffer":0,"byteLength":41328,"byteOffset":11372,"target":34962},{"buffer":0,"byteLength":41328,"byteOffset":52700,"target":34962},{"buffer":0,"byteLength":27552,"byteOffset":94028,"target":34962}],"buffers":[{"byteLength":121580,"uri":"SM_Announcement_01.bin"}],"images":[{"name":"Polygon_Camping_Texture_vol2.0","uri":"Polygon_Camping_Texture_vol2.0.jpg"}],"materials":[{"alphaMode":"OPAQUE","doubleSided":false,"extras":{"fromFBX":{"isTruePBR":false,"shadingModel":"Phong"}},"name":"Material","pbrMetallicRoughness":{"baseColorFactor":[1,1,1,1],"baseColorTexture":{"index":0,"texCoord":0},"metallicFactor":0.400000005960464,"roughnessFactor":0.272165536880493}}],"meshes":[{"name":"SM_Announcement_01","primitives":[{"attributes":{"NORMAL":2,"POSITION":1,"TEXCOORD_0":3},"indices":0,"material":0,"mode":4}]}],"nodes":[{"mesh":0,"name":"SM_Announcement_01","rotation":[0,0,0,1],"scale":[1,1,1],"translation":[-6.27989387512207,0,0]}],"samplers":[{}],"scene":0,"scenes":[{"name":"Root Scene","nodes":[0]}],"textures":[{"name":"base_color_texture","sampler":0,"source":0}]}