{"accessors":[{"bufferView":0,"byteOffset":0,"componentType":5123,"count":7914,"type":"SCALAR"},{"bufferView":1,"byteOffset":0,"componentType":5126,"count":5198,"max":[0.0221721529960632,0.0419236645102501,2.00540113449097],"min":[-0.02164536714554,-0.09478185325861,-0.00002324576599],"type":"VEC3"},{"bufferView":2,"byteOffset":0,"componentType":5126,"count":5198,"type":"VEC3"},{"bufferView":3,"byteOffset":0,"componentType":5126,"count":5198,"type":"VEC2"}],"asset":{"generator":"FBX2glTF v0.13.1","version":"2.0"},"bufferViews":[{"buffer":0,"byteLength":15828,"byteOffset":0,"target":34963},{"buffer":0,"byteLength":62376,"byteOffset":15828,"target":34962},{"buffer":0,"byteLength":62376,"byteOffset":78204,"target":34962},{"buffer":0,"byteLength":41584,"byteOffset":140580,"target":34962}],"buffers":[{"byteLength":182164,"uri":"SM_FishingRods_01_A.bin"}],"images":[{"name":"Polygon_Camping_Texture_vol2.0","uri":"Polygon_Camping_Texture_vol2.0.jpg"}],"materials":[{"alphaMode":"OPAQUE","doubleSided":false,"extras":{"fromFBX":{"isTruePBR":false,"shadingModel":"Phong"}},"name":"Material","pbrMetallicRoughness":{"baseColorFactor":[1,1,1,1],"baseColorTexture":{"index":0,"texCoord":0},"metallicFactor":0.400000005960464,"roughnessFactor":0.272165536880493}}],"meshes":[{"name":"SM_FishingRods_01_A","primitives":[{"attributes":{"NORMAL":2,"POSITION":1,"TEXCOORD_0":3},"indices":0,"material":0,"mode":4}]}],"nodes":[{"mesh":0,"name":"SM_FishingRods_01_A","rotation":[0,0,0,1],"scale":[1,1,1],"translation":[4.28566312789917,-0.02041966095567,-1.00540113449097]}],"samplers":[{}],"scene":0,"scenes":[{"name":"Root Scene","nodes":[0]}],"textures":[{"name":"base_color_texture","sampler":0,"source":0}]}