{"accessors":[{"bufferView":0,"byteOffset":0,"componentType":5123,"count":8328,"type":"SCALAR"},{"bufferView":1,"byteOffset":0,"componentType":5126,"count":5500,"max":[0.0226976871490479,0.021504171192646,0.16666667163372],"min":[-0.02290374040604,-0.11520134657621,-1.86412644386292],"type":"VEC3"},{"bufferView":2,"byteOffset":0,"componentType":5126,"count":5500,"type":"VEC3"},{"bufferView":3,"byteOffset":0,"componentType":5126,"count":5500,"type":"VEC2"}],"asset":{"generator":"FBX2glTF v0.13.1","version":"2.0"},"bufferViews":[{"buffer":0,"byteLength":16656,"byteOffset":0,"target":34963},{"buffer":0,"byteLength":66000,"byteOffset":16656,"target":34962},{"buffer":0,"byteLength":66000,"byteOffset":82656,"target":34962},{"buffer":0,"byteLength":44000,"byteOffset":148656,"target":34962}],"buffers":[{"byteLength":192656,"uri":"SM_FishingRods_02_A.bin"}],"images":[{"name":"Polygon_Camping_Texture_vol2.0","uri":"Polygon_Camping_Texture_vol2.0.jpg"}],"materials":[{"alphaMode":"OPAQUE","doubleSided":false,"extras":{"fromFBX":{"isTruePBR":false,"shadingModel":"Phong"}},"name":"Material","pbrMetallicRoughness":{"baseColorFactor":[1,1,1,1],"baseColorTexture":{"index":0,"texCoord":0},"metallicFactor":0.400000005960464,"roughnessFactor":0.272165536880493}}],"meshes":[{"name":"SM_FishingRods_02_A","primitives":[{"attributes":{"NORMAL":2,"POSITION":1,"TEXCOORD_0":3},"indices":0,"material":0,"mode":4}]}],"nodes":[{"mesh":0,"name":"SM_FishingRods_02_A","rotation":[0,0,0,1],"scale":[1,1,1],"translation":[3.86863327026367,-0.00000016798731,0.833333253860474]}],"samplers":[{}],"scene":0,"scenes":[{"name":"Root Scene","nodes":[0]}],"textures":[{"name":"base_color_texture","sampler":0,"source":0}]}