{"accessors":[{"bufferView":0,"byteOffset":0,"componentType":5123,"count":648,"type":"SCALAR"},{"bufferView":1,"byteOffset":0,"componentType":5126,"count":398,"max":[0.0681344121694565,0.0219634976238012,0.426144182682037],"min":[-0.06687174737453,-0.02498868852854,-0.60801410675049],"type":"VEC3"},{"bufferView":2,"byteOffset":0,"componentType":5126,"count":398,"type":"VEC3"},{"bufferView":3,"byteOffset":0,"componentType":5126,"count":398,"type":"VEC2"}],"asset":{"generator":"FBX2glTF v0.13.1","version":"2.0"},"bufferViews":[{"buffer":0,"byteLength":1296,"byteOffset":0,"target":34963},{"buffer":0,"byteLength":4776,"byteOffset":1296,"target":34962},{"buffer":0,"byteLength":4776,"byteOffset":6072,"target":34962},{"buffer":0,"byteLength":3184,"byteOffset":10848,"target":34962}],"buffers":[{"byteLength":14032,"uri":"SM_Paddle_01_B.bin"}],"images":[{"name":"Polygon_Camping_Texture_vol2.0","uri":"Polygon_Camping_Texture_vol2.0.jpg"}],"materials":[{"alphaMode":"OPAQUE","doubleSided":false,"extras":{"fromFBX":{"isTruePBR":false,"shadingModel":"Phong"}},"name":"Material","pbrMetallicRoughness":{"baseColorFactor":[1,1,1,1],"baseColorTexture":{"index":0,"texCoord":0},"metallicFactor":0.400000005960464,"roughnessFactor":0.272165536880493}}],"meshes":[{"name":"SM_Paddle_01_B","primitives":[{"attributes":{"NORMAL":2,"POSITION":1,"TEXCOORD_0":3},"indices":0,"material":0,"mode":4}]}],"nodes":[{"mesh":0,"name":"SM_Paddle_01_B","rotation":[0,0,0,1],"scale":[1,1,1],"translation":[-2.92953300476074,0.00151259533595294,-0.89692854881287]}],"samplers":[{}],"scene":0,"scenes":[{"name":"Root Scene","nodes":[0]}],"textures":[{"name":"base_color_texture","sampler":0,"source":0}]}