{"accessors":[{"bufferView":0,"byteOffset":0,"componentType":5123,"count":960,"type":"SCALAR"},{"bufferView":1,"byteOffset":0,"componentType":5126,"count":624,"max":[0.20455114543438,0.0191236101090908,0.0718836858868599],"min":[-0.08196698129177,-0.01912361569703,-0.35343992710113],"type":"VEC3"},{"bufferView":2,"byteOffset":0,"componentType":5126,"count":624,"type":"VEC3"},{"bufferView":3,"byteOffset":0,"componentType":5126,"count":624,"type":"VEC2"}],"asset":{"generator":"FBX2glTF v0.13.1","version":"2.0"},"bufferViews":[{"buffer":0,"byteLength":1920,"byteOffset":0,"target":34963},{"buffer":0,"byteLength":7488,"byteOffset":1920,"target":34962},{"buffer":0,"byteLength":7488,"byteOffset":9408,"target":34962},{"buffer":0,"byteLength":4992,"byteOffset":16896,"target":34962}],"buffers":[{"byteLength":21888,"uri":"SM_Sickle_01.bin"}],"images":[{"name":"Polygon_Camping_Texture_vol2.0","uri":"Polygon_Camping_Texture_vol2.0.jpg"}],"materials":[{"alphaMode":"OPAQUE","doubleSided":false,"extras":{"fromFBX":{"isTruePBR":false,"shadingModel":"Phong"}},"name":"Material","pbrMetallicRoughness":{"baseColorFactor":[1,1,1,1],"baseColorTexture":{"index":0,"texCoord":0},"metallicFactor":0.400000005960464,"roughnessFactor":0.272165536880493}}],"meshes":[{"name":"SM_Sickle_01","primitives":[{"attributes":{"NORMAL":2,"POSITION":1,"TEXCOORD_0":3},"indices":0,"material":0,"mode":4}]}],"nodes":[{"mesh":0,"name":"SM_Sickle_01","rotation":[0,0,0,1],"scale":[1,1,1],"translation":[6.39932107925415,0.000000000931322574615479,0.0558848939836025]}],"samplers":[{}],"scene":0,"scenes":[{"name":"Root Scene","nodes":[0]}],"textures":[{"name":"base_color_texture","sampler":0,"source":0}]}