{"accessors":[{"bufferView":0,"byteOffset":0,"componentType":5123,"count":1512,"type":"SCALAR"},{"bufferView":1,"byteOffset":0,"componentType":5126,"count":980,"max":[0.164559170603752,0.0237993188202381,0.0823691561818123],"min":[-0.63451206684113,-0.02379931882024,-1.13326442241669],"type":"VEC3"},{"bufferView":2,"byteOffset":0,"componentType":5126,"count":980,"type":"VEC3"},{"bufferView":3,"byteOffset":0,"componentType":5126,"count":980,"type":"VEC2"}],"asset":{"generator":"FBX2glTF v0.13.1","version":"2.0"},"bufferViews":[{"buffer":0,"byteLength":3024,"byteOffset":0,"target":34963},{"buffer":0,"byteLength":11760,"byteOffset":3024,"target":34962},{"buffer":0,"byteLength":11760,"byteOffset":14784,"target":34962},{"buffer":0,"byteLength":7840,"byteOffset":26544,"target":34962}],"buffers":[{"byteLength":34384,"uri":"SM_Scythe_01.bin"}],"images":[{"name":"Polygon_Camping_Texture_vol2.0","uri":"Polygon_Camping_Texture_vol2.0.jpg"}],"materials":[{"alphaMode":"OPAQUE","doubleSided":false,"extras":{"fromFBX":{"isTruePBR":false,"shadingModel":"Phong"}},"name":"Material","pbrMetallicRoughness":{"baseColorFactor":[1,1,1,1],"baseColorTexture":{"index":0,"texCoord":0},"metallicFactor":0.400000005960464,"roughnessFactor":0.272165536880493}}],"meshes":[{"name":"SM_Scythe_01","primitives":[{"attributes":{"NORMAL":2,"POSITION":1,"TEXCOORD_0":3},"indices":0,"material":0,"mode":4}]}],"nodes":[{"mesh":0,"name":"SM_Scythe_01","rotation":[0,0,0,1],"scale":[1,1,1],"translation":[5.74527978897095,0,0.833151519298553]}],"samplers":[{}],"scene":0,"scenes":[{"name":"Root Scene","nodes":[0]}],"textures":[{"name":"base_color_texture","sampler":0,"source":0}]}