{"accessors":[{"bufferView":0,"byteOffset":0,"componentType":5123,"count":204,"type":"SCALAR"},{"bufferView":1,"byteOffset":0,"componentType":5126,"count":113,"max":[0.0689410865306854,0.00938600581139326,0.370288014411926],"min":[-0.0725477039814,-0.01256515458226,-0.33811029791832],"type":"VEC3"},{"bufferView":2,"byteOffset":0,"componentType":5126,"count":113,"type":"VEC3"},{"bufferView":3,"byteOffset":0,"componentType":5126,"count":113,"type":"VEC2"}],"asset":{"generator":"FBX2glTF v0.13.1","version":"2.0"},"bufferViews":[{"buffer":0,"byteLength":408,"byteOffset":0,"target":34963},{"buffer":0,"byteLength":1356,"byteOffset":408,"target":34962},{"buffer":0,"byteLength":1356,"byteOffset":1764,"target":34962},{"buffer":0,"byteLength":904,"byteOffset":3120,"target":34962}],"buffers":[{"byteLength":4024,"uri":"SM_Wreckage_01_A.bin"}],"images":[{"name":"Polygon_Camping_Texture_vol2.0","uri":"Polygon_Camping_Texture_vol2.0.jpg"}],"materials":[{"alphaMode":"OPAQUE","doubleSided":false,"extras":{"fromFBX":{"isTruePBR":false,"shadingModel":"Phong"}},"name":"Material","pbrMetallicRoughness":{"baseColorFactor":[1,1,1,1],"baseColorTexture":{"index":0,"texCoord":0},"metallicFactor":0.400000005960464,"roughnessFactor":0.272165536880493}}],"meshes":[{"name":"SM_Wreckage_01_A","primitives":[{"attributes":{"NORMAL":2,"POSITION":1,"TEXCOORD_0":3},"indices":0,"material":0,"mode":4}]}],"nodes":[{"mesh":0,"name":"SM_Wreckage_01_A","rotation":[0,0,0,1],"scale":[1,1,1],"translation":[0.00758552551269531,0.00158957450184971,0.419188261032104]}],"samplers":[{}],"scene":0,"scenes":[{"name":"Root Scene","nodes":[0]}],"textures":[{"name":"base_color_texture","sampler":0,"source":0}]}