{"accessors":[{"bufferView":0,"byteOffset":0,"componentType":5123,"count":29916,"type":"SCALAR"},{"bufferView":1,"byteOffset":0,"componentType":5126,"count":19810,"max":[2.08653426170349,4.3660192489624,2.45805883407593],"min":[-1.95168304443359,0,-2.47865843772888],"type":"VEC3"},{"bufferView":2,"byteOffset":0,"componentType":5126,"count":19810,"type":"VEC3"},{"bufferView":3,"byteOffset":0,"componentType":5126,"count":19810,"type":"VEC2"}],"asset":{"generator":"FBX2glTF v0.13.1","version":"2.0"},"bufferViews":[{"buffer":0,"byteLength":59832,"byteOffset":0,"target":34963},{"buffer":0,"byteLength":237720,"byteOffset":59832,"target":34962},{"buffer":0,"byteLength":237720,"byteOffset":297552,"target":34962},{"buffer":0,"byteLength":158480,"byteOffset":535272,"target":34962}],"buffers":[{"byteLength":693752,"uri":"SM_Build_08.bin"}],"images":[{"name":"Polygon_Camping_Texture_vol2.0","uri":"Polygon_Camping_Texture_vol2.0.jpg"}],"materials":[{"alphaMode":"OPAQUE","doubleSided":false,"extras":{"fromFBX":{"isTruePBR":false,"shadingModel":"Phong"}},"name":"main","pbrMetallicRoughness":{"baseColorFactor":[1,1,1,1],"baseColorTexture":{"index":0,"texCoord":0},"metallicFactor":0.400000005960464,"roughnessFactor":0.272165536880493}}],"meshes":[{"name":"SM_Build_08","primitives":[{"attributes":{"NORMAL":2,"POSITION":1,"TEXCOORD_0":3},"indices":0,"material":0,"mode":4}]}],"nodes":[{"mesh":0,"name":"SM_Build_08","rotation":[0,0,0,1],"scale":[1,1,1],"translation":[-144.283630371094,-0.13678440451622,0.209448084235191]}],"samplers":[{}],"scene":0,"scenes":[{"name":"Root Scene","nodes":[0]}],"textures":[{"name":"base_color_texture","sampler":0,"source":0}]}