{"accessors":[{"bufferView":0,"byteOffset":0,"componentType":5123,"count":3312,"type":"SCALAR"},{"bufferView":1,"byteOffset":0,"componentType":5126,"count":2442,"max":[1.30913817882538,0.99999988079071,1.12259352207184],"min":[-1.31004357337952,-1.00000011920929,-1.01828908920288],"type":"VEC3"},{"bufferView":2,"byteOffset":0,"componentType":5126,"count":2442,"type":"VEC3"},{"bufferView":3,"byteOffset":0,"componentType":5126,"count":2442,"type":"VEC2"}],"asset":{"generator":"FBX2glTF v0.13.1","version":"2.0"},"bufferViews":[{"buffer":0,"byteLength":6624,"byteOffset":0,"target":34963},{"buffer":0,"byteLength":29304,"byteOffset":6624,"target":34962},{"buffer":0,"byteLength":29304,"byteOffset":35928,"target":34962},{"buffer":0,"byteLength":19536,"byteOffset":65232,"target":34962}],"buffers":[{"byteLength":84768,"uri":"SM_Berth_02.bin"}],"images":[{"name":"Polygon_Camping_Texture_vol2.0","uri":"Polygon_Camping_Texture_vol2.0.jpg"}],"materials":[{"alphaMode":"OPAQUE","doubleSided":false,"extras":{"fromFBX":{"isTruePBR":false,"shadingModel":"Phong"}},"name":"main","pbrMetallicRoughness":{"baseColorFactor":[1,1,1,1],"baseColorTexture":{"index":0,"texCoord":0},"metallicFactor":0.400000005960464,"roughnessFactor":0.272165536880493}}],"meshes":[{"name":"SM_Berth_02","primitives":[{"attributes":{"NORMAL":2,"POSITION":1,"TEXCOORD_0":3},"indices":0,"material":0,"mode":4}]}],"nodes":[{"mesh":0,"name":"SM_Berth_02","rotation":[0,0,0,1],"scale":[1,1,1],"translation":[-51.8600196838379,-0.30693057179451,0.00753112463280559]}],"samplers":[{}],"scene":0,"scenes":[{"name":"Root Scene","nodes":[0]}],"textures":[{"name":"base_color_texture","sampler":0,"source":0}]}