{"accessors":[{"bufferView":0,"byteOffset":0,"componentType":5123,"count":972,"type":"SCALAR"},{"bufferView":1,"byteOffset":0,"componentType":5126,"count":734,"max":[1.30913841724396,2,0.206131801009178],"min":[-1.31004345417023,0,-0.20133961737156],"type":"VEC3"},{"bufferView":2,"byteOffset":0,"componentType":5126,"count":734,"type":"VEC3"},{"bufferView":3,"byteOffset":0,"componentType":5126,"count":734,"type":"VEC2"}],"asset":{"generator":"FBX2glTF v0.13.1","version":"2.0"},"bufferViews":[{"buffer":0,"byteLength":1944,"byteOffset":0,"target":34963},{"buffer":0,"byteLength":8808,"byteOffset":1944,"target":34962},{"buffer":0,"byteLength":8808,"byteOffset":10752,"target":34962},{"buffer":0,"byteLength":5872,"byteOffset":19560,"target":34962}],"buffers":[{"byteLength":25432,"uri":"SM_Berth_04.bin"}],"images":[{"name":"Polygon_Camping_Texture_vol2.0","uri":"Polygon_Camping_Texture_vol2.0.jpg"}],"materials":[{"alphaMode":"OPAQUE","doubleSided":false,"extras":{"fromFBX":{"isTruePBR":false,"shadingModel":"Phong"}},"name":"main","pbrMetallicRoughness":{"baseColorFactor":[1,1,1,1],"baseColorTexture":{"index":0,"texCoord":0},"metallicFactor":0.400000005960464,"roughnessFactor":0.272165536880493}}],"meshes":[{"name":"SM_Berth_04","primitives":[{"attributes":{"NORMAL":2,"POSITION":1,"TEXCOORD_0":3},"indices":0,"material":0,"mode":4}]}],"nodes":[{"mesh":0,"name":"SM_Berth_04","rotation":[0,0,0,1],"scale":[1,1,1],"translation":[-51.8600196838379,-1.30693054199219,3.89249682426453]}],"samplers":[{}],"scene":0,"scenes":[{"name":"Root Scene","nodes":[0]}],"textures":[{"name":"base_color_texture","sampler":0,"source":0}]}