{"accessors":[{"bufferView":0,"byteOffset":0,"componentType":5123,"count":16740,"type":"SCALAR"},{"bufferView":1,"byteOffset":0,"componentType":5126,"count":11641,"max":[7.21401786804199,4.23548030853271,4.3218412399292],"min":[-7.21401786804199,-0.02867036499083,-2.84237504005432],"type":"VEC3"},{"bufferView":2,"byteOffset":0,"componentType":5126,"count":11641,"type":"VEC3"},{"bufferView":3,"byteOffset":0,"componentType":5126,"count":11641,"type":"VEC2"},{"bufferView":4,"byteOffset":0,"componentType":5123,"count":36,"type":"SCALAR"},{"bufferView":5,"byteOffset":0,"componentType":5126,"count":20,"max":[3.60788822174072,2.50681972503662,2.37666368484497],"min":[-3.60883331298828,0.892913341522217,-2.47612142562866],"type":"VEC3"},{"bufferView":6,"byteOffset":0,"componentType":5126,"count":20,"type":"VEC3"},{"bufferView":7,"byteOffset":0,"componentType":5126,"count":20,"type":"VEC2"}],"asset":{"generator":"FBX2glTF v0.13.1","version":"2.0"},"bufferViews":[{"buffer":0,"byteLength":33480,"byteOffset":0,"target":34963},{"buffer":0,"byteLength":139692,"byteOffset":33480,"target":34962},{"buffer":0,"byteLength":139692,"byteOffset":173172,"target":34962},{"buffer":0,"byteLength":93128,"byteOffset":312864,"target":34962},{"buffer":0,"byteLength":72,"byteOffset":405992,"target":34963},{"buffer":0,"byteLength":240,"byteOffset":406064,"target":34962},{"buffer":0,"byteLength":240,"byteOffset":406304,"target":34962},{"buffer":0,"byteLength":160,"byteOffset":406544,"target":34962}],"buffers":[{"byteLength":406704,"uri":"SM_Barn_01_A.bin"}],"images":[{"name":"Polygon_Camping_Texture_vol2.0","uri":"Polygon_Camping_Texture_vol2.0.jpg"}],"materials":[{"alphaMode":"OPAQUE","doubleSided":false,"extras":{"fromFBX":{"isTruePBR":false,"shadingModel":"Phong"}},"name":"main","pbrMetallicRoughness":{"baseColorFactor":[1,1,1,1],"baseColorTexture":{"index":0,"texCoord":0},"metallicFactor":0.400000005960464,"roughnessFactor":0.272165536880493}},{"alphaMode":"OPAQUE","doubleSided":false,"extras":{"fromFBX":{"isTruePBR":false,"shadingModel":"Phong"}},"name":"Glass","pbrMetallicRoughness":{"baseColorFactor":[0.149527981877327,0.800000071525574,0.800000071525574,1],"metallicFactor":0.400000005960464,"roughnessFactor":0.272165536880493}}],"meshes":[{"name":"SM_Barn_01_A","primitives":[{"attributes":{"NORMAL":2,"POSITION":1,"TEXCOORD_0":3},"indices":0,"material":0,"mode":4},{"attributes":{"NORMAL":6,"POSITION":5,"TEXCOORD_0":7},"indices":4,"material":1,"mode":4}]}],"nodes":[{"mesh":0,"name":"SM_Barn_01_A","rotation":[0,0,0,1],"scale":[1,1,1],"translation":[-80.5486602783203,0,0]}],"samplers":[{}],"scene":0,"scenes":[{"name":"Root Scene","nodes":[0]}],"textures":[{"name":"base_color_texture","sampler":0,"source":0}]}