{"accessors":[{"bufferView":0,"byteOffset":0,"componentType":5123,"count":37092,"type":"SCALAR"},{"bufferView":1,"byteOffset":0,"componentType":5126,"count":24021,"max":[4.51541376113892,9.14872455596924,3.69800066947937],"min":[-4.50764751434326,-0.01985553652048,-3.09600234031677],"type":"VEC3"},{"bufferView":2,"byteOffset":0,"componentType":5126,"count":24021,"type":"VEC3"},{"bufferView":3,"byteOffset":0,"componentType":5126,"count":24021,"type":"VEC2"},{"bufferView":4,"byteOffset":0,"componentType":5123,"count":24,"type":"SCALAR"},{"bufferView":5,"byteOffset":0,"componentType":5126,"count":16,"max":[2.86295127868652,1.93135094642639,2.79957675933838],"min":[-2.79376268386841,1.08502650260925,-2.82761001586914],"type":"VEC3"},{"bufferView":6,"byteOffset":0,"componentType":5126,"count":16,"type":"VEC3"},{"bufferView":7,"byteOffset":0,"componentType":5126,"count":16,"type":"VEC2"}],"asset":{"generator":"FBX2glTF v0.13.1","version":"2.0"},"bufferViews":[{"buffer":0,"byteLength":74184,"byteOffset":0,"target":34963},{"buffer":0,"byteLength":288252,"byteOffset":74184,"target":34962},{"buffer":0,"byteLength":288252,"byteOffset":362436,"target":34962},{"buffer":0,"byteLength":192168,"byteOffset":650688,"target":34962},{"buffer":0,"byteLength":48,"byteOffset":842856,"target":34963},{"buffer":0,"byteLength":192,"byteOffset":842904,"target":34962},{"buffer":0,"byteLength":192,"byteOffset":843096,"target":34962},{"buffer":0,"byteLength":128,"byteOffset":843288,"target":34962}],"buffers":[{"byteLength":843416,"uri":"SM_Build_06.bin"}],"images":[{"name":"Polygon_Camping_Texture_vol2.0","uri":"Polygon_Camping_Texture_vol2.0.jpg"}],"materials":[{"alphaMode":"OPAQUE","doubleSided":false,"extras":{"fromFBX":{"isTruePBR":false,"shadingModel":"Phong"}},"name":"main","pbrMetallicRoughness":{"baseColorFactor":[1,1,1,1],"baseColorTexture":{"index":0,"texCoord":0},"metallicFactor":0.400000005960464,"roughnessFactor":0.272165536880493}},{"alphaMode":"OPAQUE","doubleSided":false,"extras":{"fromFBX":{"isTruePBR":false,"shadingModel":"Phong"}},"name":"Glass","pbrMetallicRoughness":{"baseColorFactor":[0.149527981877327,0.800000071525574,0.800000071525574,1],"metallicFactor":0.400000005960464,"roughnessFactor":0.272165536880493}}],"meshes":[{"name":"SM_Build_06","primitives":[{"attributes":{"NORMAL":2,"POSITION":1,"TEXCOORD_0":3},"indices":0,"material":0,"mode":4},{"attributes":{"NORMAL":6,"POSITION":5,"TEXCOORD_0":7},"indices":4,"material":1,"mode":4}]}],"nodes":[{"mesh":0,"name":"SM_Build_06","rotation":[0,0,0,1],"scale":[1,1,1],"translation":[-156.547302246094,-0.01841807365417,0.205370664596558]}],"samplers":[{}],"scene":0,"scenes":[{"name":"Root Scene","nodes":[0]}],"textures":[{"name":"base_color_texture","sampler":0,"source":0}]}