{"accessors":[{"bufferView":0,"byteOffset":0,"componentType":5123,"count":5901,"type":"SCALAR"},{"bufferView":1,"byteOffset":0,"componentType":5126,"count":3522,"max":[1.32761228084564,3.10767722129822,0.445722103118896],"min":[-1.32761132717133,0,-1.07142889499664],"type":"VEC3"},{"bufferView":2,"byteOffset":0,"componentType":5126,"count":3522,"type":"VEC3"},{"bufferView":3,"byteOffset":0,"componentType":5126,"count":3522,"type":"VEC2"}],"asset":{"generator":"FBX2glTF v0.13.1","version":"2.0"},"bufferViews":[{"buffer":0,"byteLength":11802,"byteOffset":0,"target":34963},{"buffer":0,"byteLength":42264,"byteOffset":11804,"target":34962},{"buffer":0,"byteLength":42264,"byteOffset":54068,"target":34962},{"buffer":0,"byteLength":28176,"byteOffset":96332,"target":34962}],"buffers":[{"byteLength":124508,"uri":"SM_Cupboard_01.bin"}],"images":[{"name":"Polygon_Camping_Texture_vol2.0","uri":"Polygon_Camping_Texture_vol2.0.jpg"}],"materials":[{"alphaMode":"OPAQUE","doubleSided":false,"extras":{"fromFBX":{"isTruePBR":false,"shadingModel":"Phong"}},"name":"main","pbrMetallicRoughness":{"baseColorFactor":[1,1,1,1],"baseColorTexture":{"index":0,"texCoord":0},"metallicFactor":0.400000005960464,"roughnessFactor":0.272165536880493}}],"meshes":[{"name":"SM_Cupboard_01","primitives":[{"attributes":{"NORMAL":2,"POSITION":1,"TEXCOORD_0":3},"indices":0,"material":0,"mode":4}]}],"nodes":[{"mesh":0,"name":"SM_Cupboard_01","rotation":[0,0,0,1],"scale":[1,1,1],"translation":[-5.48989963531494,0,0.321428596973419]}],"samplers":[{}],"scene":0,"scenes":[{"name":"Root Scene","nodes":[0]}],"textures":[{"name":"base_color_texture","sampler":0,"source":0}]}