{"accessors":[{"bufferView":0,"byteOffset":0,"componentType":5123,"count":3792,"type":"SCALAR"},{"bufferView":1,"byteOffset":0,"componentType":5126,"count":2400,"max":[0.789562821388245,0.732894718647003,0.142955034971237],"min":[-0.8009232878685,-0.00186142185703,-0.03246421739459],"type":"VEC3"},{"bufferView":2,"byteOffset":0,"componentType":5126,"count":2400,"type":"VEC3"},{"bufferView":3,"byteOffset":0,"componentType":5126,"count":2400,"type":"VEC2"}],"asset":{"generator":"FBX2glTF v0.13.1","version":"2.0"},"bufferViews":[{"buffer":0,"byteLength":7584,"byteOffset":0,"target":34963},{"buffer":0,"byteLength":28800,"byteOffset":7584,"target":34962},{"buffer":0,"byteLength":28800,"byteOffset":36384,"target":34962},{"buffer":0,"byteLength":19200,"byteOffset":65184,"target":34962}],"buffers":[{"byteLength":84384,"uri":"SM_Fence_07.bin"}],"images":[{"name":"Polygon_Camping_Texture_vol2.0","uri":"Polygon_Camping_Texture_vol2.0.jpg"}],"materials":[{"alphaMode":"OPAQUE","doubleSided":false,"extras":{"fromFBX":{"isTruePBR":false,"shadingModel":"Phong"}},"name":"main","pbrMetallicRoughness":{"baseColorFactor":[1,1,1,1],"baseColorTexture":{"index":0,"texCoord":0},"metallicFactor":0.400000005960464,"roughnessFactor":0.272165536880493}}],"meshes":[{"name":"SM_Fence_07","primitives":[{"attributes":{"NORMAL":2,"POSITION":1,"TEXCOORD_0":3},"indices":0,"material":0,"mode":4}]}],"nodes":[{"mesh":0,"name":"SM_Fence_07","rotation":[0,0,0,1],"scale":[1,1,1],"translation":[-62.6870880126953,0,0]}],"samplers":[{}],"scene":0,"scenes":[{"name":"Root Scene","nodes":[0]}],"textures":[{"name":"base_color_texture","sampler":0,"source":0}]}