{"accessors":[{"bufferView":0,"byteOffset":0,"componentType":5123,"count":3456,"type":"SCALAR"},{"bufferView":1,"byteOffset":0,"componentType":5126,"count":2272,"max":[2.00267457962036,4.80728816986084,0.258645683526993],"min":[-1.99851632118225,-0.00642657279968,-0.22292964160442],"type":"VEC3"},{"bufferView":2,"byteOffset":0,"componentType":5126,"count":2272,"type":"VEC3"},{"bufferView":3,"byteOffset":0,"componentType":5126,"count":2272,"type":"VEC2"},{"bufferView":4,"byteOffset":0,"componentType":5123,"count":2538,"type":"SCALAR"},{"bufferView":5,"byteOffset":0,"componentType":5126,"count":1668,"max":[0.00535670248791575,2.55963349342346,0.135636180639267],"min":[-0.86316937208176,0,-0.07034508138895],"type":"VEC3"},{"bufferView":6,"byteOffset":0,"componentType":5126,"count":1668,"type":"VEC3"},{"bufferView":7,"byteOffset":0,"componentType":5126,"count":1668,"type":"VEC2"},{"bufferView":8,"byteOffset":0,"componentType":5123,"count":2538,"type":"SCALAR"},{"bufferView":9,"byteOffset":0,"componentType":5126,"count":1654,"max":[0.641925811767578,2.55963349342346,0.673958480358124],"min":[-0.05130004882813,0,-0.04843823239207],"type":"VEC3"},{"bufferView":10,"byteOffset":0,"componentType":5126,"count":1654,"type":"VEC3"},{"bufferView":11,"byteOffset":0,"componentType":5126,"count":1654,"type":"VEC2"}],"asset":{"generator":"FBX2glTF v0.13.1","version":"2.0"},"bufferViews":[{"buffer":0,"byteLength":6912,"byteOffset":0,"target":34963},{"buffer":0,"byteLength":27264,"byteOffset":6912,"target":34962},{"buffer":0,"byteLength":27264,"byteOffset":34176,"target":34962},{"buffer":0,"byteLength":18176,"byteOffset":61440,"target":34962},{"buffer":0,"byteLength":5076,"byteOffset":79616,"target":34963},{"buffer":0,"byteLength":20016,"byteOffset":84692,"target":34962},{"buffer":0,"byteLength":20016,"byteOffset":104708,"target":34962},{"buffer":0,"byteLength":13344,"byteOffset":124724,"target":34962},{"buffer":0,"byteLength":5076,"byteOffset":138068,"target":34963},{"buffer":0,"byteLength":19848,"byteOffset":143144,"target":34962},{"buffer":0,"byteLength":19848,"byteOffset":162992,"target":34962},{"buffer":0,"byteLength":13232,"byteOffset":182840,"target":34962}],"buffers":[{"byteLength":196072,"uri":"SM_Fence_04.bin"}],"images":[{"name":"Polygon_Camping_Texture_vol2.0","uri":"Polygon_Camping_Texture_vol2.0.jpg"}],"materials":[{"alphaMode":"OPAQUE","doubleSided":false,"extras":{"fromFBX":{"isTruePBR":false,"shadingModel":"Phong"}},"name":"main","pbrMetallicRoughness":{"baseColorFactor":[1,1,1,1],"baseColorTexture":{"index":0,"texCoord":0},"metallicFactor":0.400000005960464,"roughnessFactor":0.272165536880493}}],"meshes":[{"name":"SM_Fence_04","primitives":[{"attributes":{"NORMAL":2,"POSITION":1,"TEXCOORD_0":3},"indices":0,"material":0,"mode":4}]},{"name":"SM_Fence_Door_01","primitives":[{"attributes":{"NORMAL":6,"POSITION":5,"TEXCOORD_0":7},"indices":4,"material":0,"mode":4}]},{"name":"SM_Fence_Door_02","primitives":[{"attributes":{"NORMAL":10,"POSITION":9,"TEXCOORD_0":11},"indices":8,"material":0,"mode":4}]}],"nodes":[{"children":[1,2],"mesh":0,"name":"SM_Fence_04","rotation":[0,0,0,1],"scale":[1,1,1],"translation":[-129.577972412109,0.00000000973137037618699,-0.00008695587167]},{"mesh":1,"name":"SM_Fence_Door_01","rotation":[0,0,0,1],"scale":[1,1,1],"translation":[0.831572234630585,0.00516985869035125,0.0375479087233543]},{"mesh":2,"name":"SM_Fence_Door_02","rotation":[0,0,0,1],"scale":[1,1,1],"translation":[-0.83880859613419,0.00516985869035125,0.00900185853242874]}],"samplers":[{}],"scene":0,"scenes":[{"name":"Root Scene","nodes":[0]}],"textures":[{"name":"base_color_texture","sampler":0,"source":0}]}