{"accessors":[{"bufferView":0,"byteOffset":0,"componentType":5123,"count":4032,"type":"SCALAR"},{"bufferView":1,"byteOffset":0,"componentType":5126,"count":3347,"max":[0.615035116672516,1.11902737617493,0.640424847602844],"min":[-0.65122997760773,0,-0.62982678413391],"type":"VEC3"},{"bufferView":2,"byteOffset":0,"componentType":5126,"count":3347,"type":"VEC3"},{"bufferView":3,"byteOffset":0,"componentType":5126,"count":3347,"type":"VEC2"}],"asset":{"generator":"FBX2glTF v0.13.1","version":"2.0"},"bufferViews":[{"buffer":0,"byteLength":8064,"byteOffset":0,"target":34963},{"buffer":0,"byteLength":40164,"byteOffset":8064,"target":34962},{"buffer":0,"byteLength":40164,"byteOffset":48228,"target":34962},{"buffer":0,"byteLength":26776,"byteOffset":88392,"target":34962}],"buffers":[{"byteLength":115168,"uri":"SM_Foliage_01.bin"}],"images":[{"name":"Polygon_Camping_Texture_vol2.0","uri":"Polygon_Camping_Texture_vol2.0.jpg"}],"materials":[{"alphaMode":"OPAQUE","doubleSided":false,"extras":{"fromFBX":{"isTruePBR":false,"shadingModel":"Phong"}},"name":"main","pbrMetallicRoughness":{"baseColorFactor":[1,1,1,1],"baseColorTexture":{"index":0,"texCoord":0},"metallicFactor":0.400000005960464,"roughnessFactor":0.272165536880493}}],"meshes":[{"name":"SM_Foliage_01","primitives":[{"attributes":{"NORMAL":2,"POSITION":1,"TEXCOORD_0":3},"indices":0,"material":0,"mode":4}]}],"nodes":[{"mesh":0,"name":"SM_Foliage_01","rotation":[0,0,0,1],"scale":[1,1,1],"translation":[-230.69645690918,0.00704503059387207,-0.01752977073193]}],"samplers":[{}],"scene":0,"scenes":[{"name":"Root Scene","nodes":[0]}],"textures":[{"name":"base_color_texture","sampler":0,"source":0}]}