{"accessors":[{"bufferView":0,"byteOffset":0,"componentType":5123,"count":1692,"type":"SCALAR"},{"bufferView":1,"byteOffset":0,"componentType":5126,"count":1064,"max":[1.76999425888062,0.766911327838898,0.462153375148773],"min":[-2.37955641746521,-0.36423277854919,-0.46473821997643],"type":"VEC3"},{"bufferView":2,"byteOffset":0,"componentType":5126,"count":1064,"type":"VEC3"},{"bufferView":3,"byteOffset":0,"componentType":5126,"count":1064,"type":"VEC2"}],"asset":{"generator":"FBX2glTF v0.13.1","version":"2.0"},"bufferViews":[{"buffer":0,"byteLength":3384,"byteOffset":0,"target":34963},{"buffer":0,"byteLength":12768,"byteOffset":3384,"target":34962},{"buffer":0,"byteLength":12768,"byteOffset":16152,"target":34962},{"buffer":0,"byteLength":8512,"byteOffset":28920,"target":34962}],"buffers":[{"byteLength":37432,"uri":"SM_Furnace_01.bin"}],"images":[{"name":"Polygon_Camping_Texture_vol2.0","uri":"Polygon_Camping_Texture_vol2.0.jpg"}],"materials":[{"alphaMode":"OPAQUE","doubleSided":false,"extras":{"fromFBX":{"isTruePBR":false,"shadingModel":"Phong"}},"name":"main","pbrMetallicRoughness":{"baseColorFactor":[1,1,1,1],"baseColorTexture":{"index":0,"texCoord":0},"metallicFactor":0.400000005960464,"roughnessFactor":0.272165536880493}}],"meshes":[{"name":"SM_Furnace_01","primitives":[{"attributes":{"NORMAL":2,"POSITION":1,"TEXCOORD_0":3},"indices":0,"material":0,"mode":4}]}],"nodes":[{"mesh":0,"name":"SM_Furnace_01","rotation":[0,0,0,1],"scale":[1,1,1],"translation":[-0.25574743747711,0.422904878854752,0.00129255012143403]}],"samplers":[{}],"scene":0,"scenes":[{"name":"Root Scene","nodes":[0]}],"textures":[{"name":"base_color_texture","sampler":0,"source":0}]}