{"accessors":[{"bufferView":0,"byteOffset":0,"componentType":5123,"count":2460,"type":"SCALAR"},{"bufferView":1,"byteOffset":0,"componentType":5126,"count":1706,"max":[0.440782845020294,0.920248985290527,0.00221354351378977],"min":[-0.43658846616745,-0.00018002433353,-0.70733106136322],"type":"VEC3"},{"bufferView":2,"byteOffset":0,"componentType":5126,"count":1706,"type":"VEC3"},{"bufferView":3,"byteOffset":0,"componentType":5126,"count":1706,"type":"VEC2"}],"asset":{"generator":"FBX2glTF v0.13.1","version":"2.0"},"bufferViews":[{"buffer":0,"byteLength":4920,"byteOffset":0,"target":34963},{"buffer":0,"byteLength":20472,"byteOffset":4920,"target":34962},{"buffer":0,"byteLength":20472,"byteOffset":25392,"target":34962},{"buffer":0,"byteLength":13648,"byteOffset":45864,"target":34962}],"buffers":[{"byteLength":59512,"uri":"SM_Foliage_05.bin"}],"images":[{"name":"Polygon_Camping_Texture_vol2.0","uri":"Polygon_Camping_Texture_vol2.0.jpg"}],"materials":[{"alphaMode":"OPAQUE","doubleSided":false,"extras":{"fromFBX":{"isTruePBR":false,"shadingModel":"Phong"}},"name":"main","pbrMetallicRoughness":{"baseColorFactor":[1,1,1,1],"baseColorTexture":{"index":0,"texCoord":0},"metallicFactor":0.400000005960464,"roughnessFactor":0.272165536880493}}],"meshes":[{"name":"SM_Foliage_05","primitives":[{"attributes":{"NORMAL":2,"POSITION":1,"TEXCOORD_0":3},"indices":0,"material":0,"mode":4}]}],"nodes":[{"mesh":0,"name":"SM_Foliage_05","rotation":[0,0,0,1],"scale":[1,1,1],"translation":[-225.910781860352,0,0]}],"samplers":[{}],"scene":0,"scenes":[{"name":"Root Scene","nodes":[0]}],"textures":[{"name":"base_color_texture","sampler":0,"source":0}]}