{"accessors":[{"bufferView":0,"byteOffset":0,"componentType":5123,"count":5874,"type":"SCALAR"},{"bufferView":1,"byteOffset":0,"componentType":5126,"count":3596,"max":[0.628615856170654,2.17625188827515,0.421858996152878],"min":[-0.65089988708496,-0.00634503364563,-0.43479740619659],"type":"VEC3"},{"bufferView":2,"byteOffset":0,"componentType":5126,"count":3596,"type":"VEC3"},{"bufferView":3,"byteOffset":0,"componentType":5126,"count":3596,"type":"VEC2"}],"asset":{"generator":"FBX2glTF v0.13.1","version":"2.0"},"bufferViews":[{"buffer":0,"byteLength":11748,"byteOffset":0,"target":34963},{"buffer":0,"byteLength":43152,"byteOffset":11748,"target":34962},{"buffer":0,"byteLength":43152,"byteOffset":54900,"target":34962},{"buffer":0,"byteLength":28768,"byteOffset":98052,"target":34962}],"buffers":[{"byteLength":126820,"uri":"SM_Forge_02_D.bin"}],"images":[{"name":"Polygon_Camping_Texture_vol2.0","uri":"Polygon_Camping_Texture_vol2.0.jpg"}],"materials":[{"alphaMode":"OPAQUE","doubleSided":false,"extras":{"fromFBX":{"isTruePBR":false,"shadingModel":"Phong"}},"name":"main","pbrMetallicRoughness":{"baseColorFactor":[1,1,1,1],"baseColorTexture":{"index":0,"texCoord":0},"metallicFactor":0.400000005960464,"roughnessFactor":0.272165536880493}}],"meshes":[{"name":"SM_Forge_02_D","primitives":[{"attributes":{"NORMAL":2,"POSITION":1,"TEXCOORD_0":3},"indices":0,"material":0,"mode":4}]}],"nodes":[{"mesh":0,"name":"SM_Forge_02_D","rotation":[0,0,0,1],"scale":[1,1,1],"translation":[-11.8526191711426,4.29529094696045,-0.07089076936245]}],"samplers":[{}],"scene":0,"scenes":[{"name":"Root Scene","nodes":[0]}],"textures":[{"name":"base_color_texture","sampler":0,"source":0}]}