{"accessors":[{"bufferView":0,"byteOffset":0,"componentType":5123,"count":888,"type":"SCALAR"},{"bufferView":1,"byteOffset":0,"componentType":5126,"count":808,"max":[0.758783996105194,0.211796849966049,1.97018134593964],"min":[-0.74345380067825,-0.00000001117587,-1.97011744976044],"type":"VEC3"},{"bufferView":2,"byteOffset":0,"componentType":5126,"count":808,"type":"VEC3"},{"bufferView":3,"byteOffset":0,"componentType":5126,"count":808,"type":"VEC2"}],"asset":{"generator":"FBX2glTF v0.13.1","version":"2.0"},"bufferViews":[{"buffer":0,"byteLength":1776,"byteOffset":0,"target":34963},{"buffer":0,"byteLength":9696,"byteOffset":1776,"target":34962},{"buffer":0,"byteLength":9696,"byteOffset":11472,"target":34962},{"buffer":0,"byteLength":6464,"byteOffset":21168,"target":34962}],"buffers":[{"byteLength":27632,"uri":"SM_Ground_06_A.bin"}],"images":[{"name":"Polygon_Camping_Texture_vol2.0","uri":"Polygon_Camping_Texture_vol2.0.jpg"}],"materials":[{"alphaMode":"OPAQUE","doubleSided":false,"extras":{"fromFBX":{"isTruePBR":false,"shadingModel":"Phong"}},"name":"main","pbrMetallicRoughness":{"baseColorFactor":[1,1,1,1],"baseColorTexture":{"index":0,"texCoord":0},"metallicFactor":0.400000005960464,"roughnessFactor":0.272165536880493}}],"meshes":[{"name":"SM_Ground_06_A","primitives":[{"attributes":{"NORMAL":2,"POSITION":1,"TEXCOORD_0":3},"indices":0,"material":0,"mode":4}]}],"nodes":[{"mesh":0,"name":"SM_Ground_06_A","rotation":[0,0,0,1],"scale":[1,1,1],"translation":[-322.869812011719,-0.03037688136101,-1.05385279655457]}],"samplers":[{}],"scene":0,"scenes":[{"name":"Root Scene","nodes":[0]}],"textures":[{"name":"base_color_texture","sampler":0,"source":0}]}