{"accessors":[{"bufferView":0,"byteOffset":0,"componentType":5123,"count":759,"type":"SCALAR"},{"bufferView":1,"byteOffset":0,"componentType":5126,"count":717,"max":[1.25344550609589,4.25684261322021,1.1995370388031],"min":[-1.09635543823242,-0.00000023841858,-1.0955628156662],"type":"VEC3"},{"bufferView":2,"byteOffset":0,"componentType":5126,"count":717,"type":"VEC3"},{"bufferView":3,"byteOffset":0,"componentType":5126,"count":717,"type":"VEC2"}],"asset":{"generator":"FBX2glTF v0.13.1","version":"2.0"},"bufferViews":[{"buffer":0,"byteLength":1518,"byteOffset":0,"target":34963},{"buffer":0,"byteLength":8604,"byteOffset":1520,"target":34962},{"buffer":0,"byteLength":8604,"byteOffset":10124,"target":34962},{"buffer":0,"byteLength":5736,"byteOffset":18728,"target":34962}],"buffers":[{"byteLength":24464,"uri":"SM_Ground_04_G.bin"}],"images":[{"name":"Polygon_Camping_Texture_vol2.0","uri":"Polygon_Camping_Texture_vol2.0.jpg"}],"materials":[{"alphaMode":"OPAQUE","doubleSided":false,"extras":{"fromFBX":{"isTruePBR":false,"shadingModel":"Phong"}},"name":"main","pbrMetallicRoughness":{"baseColorFactor":[1,1,1,1],"baseColorTexture":{"index":0,"texCoord":0},"metallicFactor":0.400000005960464,"roughnessFactor":0.272165536880493}}],"meshes":[{"name":"SM_Ground_04_G","primitives":[{"attributes":{"NORMAL":2,"POSITION":1,"TEXCOORD_0":3},"indices":0,"material":0,"mode":4}]}],"nodes":[{"mesh":0,"name":"SM_Ground_04_G","rotation":[0,0,0,1],"scale":[1,1,1],"translation":[-338.71240234375,-2.01072311401367,2.09556293487549]}],"samplers":[{}],"scene":0,"scenes":[{"name":"Root Scene","nodes":[0]}],"textures":[{"name":"base_color_texture","sampler":0,"source":0}]}