{"accessors":[{"bufferView":0,"byteOffset":0,"componentType":5123,"count":264,"type":"SCALAR"},{"bufferView":1,"byteOffset":0,"componentType":5126,"count":221,"max":[1,2.17187833786011,1],"min":[-1,0,-1],"type":"VEC3"},{"bufferView":2,"byteOffset":0,"componentType":5126,"count":221,"type":"VEC3"},{"bufferView":3,"byteOffset":0,"componentType":5126,"count":221,"type":"VEC2"}],"asset":{"generator":"FBX2glTF v0.13.1","version":"2.0"},"bufferViews":[{"buffer":0,"byteLength":528,"byteOffset":0,"target":34963},{"buffer":0,"byteLength":2652,"byteOffset":528,"target":34962},{"buffer":0,"byteLength":2652,"byteOffset":3180,"target":34962},{"buffer":0,"byteLength":1768,"byteOffset":5832,"target":34962}],"buffers":[{"byteLength":7600,"uri":"SM_Ground_01_C.bin"}],"images":[{"name":"Polygon_Camping_Texture_vol2.0","uri":"Polygon_Camping_Texture_vol2.0.jpg"}],"materials":[{"alphaMode":"OPAQUE","doubleSided":false,"extras":{"fromFBX":{"isTruePBR":false,"shadingModel":"Phong"}},"name":"main","pbrMetallicRoughness":{"baseColorFactor":[1,1,1,1],"baseColorTexture":{"index":0,"texCoord":0},"metallicFactor":0.400000005960464,"roughnessFactor":0.272165536880493}}],"meshes":[{"name":"SM_Ground_01_C","primitives":[{"attributes":{"NORMAL":2,"POSITION":1,"TEXCOORD_0":3},"indices":0,"material":0,"mode":4}]}],"nodes":[{"mesh":0,"name":"SM_Ground_01_C","rotation":[0,0,0,1],"scale":[1,1,1],"translation":[-371.974945068359,-1,0]}],"samplers":[{}],"scene":0,"scenes":[{"name":"Root Scene","nodes":[0]}],"textures":[{"name":"base_color_texture","sampler":0,"source":0}]}