{"accessors":[{"bufferView":0,"byteOffset":0,"componentType":5123,"count":216,"type":"SCALAR"},{"bufferView":1,"byteOffset":0,"componentType":5126,"count":210,"max":[1.00132870674133,0.0882139205932617,1.01152908802032],"min":[-0.99867111444473,-0.05960655212402,-0.98847073316574],"type":"VEC3"},{"bufferView":2,"byteOffset":0,"componentType":5126,"count":210,"type":"VEC3"},{"bufferView":3,"byteOffset":0,"componentType":5126,"count":210,"type":"VEC2"}],"asset":{"generator":"FBX2glTF v0.13.1","version":"2.0"},"bufferViews":[{"buffer":0,"byteLength":432,"byteOffset":0,"target":34963},{"buffer":0,"byteLength":2520,"byteOffset":432,"target":34962},{"buffer":0,"byteLength":2520,"byteOffset":2952,"target":34962},{"buffer":0,"byteLength":1680,"byteOffset":5472,"target":34962}],"buffers":[{"byteLength":7152,"uri":"SM_Ground_04_E.bin"}],"images":[{"name":"Polygon_Camping_Texture_vol2.0","uri":"Polygon_Camping_Texture_vol2.0.jpg"}],"materials":[{"alphaMode":"OPAQUE","doubleSided":false,"extras":{"fromFBX":{"isTruePBR":false,"shadingModel":"Phong"}},"name":"main","pbrMetallicRoughness":{"baseColorFactor":[1,1,1,1],"baseColorTexture":{"index":0,"texCoord":0},"metallicFactor":0.400000005960464,"roughnessFactor":0.272165536880493}}],"meshes":[{"name":"SM_Ground_04_E","primitives":[{"attributes":{"NORMAL":2,"POSITION":1,"TEXCOORD_0":3},"indices":0,"material":0,"mode":4}]}],"nodes":[{"mesh":0,"name":"SM_Ground_04_E","rotation":[0,0,0,1],"scale":[1,1,1],"translation":[-344.07373046875,2.01122975349426,-0.0115291941911]}],"samplers":[{}],"scene":0,"scenes":[{"name":"Root Scene","nodes":[0]}],"textures":[{"name":"base_color_texture","sampler":0,"source":0}]}