{"accessors":[{"bufferView":0,"byteOffset":0,"componentType":5123,"count":1260,"type":"SCALAR"},{"bufferView":1,"byteOffset":0,"componentType":5126,"count":830,"max":[0.768279850482941,0.420100092887878,0.4193294942379],"min":[-0.76334470510483,-0.42080870270729,-0.4139456152916],"type":"VEC3"},{"bufferView":2,"byteOffset":0,"componentType":5126,"count":830,"type":"VEC3"},{"bufferView":3,"byteOffset":0,"componentType":5126,"count":830,"type":"VEC2"}],"asset":{"generator":"FBX2glTF v0.13.1","version":"2.0"},"bufferViews":[{"buffer":0,"byteLength":2520,"byteOffset":0,"target":34963},{"buffer":0,"byteLength":9960,"byteOffset":2520,"target":34962},{"buffer":0,"byteLength":9960,"byteOffset":12480,"target":34962},{"buffer":0,"byteLength":6640,"byteOffset":22440,"target":34962}],"buffers":[{"byteLength":29080,"uri":"SM_Haystack_02.bin"}],"images":[{"name":"Polygon_Camping_Texture_vol2.0","uri":"Polygon_Camping_Texture_vol2.0.jpg"}],"materials":[{"alphaMode":"OPAQUE","doubleSided":false,"extras":{"fromFBX":{"isTruePBR":false,"shadingModel":"Phong"}},"name":"main","pbrMetallicRoughness":{"baseColorFactor":[1,1,1,1],"baseColorTexture":{"index":0,"texCoord":0},"metallicFactor":0.400000005960464,"roughnessFactor":0.272165536880493}}],"meshes":[{"name":"SM_Haystack_02","primitives":[{"attributes":{"NORMAL":2,"POSITION":1,"TEXCOORD_0":3},"indices":0,"material":0,"mode":4}]}],"nodes":[{"mesh":0,"name":"SM_Haystack_02","rotation":[0,0,0,1],"scale":[1,1,1],"translation":[-60.9251937866211,0.38161489367485,0.0000000512733322466374]}],"samplers":[{}],"scene":0,"scenes":[{"name":"Root Scene","nodes":[0]}],"textures":[{"name":"base_color_texture","sampler":0,"source":0}]}