{"accessors":[{"bufferView":0,"byteOffset":0,"componentType":5123,"count":1998,"type":"SCALAR"},{"bufferView":1,"byteOffset":0,"componentType":5126,"count":1781,"max":[1.97999322414398,0.375886529684067,2.0074577331543],"min":[-2.02000665664673,-0.37107309699058,-1.9925422668457],"type":"VEC3"},{"bufferView":2,"byteOffset":0,"componentType":5126,"count":1781,"type":"VEC3"},{"bufferView":3,"byteOffset":0,"componentType":5126,"count":1781,"type":"VEC2"}],"asset":{"generator":"FBX2glTF v0.13.1","version":"2.0"},"bufferViews":[{"buffer":0,"byteLength":3996,"byteOffset":0,"target":34963},{"buffer":0,"byteLength":21372,"byteOffset":3996,"target":34962},{"buffer":0,"byteLength":21372,"byteOffset":25368,"target":34962},{"buffer":0,"byteLength":14248,"byteOffset":46740,"target":34962}],"buffers":[{"byteLength":60988,"uri":"SM_Pit_01.bin"}],"images":[{"name":"Polygon_Camping_Texture_vol2.0","uri":"Polygon_Camping_Texture_vol2.0.jpg"}],"materials":[{"alphaMode":"OPAQUE","doubleSided":false,"extras":{"fromFBX":{"isTruePBR":false,"shadingModel":"Phong"}},"name":"main","pbrMetallicRoughness":{"baseColorFactor":[1,1,1,1],"baseColorTexture":{"index":0,"texCoord":0},"metallicFactor":0.400000005960464,"roughnessFactor":0.272165536880493}}],"meshes":[{"name":"SM_Pit_01","primitives":[{"attributes":{"NORMAL":2,"POSITION":1,"TEXCOORD_0":3},"indices":0,"material":0,"mode":4}]}],"nodes":[{"mesh":0,"name":"SM_Pit_01","rotation":[0,0,0,1],"scale":[1,1,1],"translation":[-326.488098144531,-0.29741960763931,-0.00745773594826]}],"samplers":[{}],"scene":0,"scenes":[{"name":"Root Scene","nodes":[0]}],"textures":[{"name":"base_color_texture","sampler":0,"source":0}]}