{"accessors":[{"bufferView":0,"byteOffset":0,"componentType":5123,"count":8922,"type":"SCALAR"},{"bufferView":1,"byteOffset":0,"componentType":5126,"count":5827,"max":[0.716192901134491,2.60054111480713,1.0053905248642],"min":[-0.71668541431427,-0.01329755783081,-0.7038003206253],"type":"VEC3"},{"bufferView":2,"byteOffset":0,"componentType":5126,"count":5827,"type":"VEC3"},{"bufferView":3,"byteOffset":0,"componentType":5126,"count":5827,"type":"VEC2"}],"asset":{"generator":"FBX2glTF v0.13.1","version":"2.0"},"bufferViews":[{"buffer":0,"byteLength":17844,"byteOffset":0,"target":34963},{"buffer":0,"byteLength":69924,"byteOffset":17844,"target":34962},{"buffer":0,"byteLength":69924,"byteOffset":87768,"target":34962},{"buffer":0,"byteLength":46616,"byteOffset":157692,"target":34962}],"buffers":[{"byteLength":204308,"uri":"SM_Restroom_01.bin"}],"images":[{"name":"Polygon_Camping_Texture_vol2.0","uri":"Polygon_Camping_Texture_vol2.0.jpg"}],"materials":[{"alphaMode":"OPAQUE","doubleSided":false,"extras":{"fromFBX":{"isTruePBR":false,"shadingModel":"Phong"}},"name":"main","pbrMetallicRoughness":{"baseColorFactor":[1,1,1,1],"baseColorTexture":{"index":0,"texCoord":0},"metallicFactor":0.400000005960464,"roughnessFactor":0.272165536880493}}],"meshes":[{"name":"SM_Restroom_01","primitives":[{"attributes":{"NORMAL":2,"POSITION":1,"TEXCOORD_0":3},"indices":0,"material":0,"mode":4}]}],"nodes":[{"mesh":0,"name":"SM_Restroom_01","rotation":[0,0,0,1],"scale":[1,1,1],"translation":[-117.780250549316,-0.00953531265259,-0.00013098865747]}],"samplers":[{}],"scene":0,"scenes":[{"name":"Root Scene","nodes":[0]}],"textures":[{"name":"base_color_texture","sampler":0,"source":0}]}