{"accessors":[{"bufferView":0,"byteOffset":0,"componentType":5123,"count":456,"type":"SCALAR"},{"bufferView":1,"byteOffset":0,"componentType":5126,"count":298,"max":[1.74376213550568,1.03949952125549,1.22472620010376],"min":[-2.25902342796326,-0.23846223950386,-1.22472620010376],"type":"VEC3"},{"bufferView":2,"byteOffset":0,"componentType":5126,"count":298,"type":"VEC3"},{"bufferView":3,"byteOffset":0,"componentType":5126,"count":298,"type":"VEC2"}],"asset":{"generator":"FBX2glTF v0.13.1","version":"2.0"},"bufferViews":[{"buffer":0,"byteLength":912,"byteOffset":0,"target":34963},{"buffer":0,"byteLength":3576,"byteOffset":912,"target":34962},{"buffer":0,"byteLength":3576,"byteOffset":4488,"target":34962},{"buffer":0,"byteLength":2384,"byteOffset":8064,"target":34962}],"buffers":[{"byteLength":10448,"uri":"SM_Rock_03.bin"}],"images":[{"name":"Polygon_Camping_Texture_vol2.0","uri":"Polygon_Camping_Texture_vol2.0.jpg"}],"materials":[{"alphaMode":"OPAQUE","doubleSided":false,"extras":{"fromFBX":{"isTruePBR":false,"shadingModel":"Phong"}},"name":"main","pbrMetallicRoughness":{"baseColorFactor":[1,1,1,1],"baseColorTexture":{"index":0,"texCoord":0},"metallicFactor":0.400000005960464,"roughnessFactor":0.272165536880493}}],"meshes":[{"name":"SM_Rock_03","primitives":[{"attributes":{"NORMAL":2,"POSITION":1,"TEXCOORD_0":3},"indices":0,"material":0,"mode":4}]}],"nodes":[{"mesh":0,"name":"SM_Rock_03","rotation":[0,0,0,1],"scale":[1,1,1],"translation":[-297.185485839844,-0.48523044586182,0.607537448406219]}],"samplers":[{}],"scene":0,"scenes":[{"name":"Root Scene","nodes":[0]}],"textures":[{"name":"base_color_texture","sampler":0,"source":0}]}