{"accessors":[{"bufferView":0,"byteOffset":0,"componentType":5123,"count":2628,"type":"SCALAR"},{"bufferView":1,"byteOffset":0,"componentType":5126,"count":1742,"max":[0.178676426410675,0.823326528072357,0.217700585722923],"min":[-0.20739659667015,-0.0000002682209,-0.24656860530376],"type":"VEC3"},{"bufferView":2,"byteOffset":0,"componentType":5126,"count":1742,"type":"VEC3"},{"bufferView":3,"byteOffset":0,"componentType":5126,"count":1742,"type":"VEC2"}],"asset":{"generator":"FBX2glTF v0.13.1","version":"2.0"},"bufferViews":[{"buffer":0,"byteLength":5256,"byteOffset":0,"target":34963},{"buffer":0,"byteLength":20904,"byteOffset":5256,"target":34962},{"buffer":0,"byteLength":20904,"byteOffset":26160,"target":34962},{"buffer":0,"byteLength":13936,"byteOffset":47064,"target":34962}],"buffers":[{"byteLength":61000,"uri":"SM_Reeds.bin"}],"images":[{"name":"Polygon_Camping_Texture","uri":"Polygon_Camping_Texture.psd"}],"materials":[{"alphaMode":"OPAQUE","doubleSided":false,"extras":{"fromFBX":{"isTruePBR":false,"shadingModel":"Phong"}},"name":"main","pbrMetallicRoughness":{"baseColorFactor":[1,1,1,1],"baseColorTexture":{"index":0,"texCoord":0},"metallicFactor":0.400000005960464,"roughnessFactor":0.272165536880493}}],"meshes":[{"name":"Reeds","primitives":[{"attributes":{"NORMAL":2,"POSITION":1,"TEXCOORD_0":3},"indices":0,"material":0,"mode":4}]}],"nodes":[{"mesh":0,"name":"Reeds","rotation":[0,0,0,1],"scale":[1,1,1],"translation":[-120.717918395996,-0.05851206183434,0.0227786730974913]}],"samplers":[{}],"scene":0,"scenes":[{"name":"Root Scene","nodes":[0]}],"textures":[{"name":"base_color_texture","sampler":0,"source":0}]}