{"accessors":[{"bufferView":0,"byteOffset":0,"componentType":5123,"count":18072,"type":"SCALAR"},{"bufferView":1,"byteOffset":0,"componentType":5126,"count":11892,"max":[2.16992831230164,3.35544800758362,2.12682938575745],"min":[-2.16992831230164,-0.01362493820488,-2.12682938575745],"type":"VEC3"},{"bufferView":2,"byteOffset":0,"componentType":5126,"count":11892,"type":"VEC3"},{"bufferView":3,"byteOffset":0,"componentType":5126,"count":11892,"type":"VEC2"}],"asset":{"generator":"FBX2glTF v0.13.1","version":"2.0"},"bufferViews":[{"buffer":0,"byteLength":36144,"byteOffset":0,"target":34963},{"buffer":0,"byteLength":142704,"byteOffset":36144,"target":34962},{"buffer":0,"byteLength":142704,"byteOffset":178848,"target":34962},{"buffer":0,"byteLength":95136,"byteOffset":321552,"target":34962}],"buffers":[{"byteLength":416688,"uri":"SM_Support_01_A.bin"}],"images":[{"name":"Polygon_Camping_Texture_vol2.0","uri":"Polygon_Camping_Texture_vol2.0.jpg"}],"materials":[{"alphaMode":"OPAQUE","doubleSided":false,"extras":{"fromFBX":{"isTruePBR":false,"shadingModel":"Phong"}},"name":"main","pbrMetallicRoughness":{"baseColorFactor":[1,1,1,1],"baseColorTexture":{"index":0,"texCoord":0},"metallicFactor":0.400000005960464,"roughnessFactor":0.272165536880493}}],"meshes":[{"name":"SM_Support_01_A","primitives":[{"attributes":{"NORMAL":2,"POSITION":1,"TEXCOORD_0":3},"indices":0,"material":0,"mode":4}]}],"nodes":[{"mesh":0,"name":"SM_Support_01_A","rotation":[0,0,0,1],"scale":[1,1,1],"translation":[-124.854736328125,0,0]}],"samplers":[{}],"scene":0,"scenes":[{"name":"Root Scene","nodes":[0]}],"textures":[{"name":"base_color_texture","sampler":0,"source":0}]}