{"accessors":[{"bufferView":0,"byteOffset":0,"componentType":5123,"count":288,"type":"SCALAR"},{"bufferView":1,"byteOffset":0,"componentType":5126,"count":192,"max":[1.66165816783905,0.0437407493591309,2.05521488189697],"min":[-1.98278069496155,-0.04374122619629,-1.96312463283539],"type":"VEC3"},{"bufferView":2,"byteOffset":0,"componentType":5126,"count":192,"type":"VEC3"},{"bufferView":3,"byteOffset":0,"componentType":5126,"count":192,"type":"VEC2"}],"asset":{"generator":"FBX2glTF v0.13.1","version":"2.0"},"bufferViews":[{"buffer":0,"byteLength":576,"byteOffset":0,"target":34963},{"buffer":0,"byteLength":2304,"byteOffset":576,"target":34962},{"buffer":0,"byteLength":2304,"byteOffset":2880,"target":34962},{"buffer":0,"byteLength":1536,"byteOffset":5184,"target":34962}],"buffers":[{"byteLength":6720,"uri":"SM_Support_01_D.bin"}],"images":[{"name":"Polygon_Camping_Texture_vol2.0","uri":"Polygon_Camping_Texture_vol2.0.jpg"}],"materials":[{"alphaMode":"OPAQUE","doubleSided":false,"extras":{"fromFBX":{"isTruePBR":false,"shadingModel":"Phong"}},"name":"main","pbrMetallicRoughness":{"baseColorFactor":[1,1,1,1],"baseColorTexture":{"index":0,"texCoord":0},"metallicFactor":0.400000005960464,"roughnessFactor":0.272165536880493}}],"meshes":[{"name":"SM_Support_01_D","primitives":[{"attributes":{"NORMAL":2,"POSITION":1,"TEXCOORD_0":3},"indices":0,"material":0,"mode":4}]}],"nodes":[{"mesh":0,"name":"SM_Support_01_D","rotation":[0,0,0,1],"scale":[1,1,1],"translation":[-124.672760009766,2.55787181854248,14.5608415603638]}],"samplers":[{}],"scene":0,"scenes":[{"name":"Root Scene","nodes":[0]}],"textures":[{"name":"base_color_texture","sampler":0,"source":0}]}