{"accessors":[{"bufferView":0,"byteOffset":0,"componentType":5123,"count":300,"type":"SCALAR"},{"bufferView":1,"byteOffset":0,"componentType":5126,"count":244,"max":[0.598706722259521,2.19608283042908,0.534005105495453],"min":[-0.53226947784424,0,-0.60566502809525],"type":"VEC3"},{"bufferView":2,"byteOffset":0,"componentType":5126,"count":244,"type":"VEC3"},{"bufferView":3,"byteOffset":0,"componentType":5126,"count":244,"type":"VEC2"}],"asset":{"generator":"FBX2glTF v0.13.1","version":"2.0"},"bufferViews":[{"buffer":0,"byteLength":600,"byteOffset":0,"target":34963},{"buffer":0,"byteLength":2928,"byteOffset":600,"target":34962},{"buffer":0,"byteLength":2928,"byteOffset":3528,"target":34962},{"buffer":0,"byteLength":1952,"byteOffset":6456,"target":34962}],"buffers":[{"byteLength":8408,"uri":"SM_Tree_06.bin"}],"images":[{"name":"Polygon_Camping_Texture_vol2.0","uri":"Polygon_Camping_Texture_vol2.0.jpg"}],"materials":[{"alphaMode":"OPAQUE","doubleSided":false,"extras":{"fromFBX":{"isTruePBR":false,"shadingModel":"Phong"}},"name":"main","pbrMetallicRoughness":{"baseColorFactor":[1,1,1,1],"baseColorTexture":{"index":0,"texCoord":0},"metallicFactor":0.400000005960464,"roughnessFactor":0.272165536880493}}],"meshes":[{"name":"SM_Tree_06","primitives":[{"attributes":{"NORMAL":2,"POSITION":1,"TEXCOORD_0":3},"indices":0,"material":0,"mode":4}]}],"nodes":[{"mesh":0,"name":"SM_Tree_06","rotation":[0,0,0,1],"scale":[1,1,1],"translation":[-234.04362487793,0,-0.00052278488874]}],"samplers":[{}],"scene":0,"scenes":[{"name":"Root Scene","nodes":[0]}],"textures":[{"name":"base_color_texture","sampler":0,"source":0}]}