{"accessors":[{"bufferView":0,"byteOffset":0,"componentType":5123,"count":564,"type":"SCALAR"},{"bufferView":1,"byteOffset":0,"componentType":5126,"count":440,"max":[1.76854062080383,6.78822326660156,1.72654521465302],"min":[-1.71539437770844,0,-1.71289300918579],"type":"VEC3"},{"bufferView":2,"byteOffset":0,"componentType":5126,"count":440,"type":"VEC3"},{"bufferView":3,"byteOffset":0,"componentType":5126,"count":440,"type":"VEC2"}],"asset":{"generator":"FBX2glTF v0.13.1","version":"2.0"},"bufferViews":[{"buffer":0,"byteLength":1128,"byteOffset":0,"target":34963},{"buffer":0,"byteLength":5280,"byteOffset":1128,"target":34962},{"buffer":0,"byteLength":5280,"byteOffset":6408,"target":34962},{"buffer":0,"byteLength":3520,"byteOffset":11688,"target":34962}],"buffers":[{"byteLength":15208,"uri":"SM_Tree_03.bin"}],"images":[{"name":"Polygon_Camping_Texture_vol2.0","uri":"Polygon_Camping_Texture_vol2.0.jpg"}],"materials":[{"alphaMode":"OPAQUE","doubleSided":false,"extras":{"fromFBX":{"isTruePBR":false,"shadingModel":"Phong"}},"name":"main","pbrMetallicRoughness":{"baseColorFactor":[1,1,1,1],"baseColorTexture":{"index":0,"texCoord":0},"metallicFactor":0.400000005960464,"roughnessFactor":0.272165536880493}}],"meshes":[{"name":"SM_Tree_03","primitives":[{"attributes":{"NORMAL":2,"POSITION":1,"TEXCOORD_0":3},"indices":0,"material":0,"mode":4}]}],"nodes":[{"mesh":0,"name":"SM_Tree_03","rotation":[0,0,0,1],"scale":[1,1,1],"translation":[-242.47087097168,0,0.0177036002278328]}],"samplers":[{}],"scene":0,"scenes":[{"name":"Root Scene","nodes":[0]}],"textures":[{"name":"base_color_texture","sampler":0,"source":0}]}