{"accessors":[{"bufferView":0,"byteOffset":0,"componentType":5123,"count":11286,"type":"SCALAR"},{"bufferView":1,"byteOffset":0,"componentType":5126,"count":7448,"max":[0.334685087203979,1.06232810020447,0.298731207847595],"min":[-0.25302177667618,0.0033901259303093,-0.26690158247948],"type":"VEC3"},{"bufferView":2,"byteOffset":0,"componentType":5126,"count":7448,"type":"VEC3"},{"bufferView":3,"byteOffset":0,"componentType":5126,"count":7448,"type":"VEC2"}],"asset":{"generator":"FBX2glTF v0.13.1","version":"2.0"},"bufferViews":[{"buffer":0,"byteLength":22572,"byteOffset":0,"target":34963},{"buffer":0,"byteLength":89376,"byteOffset":22572,"target":34962},{"buffer":0,"byteLength":89376,"byteOffset":111948,"target":34962},{"buffer":0,"byteLength":59584,"byteOffset":201324,"target":34962}],"buffers":[{"byteLength":260908,"uri":"SM_Wheat_01_A.bin"}],"images":[{"name":"Polygon_Camping_Texture_vol2.0","uri":"Polygon_Camping_Texture_vol2.0.jpg"}],"materials":[{"alphaMode":"OPAQUE","doubleSided":false,"extras":{"fromFBX":{"isTruePBR":false,"shadingModel":"Phong"}},"name":"main","pbrMetallicRoughness":{"baseColorFactor":[1,1,1,1],"baseColorTexture":{"index":0,"texCoord":0},"metallicFactor":0.400000005960464,"roughnessFactor":0.272165536880493}}],"meshes":[{"name":"SM_Wheat_01_A","primitives":[{"attributes":{"NORMAL":2,"POSITION":1,"TEXCOORD_0":3},"indices":0,"material":0,"mode":4}]}],"nodes":[{"mesh":0,"name":"SM_Wheat_01_A","rotation":[0,0,0,1],"scale":[1,1,1],"translation":[-97.3195190429688,0,0.0191547870635986]}],"samplers":[{}],"scene":0,"scenes":[{"name":"Root Scene","nodes":[0]}],"textures":[{"name":"base_color_texture","sampler":0,"source":0}]}