{"accessors":[{"bufferView":0,"byteOffset":0,"componentType":5123,"count":918,"type":"SCALAR"},{"bufferView":1,"byteOffset":0,"componentType":5126,"count":560,"max":[0.660540997982025,9.42889595031738,0.188241794705391],"min":[-0.5712189078331,0,-0.18824179470539],"type":"VEC3"},{"bufferView":2,"byteOffset":0,"componentType":5126,"count":560,"type":"VEC3"},{"bufferView":3,"byteOffset":0,"componentType":5126,"count":560,"type":"VEC2"},{"bufferView":4,"byteOffset":0,"componentType":5123,"count":1236,"type":"SCALAR"},{"bufferView":5,"byteOffset":0,"componentType":5126,"count":664,"max":[0.386792778968811,3.42698812484741,6.4120397567749],"min":[-0.38268721103668,-2.70477104187012,-5.79347038269043],"type":"VEC3"},{"bufferView":6,"byteOffset":0,"componentType":5126,"count":664,"type":"VEC3"},{"bufferView":7,"byteOffset":0,"componentType":5126,"count":664,"type":"VEC2"},{"bufferView":8,"byteOffset":0,"componentType":5123,"count":3768,"type":"SCALAR"},{"bufferView":9,"byteOffset":0,"componentType":5126,"count":2470,"max":[0.146646723151207,0.0031331442296505,0.0336374193429947],"min":[-0.14664606750011,-11.3233613967896,-1.42634832859039],"type":"VEC3"},{"bufferView":10,"byteOffset":0,"componentType":5126,"count":2470,"type":"VEC3"},{"bufferView":11,"byteOffset":0,"componentType":5126,"count":2470,"type":"VEC2"}],"asset":{"generator":"FBX2glTF v0.13.1","version":"2.0"},"bufferViews":[{"buffer":0,"byteLength":1836,"byteOffset":0,"target":34963},{"buffer":0,"byteLength":6720,"byteOffset":1836,"target":34962},{"buffer":0,"byteLength":6720,"byteOffset":8556,"target":34962},{"buffer":0,"byteLength":4480,"byteOffset":15276,"target":34962},{"buffer":0,"byteLength":2472,"byteOffset":19756,"target":34963},{"buffer":0,"byteLength":7968,"byteOffset":22228,"target":34962},{"buffer":0,"byteLength":7968,"byteOffset":30196,"target":34962},{"buffer":0,"byteLength":5312,"byteOffset":38164,"target":34962},{"buffer":0,"byteLength":7536,"byteOffset":43476,"target":34963},{"buffer":0,"byteLength":29640,"byteOffset":51012,"target":34962},{"buffer":0,"byteLength":29640,"byteOffset":80652,"target":34962},{"buffer":0,"byteLength":19760,"byteOffset":110292,"target":34962}],"buffers":[{"byteLength":130052,"uri":"SM_Well_02_B.bin"}],"images":[{"name":"Polygon_Camping_Texture_vol2.0","uri":"Polygon_Camping_Texture_vol2.0.jpg"}],"materials":[{"alphaMode":"OPAQUE","doubleSided":false,"extras":{"fromFBX":{"isTruePBR":false,"shadingModel":"Phong"}},"name":"main","pbrMetallicRoughness":{"baseColorFactor":[1,1,1,1],"baseColorTexture":{"index":0,"texCoord":0},"metallicFactor":0.400000005960464,"roughnessFactor":0.272165536880493}}],"meshes":[{"name":"SM_Well_02_B","primitives":[{"attributes":{"NORMAL":2,"POSITION":1,"TEXCOORD_0":3},"indices":0,"material":0,"mode":4}]},{"name":"SM_Well_02_C","primitives":[{"attributes":{"NORMAL":6,"POSITION":5,"TEXCOORD_0":7},"indices":4,"material":0,"mode":4}]},{"name":"SM_Well_02_D","primitives":[{"attributes":{"NORMAL":10,"POSITION":9,"TEXCOORD_0":11},"indices":8,"material":0,"mode":4}]}],"nodes":[{"children":[1,2],"mesh":0,"name":"SM_Well_02_B","rotation":[0,0,0,1],"scale":[1,1,1],"translation":[-38.9469261169434,0,0]},{"mesh":1,"name":"SM_Well_02_C","rotation":[0,0,0,1],"scale":[1,1,1],"translation":[0.117158196866512,6.53065061569214,0.0676116049289703]},{"mesh":2,"name":"SM_Well_02_D","rotation":[0,0,0,1],"scale":[1,1,1],"translation":[0.117158196866512,9.42289543151855,6.39672946929932]}],"samplers":[{}],"scene":0,"scenes":[{"name":"Root Scene","nodes":[0]}],"textures":[{"name":"base_color_texture","sampler":0,"source":0}]}