{"accessors":[{"bufferView":0,"byteOffset":0,"componentType":5123,"count":402,"type":"SCALAR"},{"bufferView":1,"byteOffset":0,"componentType":5126,"count":212,"max":[3.27680897712708,4.99676847457886,4.64242267608643],"min":[-2.62539267539978,0,-6.04867029190063],"type":"VEC3"},{"bufferView":2,"byteOffset":0,"componentType":5126,"count":212,"type":"VEC3"},{"bufferView":3,"byteOffset":0,"componentType":5126,"count":212,"type":"VEC2"}],"asset":{"generator":"FBX2glTF v0.13.1","version":"2.0"},"bufferViews":[{"buffer":0,"byteLength":804,"byteOffset":0,"target":34963},{"buffer":0,"byteLength":2544,"byteOffset":804,"target":34962},{"buffer":0,"byteLength":2544,"byteOffset":3348,"target":34962},{"buffer":0,"byteLength":1696,"byteOffset":5892,"target":34962}],"buffers":[{"byteLength":7588,"uri":"SM_Large_Rock_Round_05.bin"}],"materials":[{"alphaMode":"OPAQUE","doubleSided":false,"extras":{"fromFBX":{"isTruePBR":false,"shadingModel":"Phong"}},"name":"Material","pbrMetallicRoughness":{"baseColorFactor":[0.800000011920929,0.800000011920929,0.800000011920929,1],"metallicFactor":0.400000005960464,"roughnessFactor":1}}],"meshes":[{"name":"SM_Large_Rock_Round_05","primitives":[{"attributes":{"NORMAL":2,"POSITION":1,"TEXCOORD_0":3},"indices":0,"material":0,"mode":4}]}],"nodes":[{"mesh":0,"name":"SM_Large_Rock_Round_05","rotation":[0,0,0,1],"scale":[1,1,1],"translation":[455.893737792969,16.0158462524414,-23.4618701934814]}],"samplers":[{}],"scene":0,"scenes":[{"name":"Root Scene","nodes":[0]}]}