{"accessors":[{"bufferView":0,"byteOffset":0,"componentType":5123,"count":2658,"type":"SCALAR"},{"bufferView":1,"byteOffset":0,"componentType":5126,"count":1574,"max":[0.0336625091731548,0.0667935237288475,0.0123713118955493],"min":[-0.15299452841282,-0.03108315356076,-0.01245293207467],"type":"VEC3"},{"bufferView":2,"byteOffset":0,"componentType":5126,"count":1574,"type":"VEC3"},{"bufferView":3,"byteOffset":0,"componentType":5126,"count":1574,"type":"VEC2"},{"bufferView":4,"byteOffset":0,"componentType":5123,"count":876,"type":"SCALAR"},{"bufferView":5,"byteOffset":0,"componentType":5126,"count":516,"max":[0.111435227096081,0.00788952875882387,0.011344013735652],"min":[-0.07459729164839,-0.01387678924948,-0.01055222563446],"type":"VEC3"},{"bufferView":6,"byteOffset":0,"componentType":5126,"count":516,"type":"VEC3"},{"bufferView":7,"byteOffset":0,"componentType":5126,"count":516,"type":"VEC2"},{"bufferView":8,"byteOffset":0,"componentType":5123,"count":228,"type":"SCALAR"},{"bufferView":9,"byteOffset":0,"componentType":5126,"count":144,"max":[0.00432138703763485,0.00777591438964009,0.0123796816915274],"min":[-0.00777591392398,-0.00432138657197,-0.01237968541682],"type":"VEC3"},{"bufferView":10,"byteOffset":0,"componentType":5126,"count":144,"type":"VEC3"},{"bufferView":11,"byteOffset":0,"componentType":5126,"count":144,"type":"VEC2"},{"bufferView":12,"byteOffset":0,"componentType":5123,"count":126,"type":"SCALAR"},{"bufferView":13,"byteOffset":0,"componentType":5126,"count":78,"max":[0.00243938621133566,0,0.00086211768211796],"min":[-0.00587956840172,-0.01699793338776,-0.00086211808957],"type":"VEC3"},{"bufferView":14,"byteOffset":0,"componentType":5126,"count":78,"type":"VEC3"},{"bufferView":15,"byteOffset":0,"componentType":5126,"count":78,"type":"VEC2"}],"asset":{"generator":"FBX2glTF v0.13.1","version":"2.0"},"bufferViews":[{"buffer":0,"byteLength":5316,"byteOffset":0,"target":34963},{"buffer":0,"byteLength":18888,"byteOffset":5316,"target":34962},{"buffer":0,"byteLength":18888,"byteOffset":24204,"target":34962},{"buffer":0,"byteLength":12592,"byteOffset":43092,"target":34962},{"buffer":0,"byteLength":1752,"byteOffset":55684,"target":34963},{"buffer":0,"byteLength":6192,"byteOffset":57436,"target":34962},{"buffer":0,"byteLength":6192,"byteOffset":63628,"target":34962},{"buffer":0,"byteLength":4128,"byteOffset":69820,"target":34962},{"buffer":0,"byteLength":456,"byteOffset":73948,"target":34963},{"buffer":0,"byteLength":1728,"byteOffset":74404,"target":34962},{"buffer":0,"byteLength":1728,"byteOffset":76132,"target":34962},{"buffer":0,"byteLength":1152,"byteOffset":77860,"target":34962},{"buffer":0,"byteLength":252,"byteOffset":79012,"target":34963},{"buffer":0,"byteLength":936,"byteOffset":79264,"target":34962},{"buffer":0,"byteLength":936,"byteOffset":80200,"target":34962},{"buffer":0,"byteLength":624,"byteOffset":81136,"target":34962}],"buffers":[{"byteLength":81760,"uri":"SM_Army_Pistol.bin"}],"images":[{"name":"Polygon_Texture_vol2","uri":"Polygon_Texture_vol2.png"}],"materials":[{"alphaMode":"OPAQUE","doubleSided":false,"extras":{"fromFBX":{"isTruePBR":false,"shadingModel":"Phong"}},"name":"main","pbrMetallicRoughness":{"baseColorFactor":[1,1,1,1],"baseColorTexture":{"index":0,"texCoord":0},"metallicFactor":0.400000005960464,"roughnessFactor":0.229415729641914}}],"meshes":[{"name":"SM_Army_Pistol","primitives":[{"attributes":{"NORMAL":2,"POSITION":1,"TEXCOORD_0":3},"indices":0,"material":0,"mode":4}]},{"name":"SM_Gate_For_Army_Pistol","primitives":[{"attributes":{"NORMAL":6,"POSITION":5,"TEXCOORD_0":7},"indices":4,"material":0,"mode":4}]},{"name":"fuse_07","primitives":[{"attributes":{"NORMAL":10,"POSITION":9,"TEXCOORD_0":11},"indices":8,"material":0,"mode":4}]},{"name":"SM_Trigger_Guard_For_Army_Pistol","primitives":[{"attributes":{"NORMAL":14,"POSITION":13,"TEXCOORD_0":15},"indices":12,"material":0,"mode":4}]}],"nodes":[{"children":[1,3],"mesh":0,"name":"SM_Army_Pistol","rotation":[0,0,0,1],"scale":[1,1,1],"translation":[7.36329793930054,0.699992418289185,0.000000215157427874146]},{"children":[2],"mesh":1,"name":"SM_Gate_For_Army_Pistol","rotation":[0,0,0,1],"scale":[1,1,1],"translation":[-0.07839355617762,0.0684233084321022,-0.00039589393418]},{"mesh":2,"name":"fuse_07","rotation":[0.707106828689575,0,0,0.707106709480286],"scale":[0.00999999977648258,0.00999999977648258,0.00999999977648258],"translation":[0.0784106999635696,-0.0684233084321,0.001026731566526]},{"mesh":3,"name":"SM_Trigger_Guard_For_Army_Pistol","rotation":[0,0,0,1],"scale":[1,1,1],"translation":[-0.04863158985972,0.0388824455440044,-0.00000000015572]}],"samplers":[{}],"scene":0,"scenes":[{"name":"Root Scene","nodes":[0]}],"textures":[{"name":"base_color_texture","sampler":0,"source":0}]}