{"accessors":[{"bufferView":0,"byteOffset":0,"componentType":5123,"count":1572,"type":"SCALAR"},{"bufferView":1,"byteOffset":0,"componentType":5126,"count":1048,"max":[0.711675941944122,0.0911050215363503,0.650372087955475],"min":[-0.41571459174156,-0.05255599319935,0.0490915849804878],"type":"VEC3"},{"bufferView":2,"byteOffset":0,"componentType":5126,"count":1048,"type":"VEC3"},{"bufferView":3,"byteOffset":0,"componentType":5126,"count":1048,"type":"VEC2"}],"asset":{"generator":"FBX2glTF v0.13.1","version":"2.0"},"bufferViews":[{"buffer":0,"byteLength":3144,"byteOffset":0,"target":34963},{"buffer":0,"byteLength":12576,"byteOffset":3144,"target":34962},{"buffer":0,"byteLength":12576,"byteOffset":15720,"target":34962},{"buffer":0,"byteLength":8384,"byteOffset":28296,"target":34962}],"buffers":[{"byteLength":36680,"uri":"SM_FLATCHE.bin"}],"images":[{"name":"Polygon_Texture_vol2","uri":"Polygon_Texture_vol2.png"}],"materials":[{"alphaMode":"OPAQUE","doubleSided":false,"extras":{"fromFBX":{"isTruePBR":false,"shadingModel":"Phong"}},"name":"main","pbrMetallicRoughness":{"baseColorFactor":[1,1,1,1],"baseColorTexture":{"index":0,"texCoord":0},"metallicFactor":0.400000005960464,"roughnessFactor":0.229415729641914}}],"meshes":[{"name":"SM_FLATCHE","primitives":[{"attributes":{"NORMAL":2,"POSITION":1,"TEXCOORD_0":3},"indices":0,"material":0,"mode":4}]}],"nodes":[{"mesh":0,"name":"SM_FLATCHE","rotation":[0,0,0,1],"scale":[1,1,1],"translation":[46.1671409606934,0.0671375542879105,-0.40415182709694]}],"samplers":[{}],"scene":0,"scenes":[{"name":"Root Scene","nodes":[0]}],"textures":[{"name":"base_color_texture","sampler":0,"source":0}]}