{"accessors":[{"bufferView":0,"byteOffset":0,"componentType":5123,"count":18240,"type":"SCALAR"},{"bufferView":1,"byteOffset":0,"componentType":5126,"count":15168,"max":[1.36132228374481,0.491433322429657,0.188629105687141],"min":[-1.28214776515961,-0.05441808700562,-0.65591430664063],"type":"VEC3"},{"bufferView":2,"byteOffset":0,"componentType":5126,"count":15168,"type":"VEC3"},{"bufferView":3,"byteOffset":0,"componentType":5126,"count":15168,"type":"VEC2"}],"asset":{"generator":"FBX2glTF v0.13.1","version":"2.0"},"bufferViews":[{"buffer":0,"byteLength":36480,"byteOffset":0,"target":34963},{"buffer":0,"byteLength":182016,"byteOffset":36480,"target":34962},{"buffer":0,"byteLength":182016,"byteOffset":218496,"target":34962},{"buffer":0,"byteLength":121344,"byteOffset":400512,"target":34962}],"buffers":[{"byteLength":521856,"uri":"SM_Log_laying.bin"}],"images":[{"name":"Polygon_Texture_vol2","uri":"Polygon_Texture_vol2.png"}],"materials":[{"alphaMode":"OPAQUE","doubleSided":false,"extras":{"fromFBX":{"isTruePBR":false,"shadingModel":"Phong"}},"name":"main","pbrMetallicRoughness":{"baseColorFactor":[1,1,1,1],"baseColorTexture":{"index":0,"texCoord":0},"metallicFactor":0.400000005960464,"roughnessFactor":0.229415729641914}}],"meshes":[{"name":"SM_Log_laying","primitives":[{"attributes":{"NORMAL":2,"POSITION":1,"TEXCOORD_0":3},"indices":0,"material":0,"mode":4}]}],"nodes":[{"mesh":0,"name":"SM_Log_laying","rotation":[0,0,0,1],"scale":[1,1,1],"translation":[65.2920608520508,0,0]}],"samplers":[{}],"scene":0,"scenes":[{"name":"Root Scene","nodes":[0]}],"textures":[{"name":"base_color_texture","sampler":0,"source":0}]}