{"accessors":[{"bufferView":0,"byteOffset":0,"componentType":5123,"count":1464,"type":"SCALAR"},{"bufferView":1,"byteOffset":0,"componentType":5126,"count":976,"max":[0.0290532242506742,0.104541778564453,0.0131322890520096],"min":[-0.06544756144285,-0.09916912019253,-0.01313227508217],"type":"VEC3"},{"bufferView":2,"byteOffset":0,"componentType":5126,"count":976,"type":"VEC3"},{"bufferView":3,"byteOffset":0,"componentType":5126,"count":976,"type":"VEC2"}],"asset":{"generator":"FBX2glTF v0.13.1","version":"2.0"},"bufferViews":[{"buffer":0,"byteLength":2928,"byteOffset":0,"target":34963},{"buffer":0,"byteLength":11712,"byteOffset":2928,"target":34962},{"buffer":0,"byteLength":11712,"byteOffset":14640,"target":34962},{"buffer":0,"byteLength":7808,"byteOffset":26352,"target":34962}],"buffers":[{"byteLength":34160,"uri":"SM_Magazine_For_Special_Submachine_Gun_Empty.bin"}],"images":[{"name":"Polygon_Texture_vol2","uri":"Polygon_Texture_vol2.png"}],"materials":[{"alphaMode":"OPAQUE","doubleSided":false,"extras":{"fromFBX":{"isTruePBR":false,"shadingModel":"Phong"}},"name":"main","pbrMetallicRoughness":{"baseColorFactor":[1,1,1,1],"baseColorTexture":{"index":0,"texCoord":0},"metallicFactor":0.400000005960464,"roughnessFactor":0.229415729641914}}],"meshes":[{"name":"SM_Magazine_For_Special_Submachine_Gun_Empty","primitives":[{"attributes":{"NORMAL":2,"POSITION":1,"TEXCOORD_0":3},"indices":0,"material":0,"mode":4}]}],"nodes":[{"mesh":0,"name":"SM_Magazine_For_Special_Submachine_Gun_Empty","rotation":[0,0,0,1],"scale":[1,1,1],"translation":[13.7625865936279,0.325896441936493,0.00707565248012543]}],"samplers":[{}],"scene":0,"scenes":[{"name":"Root Scene","nodes":[0]}],"textures":[{"name":"base_color_texture","sampler":0,"source":0}]}