{"accessors":[{"bufferView":0,"byteOffset":0,"componentType":5123,"count":9582,"type":"SCALAR"},{"bufferView":1,"byteOffset":0,"componentType":5126,"count":7262,"max":[0.753860235214233,0.449191838502884,0.0577739216387272],"min":[-0.55462640523911,-0.00702139921486,-1.22430634498596],"type":"VEC3"},{"bufferView":2,"byteOffset":0,"componentType":5126,"count":7262,"type":"VEC3"},{"bufferView":3,"byteOffset":0,"componentType":5126,"count":7262,"type":"VEC2"}],"asset":{"generator":"FBX2glTF v0.13.1","version":"2.0"},"bufferViews":[{"buffer":0,"byteLength":19164,"byteOffset":0,"target":34963},{"buffer":0,"byteLength":87144,"byteOffset":19164,"target":34962},{"buffer":0,"byteLength":87144,"byteOffset":106308,"target":34962},{"buffer":0,"byteLength":58096,"byteOffset":193452,"target":34962}],"buffers":[{"byteLength":251548,"uri":"SM_Scrap_Metal_02.bin"}],"images":[{"name":"Polygon_Texture_vol2","uri":"Polygon_Texture_vol2.png"}],"materials":[{"alphaMode":"OPAQUE","doubleSided":false,"extras":{"fromFBX":{"isTruePBR":false,"shadingModel":"Phong"}},"name":"main","pbrMetallicRoughness":{"baseColorFactor":[1,1,1,1],"baseColorTexture":{"index":0,"texCoord":0},"metallicFactor":0.400000005960464,"roughnessFactor":0.229415729641914}}],"meshes":[{"name":"SM_Scrap_Metal_02","primitives":[{"attributes":{"NORMAL":2,"POSITION":1,"TEXCOORD_0":3},"indices":0,"material":0,"mode":4}]}],"nodes":[{"mesh":0,"name":"SM_Scrap_Metal_02","rotation":[0,0,0,1],"scale":[1,1,1],"translation":[43.6284561157227,0,0]}],"samplers":[{}],"scene":0,"scenes":[{"name":"Root Scene","nodes":[0]}],"textures":[{"name":"base_color_texture","sampler":0,"source":0}]}