{"accessors":[{"bufferView":0,"byteOffset":0,"componentType":5123,"count":5262,"type":"SCALAR"},{"bufferView":1,"byteOffset":0,"componentType":5126,"count":3440,"max":[0.114690385758877,0.334601938724518,0.0313297286629677],"min":[-0.11309715360403,-0.46029192209244,-0.03132231906056],"type":"VEC3"},{"bufferView":2,"byteOffset":0,"componentType":5126,"count":3440,"type":"VEC3"},{"bufferView":3,"byteOffset":0,"componentType":5126,"count":3440,"type":"VEC2"}],"asset":{"generator":"FBX2glTF v0.13.1","version":"2.0"},"bufferViews":[{"buffer":0,"byteLength":10524,"byteOffset":0,"target":34963},{"buffer":0,"byteLength":41280,"byteOffset":10524,"target":34962},{"buffer":0,"byteLength":41280,"byteOffset":51804,"target":34962},{"buffer":0,"byteLength":27520,"byteOffset":93084,"target":34962}],"buffers":[{"byteLength":120604,"uri":"SM_Sledgehammer.bin"}],"images":[{"name":"Polygon_Texture_vol2","uri":"Polygon_Texture_vol2.png"}],"materials":[{"alphaMode":"OPAQUE","doubleSided":false,"extras":{"fromFBX":{"isTruePBR":false,"shadingModel":"Phong"}},"name":"main","pbrMetallicRoughness":{"baseColorFactor":[1,1,1,1],"baseColorTexture":{"index":0,"texCoord":0},"metallicFactor":0.400000005960464,"roughnessFactor":0.229415729641914}}],"meshes":[{"name":"SM_Sledgehammer","primitives":[{"attributes":{"NORMAL":2,"POSITION":1,"TEXCOORD_0":3},"indices":0,"material":0,"mode":4}]}],"nodes":[{"mesh":0,"name":"SM_Sledgehammer","rotation":[0,0,0,1],"scale":[1,1,1],"translation":[118.408638000488,0.505344152450562,0.0000000819563865661621]}],"samplers":[{}],"scene":0,"scenes":[{"name":"Root Scene","nodes":[0]}],"textures":[{"name":"base_color_texture","sampler":0,"source":0}]}