{"accessors":[{"bufferView":0,"byteOffset":0,"componentType":5123,"count":5064,"type":"SCALAR"},{"bufferView":1,"byteOffset":0,"componentType":5126,"count":3176,"max":[0.0364641547203064,0.00230364501476288,0.0208658445626497],"min":[-0.03560293465853,-0.02849139086902,-0.02193006873131],"type":"VEC3"},{"bufferView":2,"byteOffset":0,"componentType":5126,"count":3176,"type":"VEC3"},{"bufferView":3,"byteOffset":0,"componentType":5126,"count":3176,"type":"VEC2"}],"asset":{"generator":"FBX2glTF v0.13.1","version":"2.0"},"bufferViews":[{"buffer":0,"byteLength":10128,"byteOffset":0,"target":34963},{"buffer":0,"byteLength":38112,"byteOffset":10128,"target":34962},{"buffer":0,"byteLength":38112,"byteOffset":48240,"target":34962},{"buffer":0,"byteLength":25408,"byteOffset":86352,"target":34962}],"buffers":[{"byteLength":111760,"uri":"SM_Tactical_Block.bin"}],"images":[{"name":"Polygon_Texture_vol2","uri":"Polygon_Texture_vol2.png"}],"materials":[{"alphaMode":"OPAQUE","doubleSided":false,"extras":{"fromFBX":{"isTruePBR":false,"shadingModel":"Phong"}},"name":"main","pbrMetallicRoughness":{"baseColorFactor":[1,1,1,1],"baseColorTexture":{"index":0,"texCoord":0},"metallicFactor":0.400000005960464,"roughnessFactor":0.229415729641914}}],"meshes":[{"name":"SM_Tactical_Block","primitives":[{"attributes":{"NORMAL":2,"POSITION":1,"TEXCOORD_0":3},"indices":0,"material":0,"mode":4}]}],"nodes":[{"mesh":0,"name":"SM_Tactical_Block","rotation":[0,0,0,1],"scale":[1,1,1],"translation":[11.9610223770142,0.19804435968399,0.0000308747585222591]}],"samplers":[{}],"scene":0,"scenes":[{"name":"Root Scene","nodes":[0]}],"textures":[{"name":"base_color_texture","sampler":0,"source":0}]}