{"accessors":[{"bufferView":0,"byteOffset":0,"componentType":5123,"count":2310,"type":"SCALAR"},{"bufferView":1,"byteOffset":0,"componentType":5126,"count":1456,"max":[0.0425585582852364,0.13813105225563,0.0425585508346558],"min":[-0.04255853965878,-0.00035028532147,-0.04255855083466],"type":"VEC3"},{"bufferView":2,"byteOffset":0,"componentType":5126,"count":1456,"type":"VEC3"},{"bufferView":3,"byteOffset":0,"componentType":5126,"count":1456,"type":"VEC2"}],"asset":{"generator":"FBX2glTF v0.13.1","version":"2.0"},"bufferViews":[{"buffer":0,"byteLength":4620,"byteOffset":0,"target":34963},{"buffer":0,"byteLength":17472,"byteOffset":4620,"target":34962},{"buffer":0,"byteLength":17472,"byteOffset":22092,"target":34962},{"buffer":0,"byteLength":11648,"byteOffset":39564,"target":34962}],"buffers":[{"byteLength":51212,"uri":"Canned_food_B_01.bin"}],"images":[{"name":"Polygon_Texture_vol3","uri":"Polygon_Texture_vol3.png"}],"materials":[{"alphaMode":"OPAQUE","doubleSided":false,"extras":{"fromFBX":{"isTruePBR":false,"shadingModel":"Phong"}},"name":"main","pbrMetallicRoughness":{"baseColorFactor":[1,1,1,1],"baseColorTexture":{"index":0,"texCoord":0},"metallicFactor":0.400000005960464,"roughnessFactor":0.229415729641914}}],"meshes":[{"name":"Canned_food_B_01","primitives":[{"attributes":{"NORMAL":2,"POSITION":1,"TEXCOORD_0":3},"indices":0,"material":0,"mode":4}]}],"nodes":[{"mesh":0,"name":"Canned_food_B_01","rotation":[0,0,0,1],"scale":[1,1,1],"translation":[50.540096282959,0,0.000000000827842294714998]}],"samplers":[{}],"scene":0,"scenes":[{"name":"Root Scene","nodes":[0]}],"textures":[{"name":"base_color_texture","sampler":0,"source":0}]}