{"accessors":[{"bufferView":0,"byteOffset":0,"componentType":5123,"count":948,"type":"SCALAR"},{"bufferView":1,"byteOffset":0,"componentType":5126,"count":590,"max":[0.22587950527668,0.042042788118124,0.154338806867599],"min":[-0.23393647372723,0.00160990620497614,-0.13719886541367],"type":"VEC3"},{"bufferView":2,"byteOffset":0,"componentType":5126,"count":590,"type":"VEC3"},{"bufferView":3,"byteOffset":0,"componentType":5126,"count":590,"type":"VEC2"}],"asset":{"generator":"FBX2glTF v0.13.1","version":"2.0"},"bufferViews":[{"buffer":0,"byteLength":1896,"byteOffset":0,"target":34963},{"buffer":0,"byteLength":7080,"byteOffset":1896,"target":34962},{"buffer":0,"byteLength":7080,"byteOffset":8976,"target":34962},{"buffer":0,"byteLength":4720,"byteOffset":16056,"target":34962}],"buffers":[{"byteLength":20776,"uri":"Meat_03.bin"}],"images":[{"name":"Polygon_Texture_vol3","uri":"Polygon_Texture_vol3.png"}],"materials":[{"alphaMode":"OPAQUE","doubleSided":false,"extras":{"fromFBX":{"isTruePBR":false,"shadingModel":"Phong"}},"name":"main","pbrMetallicRoughness":{"baseColorFactor":[1,1,1,1],"baseColorTexture":{"index":0,"texCoord":0},"metallicFactor":0.400000005960464,"roughnessFactor":0.229415729641914}}],"meshes":[{"name":"Meat_03","primitives":[{"attributes":{"NORMAL":2,"POSITION":1,"TEXCOORD_0":3},"indices":0,"material":0,"mode":4}]}],"nodes":[{"mesh":0,"name":"Meat_03","rotation":[0,0,0,1],"scale":[1,1,1],"translation":[44.6574287414551,0,-0.8277280330658]}],"samplers":[{}],"scene":0,"scenes":[{"name":"Root Scene","nodes":[0]}],"textures":[{"name":"base_color_texture","sampler":0,"source":0}]}