{"accessors":[{"bufferView":0,"byteOffset":0,"componentType":5123,"count":1698,"type":"SCALAR"},{"bufferView":1,"byteOffset":0,"componentType":5126,"count":1244,"max":[0.0499267317354679,0.0460123233497143,0.0274828094989061],"min":[-0.04839069396257,-0.16056023538113,-0.03053365461528],"type":"VEC3"},{"bufferView":2,"byteOffset":0,"componentType":5126,"count":1244,"type":"VEC3"},{"bufferView":3,"byteOffset":0,"componentType":5126,"count":1244,"type":"VEC2"}],"asset":{"generator":"FBX2glTF v0.13.1","version":"2.0"},"bufferViews":[{"buffer":0,"byteLength":3396,"byteOffset":0,"target":34963},{"buffer":0,"byteLength":14928,"byteOffset":3396,"target":34962},{"buffer":0,"byteLength":14928,"byteOffset":18324,"target":34962},{"buffer":0,"byteLength":9952,"byteOffset":33252,"target":34962}],"buffers":[{"byteLength":43204,"uri":"Medical_Kit.bin"}],"images":[{"name":"Polygon_Texture_vol3","uri":"Polygon_Texture_vol3.png"}],"materials":[{"alphaMode":"OPAQUE","doubleSided":false,"extras":{"fromFBX":{"isTruePBR":false,"shadingModel":"Phong"}},"name":"main","pbrMetallicRoughness":{"baseColorFactor":[1,1,1,1],"baseColorTexture":{"index":0,"texCoord":0},"metallicFactor":0.400000005960464,"roughnessFactor":0.229415729641914}}],"meshes":[{"name":"Medical_Kit","primitives":[{"attributes":{"NORMAL":2,"POSITION":1,"TEXCOORD_0":3},"indices":0,"material":0,"mode":4}]}],"nodes":[{"mesh":0,"name":"Medical_Kit","rotation":[0,0,0,1],"scale":[1,1,1],"translation":[30.8489780426025,0.172286167740822,0.00302271172404289]}],"samplers":[{}],"scene":0,"scenes":[{"name":"Root Scene","nodes":[0]}],"textures":[{"name":"base_color_texture","sampler":0,"source":0}]}