{"accessors":[{"bufferView":0,"byteOffset":0,"componentType":5123,"count":2106,"type":"SCALAR"},{"bufferView":1,"byteOffset":0,"componentType":5126,"count":2062,"max":[0.324740022420883,0.0269169006496668,0.158077731728554],"min":[-0.15846519172192,-0.00315937842242,-0.15744103491306],"type":"VEC3"},{"bufferView":2,"byteOffset":0,"componentType":5126,"count":2062,"type":"VEC3"},{"bufferView":3,"byteOffset":0,"componentType":5126,"count":2062,"type":"VEC2"}],"asset":{"generator":"FBX2glTF v0.13.1","version":"2.0"},"bufferViews":[{"buffer":0,"byteLength":4212,"byteOffset":0,"target":34963},{"buffer":0,"byteLength":24744,"byteOffset":4212,"target":34962},{"buffer":0,"byteLength":24744,"byteOffset":28956,"target":34962},{"buffer":0,"byteLength":16496,"byteOffset":53700,"target":34962}],"buffers":[{"byteLength":70196,"uri":"Pan.bin"}],"images":[{"name":"Polygon_Texture_vol3","uri":"Polygon_Texture_vol3.png"}],"materials":[{"alphaMode":"OPAQUE","doubleSided":false,"extras":{"fromFBX":{"isTruePBR":false,"shadingModel":"Phong"}},"name":"main","pbrMetallicRoughness":{"baseColorFactor":[1,1,1,1],"baseColorTexture":{"index":0,"texCoord":0},"metallicFactor":0.400000005960464,"roughnessFactor":0.229415729641914}}],"meshes":[{"name":"Pan","primitives":[{"attributes":{"NORMAL":2,"POSITION":1,"TEXCOORD_0":3},"indices":0,"material":0,"mode":4}]}],"nodes":[{"mesh":0,"name":"Pan","rotation":[0,0,0,1],"scale":[1,1,1],"translation":[38.2273826599121,0.00576665997505188,-0.00000000022263]}],"samplers":[{}],"scene":0,"scenes":[{"name":"Root Scene","nodes":[0]}],"textures":[{"name":"base_color_texture","sampler":0,"source":0}]}