{"accessors":[{"bufferView":0,"byteOffset":0,"componentType":5123,"count":2142,"type":"SCALAR"},{"bufferView":1,"byteOffset":0,"componentType":5126,"count":1407,"max":[0.0402557067573071,0.0186585690826178,0.0266005005687475],"min":[-0.2384108453989,-0.09692816436291,-0.02660050056875],"type":"VEC3"},{"bufferView":2,"byteOffset":0,"componentType":5126,"count":1407,"type":"VEC3"},{"bufferView":3,"byteOffset":0,"componentType":5126,"count":1407,"type":"VEC2"}],"asset":{"generator":"FBX2glTF v0.13.1","version":"2.0"},"bufferViews":[{"buffer":0,"byteLength":4284,"byteOffset":0,"target":34963},{"buffer":0,"byteLength":16884,"byteOffset":4284,"target":34962},{"buffer":0,"byteLength":16884,"byteOffset":21168,"target":34962},{"buffer":0,"byteLength":11256,"byteOffset":38052,"target":34962}],"buffers":[{"byteLength":49308,"uri":"SM_Butt_Of_The_Rifle_For_Special_Submachine_Gun_Clean.bin"}],"images":[{"name":"Polygon_Texture_vol2","uri":"Polygon_Texture_vol2.png"}],"materials":[{"alphaMode":"OPAQUE","doubleSided":false,"extras":{"fromFBX":{"isTruePBR":false,"shadingModel":"Phong"}},"name":"main","pbrMetallicRoughness":{"baseColorFactor":[1,1,1,1],"baseColorTexture":{"index":0,"texCoord":0},"metallicFactor":0.400000005960464,"roughnessFactor":0.229415729641914}}],"meshes":[{"name":"SM_Butt_Of_The_Rifle_For_Special_Submachine_Gun_Clean","primitives":[{"attributes":{"NORMAL":2,"POSITION":1,"TEXCOORD_0":3},"indices":0,"material":0,"mode":4}]}],"nodes":[{"mesh":0,"name":"SM_Butt_Of_The_Rifle_For_Special_Submachine_Gun_Clean","rotation":[0,0,0,1],"scale":[1,1,1],"translation":[12.9040718078613,0.549446284770966,-0.00000012977631]}],"samplers":[{}],"scene":0,"scenes":[{"name":"Root Scene","nodes":[0]}],"textures":[{"name":"base_color_texture","sampler":0,"source":0}]}