{"accessors":[{"bufferView":0,"byteOffset":0,"componentType":5123,"count":4644,"type":"SCALAR"},{"bufferView":1,"byteOffset":0,"componentType":5126,"count":3464,"max":[0.273294776678085,0.894734680652618,0.0974301621317863],"min":[-0.27245253324509,-0.00714316964149,-0.09717588871717],"type":"VEC3"},{"bufferView":2,"byteOffset":0,"componentType":5126,"count":3464,"type":"VEC3"},{"bufferView":3,"byteOffset":0,"componentType":5126,"count":3464,"type":"VEC2"}],"asset":{"generator":"FBX2glTF v0.13.1","version":"2.0"},"bufferViews":[{"buffer":0,"byteLength":9288,"byteOffset":0,"target":34963},{"buffer":0,"byteLength":41568,"byteOffset":9288,"target":34962},{"buffer":0,"byteLength":41568,"byteOffset":50856,"target":34962},{"buffer":0,"byteLength":27712,"byteOffset":92424,"target":34962}],"buffers":[{"byteLength":120136,"uri":"SM_CEMENT_01.bin"}],"images":[{"name":"Polygon_Texture_vol2","uri":"Polygon_Texture_vol2.png"}],"materials":[{"alphaMode":"OPAQUE","doubleSided":false,"extras":{"fromFBX":{"isTruePBR":false,"shadingModel":"Phong"}},"name":"main","pbrMetallicRoughness":{"baseColorFactor":[1,1,1,1],"baseColorTexture":{"index":0,"texCoord":0},"metallicFactor":0.400000005960464,"roughnessFactor":0.229415729641914}}],"meshes":[{"name":"SM_CEMENT_01","primitives":[{"attributes":{"NORMAL":2,"POSITION":1,"TEXCOORD_0":3},"indices":0,"material":0,"mode":4}]}],"nodes":[{"mesh":0,"name":"SM_CEMENT_01","rotation":[0,0,0,1],"scale":[1,1,1],"translation":[99.5961608886719,-0.01313515752554,-0.08684827387333]}],"samplers":[{}],"scene":0,"scenes":[{"name":"Root Scene","nodes":[0]}],"textures":[{"name":"base_color_texture","sampler":0,"source":0}]}