{"accessors":[{"bufferView":0,"byteOffset":0,"componentType":5123,"count":2214,"type":"SCALAR"},{"bufferView":1,"byteOffset":0,"componentType":5126,"count":1358,"max":[0.0218844451010227,0.0310980267822742,0.0142561746761203],"min":[-0.02674457989633,-0.00122443563305,-0.01425617467612],"type":"VEC3"},{"bufferView":2,"byteOffset":0,"componentType":5126,"count":1358,"type":"VEC3"},{"bufferView":3,"byteOffset":0,"componentType":5126,"count":1358,"type":"VEC2"}],"asset":{"generator":"FBX2glTF v0.13.1","version":"2.0"},"bufferViews":[{"buffer":0,"byteLength":4428,"byteOffset":0,"target":34963},{"buffer":0,"byteLength":16296,"byteOffset":4428,"target":34962},{"buffer":0,"byteLength":16296,"byteOffset":20724,"target":34962},{"buffer":0,"byteLength":10864,"byteOffset":37020,"target":34962}],"buffers":[{"byteLength":47884,"uri":"SM_Collimator_Sight_B_01.bin"}],"images":[{"name":"Polygon_Texture_vol2","uri":"Polygon_Texture_vol2.png"}],"materials":[{"alphaMode":"OPAQUE","doubleSided":false,"extras":{"fromFBX":{"isTruePBR":false,"shadingModel":"Phong"}},"name":"main","pbrMetallicRoughness":{"baseColorFactor":[1,1,1,1],"baseColorTexture":{"index":0,"texCoord":0},"metallicFactor":0.400000005960464,"roughnessFactor":0.229415729641914}}],"meshes":[{"name":"SM_Collimator_Sight_B_01","primitives":[{"attributes":{"NORMAL":2,"POSITION":1,"TEXCOORD_0":3},"indices":0,"material":0,"mode":4}]}],"nodes":[{"mesh":0,"name":"SM_Collimator_Sight_B_01","rotation":[0,0,0,1],"scale":[1,1,1],"translation":[15.2888154983521,0.135191857814789,0.114597842097282]}],"samplers":[{}],"scene":0,"scenes":[{"name":"Root Scene","nodes":[0]}],"textures":[{"name":"base_color_texture","sampler":0,"source":0}]}