{"accessors":[{"bufferView":0,"byteOffset":0,"componentType":5123,"count":6180,"type":"SCALAR"},{"bufferView":1,"byteOffset":0,"componentType":5126,"count":2276,"max":[0.129463762044907,0.0331350602209568,0.0220115724951029],"min":[-0.03814733028412,0,-0.01258406229317],"type":"VEC3"},{"bufferView":2,"byteOffset":0,"componentType":5126,"count":2276,"type":"VEC3"},{"bufferView":3,"byteOffset":0,"componentType":5126,"count":2276,"type":"VEC2"}],"asset":{"generator":"FBX2glTF v0.13.1","version":"2.0"},"bufferViews":[{"buffer":0,"byteLength":12360,"byteOffset":0,"target":34963},{"buffer":0,"byteLength":27312,"byteOffset":12360,"target":34962},{"buffer":0,"byteLength":27312,"byteOffset":39672,"target":34962},{"buffer":0,"byteLength":18208,"byteOffset":66984,"target":34962}],"buffers":[{"byteLength":85192,"uri":"SM_Chuck_Pistol_Box_9_EMPTY.bin"}],"images":[{"name":"Polygon_Texture_vol3","uri":"Polygon_Texture_vol3.png"}],"materials":[{"alphaMode":"OPAQUE","doubleSided":false,"extras":{"fromFBX":{"isTruePBR":false,"shadingModel":"Phong"}},"name":"main","pbrMetallicRoughness":{"baseColorFactor":[1,1,1,1],"baseColorTexture":{"index":0,"texCoord":0},"metallicFactor":0.400000005960464,"roughnessFactor":0.229415729641914}}],"meshes":[{"name":"SM_Chuck_Pistol_Box_9_EMPTY","primitives":[{"attributes":{"NORMAL":2,"POSITION":1,"TEXCOORD_0":3},"indices":0,"material":0,"mode":4}]}],"nodes":[{"mesh":0,"name":"SM_Chuck_Pistol_Box_9_EMPTY","rotation":[0,0,0,1],"scale":[1,1,1],"translation":[6.54111003875732,0.0008011981844902,-0.0623581148684]}],"samplers":[{}],"scene":0,"scenes":[{"name":"Root Scene","nodes":[0]}],"textures":[{"name":"base_color_texture","sampler":0,"source":0}]}