{"accessors":[{"bufferView":0,"byteOffset":0,"componentType":5123,"count":2154,"type":"SCALAR"},{"bufferView":1,"byteOffset":0,"componentType":5126,"count":1408,"max":[0.0246267449110746,0.389697760343552,0.0163873098790646],"min":[-0.11091693490744,0.0749438107013702,-0.01588001288474],"type":"VEC3"},{"bufferView":2,"byteOffset":0,"componentType":5126,"count":1408,"type":"VEC3"},{"bufferView":3,"byteOffset":0,"componentType":5126,"count":1408,"type":"VEC2"}],"asset":{"generator":"FBX2glTF v0.13.1","version":"2.0"},"bufferViews":[{"buffer":0,"byteLength":4308,"byteOffset":0,"target":34963},{"buffer":0,"byteLength":16896,"byteOffset":4308,"target":34962},{"buffer":0,"byteLength":16896,"byteOffset":21204,"target":34962},{"buffer":0,"byteLength":11264,"byteOffset":38100,"target":34962}],"buffers":[{"byteLength":49364,"uri":"SM_Camping_Axe.bin"}],"images":[{"name":"Polygon_Texture_vol2","uri":"Polygon_Texture_vol2.png"}],"materials":[{"alphaMode":"OPAQUE","doubleSided":false,"extras":{"fromFBX":{"isTruePBR":false,"shadingModel":"Phong"}},"name":"main","pbrMetallicRoughness":{"baseColorFactor":[1,1,1,1],"baseColorTexture":{"index":0,"texCoord":0},"metallicFactor":0.400000005960464,"roughnessFactor":0.229415729641914}}],"meshes":[{"name":"SM_Camping_Axe","primitives":[{"attributes":{"NORMAL":2,"POSITION":1,"TEXCOORD_0":3},"indices":0,"material":0,"mode":4}]}],"nodes":[{"mesh":0,"name":"SM_Camping_Axe","rotation":[0,0,0,1],"scale":[1,1,1],"translation":[119.529457092285,0,0]}],"samplers":[{}],"scene":0,"scenes":[{"name":"Root Scene","nodes":[0]}],"textures":[{"name":"base_color_texture","sampler":0,"source":0}]}