{"accessors":[{"bufferView":0,"byteOffset":0,"componentType":5123,"count":5244,"type":"SCALAR"},{"bufferView":1,"byteOffset":0,"componentType":5126,"count":3420,"max":[0.0564306676387787,0.0206338763237,0.0566043183207512],"min":[-0.02557126246393,-0.00398755073547,-0.0132075054571],"type":"VEC3"},{"bufferView":2,"byteOffset":0,"componentType":5126,"count":3420,"type":"VEC3"},{"bufferView":3,"byteOffset":0,"componentType":5126,"count":3420,"type":"VEC2"}],"asset":{"generator":"FBX2glTF v0.13.1","version":"2.0"},"bufferViews":[{"buffer":0,"byteLength":10488,"byteOffset":0,"target":34963},{"buffer":0,"byteLength":41040,"byteOffset":10488,"target":34962},{"buffer":0,"byteLength":41040,"byteOffset":51528,"target":34962},{"buffer":0,"byteLength":27360,"byteOffset":92568,"target":34962}],"buffers":[{"byteLength":119928,"uri":"SM_Cartridges_9.19.bin"}],"images":[{"name":"Polygon_Texture_vol3","uri":"Polygon_Texture_vol3.png"}],"materials":[{"alphaMode":"OPAQUE","doubleSided":false,"extras":{"fromFBX":{"isTruePBR":false,"shadingModel":"Phong"}},"name":"main","pbrMetallicRoughness":{"baseColorFactor":[1,1,1,1],"baseColorTexture":{"index":0,"texCoord":0},"metallicFactor":0.400000005960464,"roughnessFactor":0.229415729641914}}],"meshes":[{"name":"SM_Cartridges_9.19","primitives":[{"attributes":{"NORMAL":2,"POSITION":1,"TEXCOORD_0":3},"indices":0,"material":0,"mode":4}]}],"nodes":[{"mesh":0,"name":"SM_Cartridges_9.19","rotation":[0,0,0,1],"scale":[1,1,1],"translation":[1.00433814525604,0.00665220944210887,0.0000654433752060868]}],"samplers":[{}],"scene":0,"scenes":[{"name":"Root Scene","nodes":[0]}],"textures":[{"name":"base_color_texture","sampler":0,"source":0}]}