{"accessors":[{"bufferView":0,"byteOffset":0,"componentType":5123,"count":5808,"type":"SCALAR"},{"bufferView":1,"byteOffset":0,"componentType":5126,"count":3850,"max":[0.183390989899635,0.464238882064819,0.0865165963768959],"min":[-0.15121312439442,-0.00076112151146,-0.0865165963769],"type":"VEC3"},{"bufferView":2,"byteOffset":0,"componentType":5126,"count":3850,"type":"VEC3"},{"bufferView":3,"byteOffset":0,"componentType":5126,"count":3850,"type":"VEC2"}],"asset":{"generator":"FBX2glTF v0.13.1","version":"2.0"},"bufferViews":[{"buffer":0,"byteLength":11616,"byteOffset":0,"target":34963},{"buffer":0,"byteLength":46200,"byteOffset":11616,"target":34962},{"buffer":0,"byteLength":46200,"byteOffset":57816,"target":34962},{"buffer":0,"byteLength":30800,"byteOffset":104016,"target":34962}],"buffers":[{"byteLength":134816,"uri":"SM_Canister_01.bin"}],"images":[{"name":"Polygon_Texture_vol2","uri":"Polygon_Texture_vol2.png"}],"materials":[{"alphaMode":"OPAQUE","doubleSided":false,"extras":{"fromFBX":{"isTruePBR":false,"shadingModel":"Phong"}},"name":"main","pbrMetallicRoughness":{"baseColorFactor":[1,1,1,1],"baseColorTexture":{"index":0,"texCoord":0},"metallicFactor":0.400000005960464,"roughnessFactor":0.229415729641914}}],"meshes":[{"name":"SM_Canister_01","primitives":[{"attributes":{"NORMAL":2,"POSITION":1,"TEXCOORD_0":3},"indices":0,"material":0,"mode":4}]}],"nodes":[{"mesh":0,"name":"SM_Canister_01","rotation":[0,0,0,1],"scale":[1,1,1],"translation":[108.908935546875,0,0]}],"samplers":[{}],"scene":0,"scenes":[{"name":"Root Scene","nodes":[0]}],"textures":[{"name":"base_color_texture","sampler":0,"source":0}]}