{"accessors":[{"bufferView":0,"byteOffset":0,"componentType":5123,"count":8988,"type":"SCALAR"},{"bufferView":1,"byteOffset":0,"componentType":5126,"count":4112,"max":[0.0911006927490234,0.0331350602209568,0.0220115724951029],"min":[-0.03814733028412,0,-0.01258406229317],"type":"VEC3"},{"bufferView":2,"byteOffset":0,"componentType":5126,"count":4112,"type":"VEC3"},{"bufferView":3,"byteOffset":0,"componentType":5126,"count":4112,"type":"VEC2"}],"asset":{"generator":"FBX2glTF v0.13.1","version":"2.0"},"bufferViews":[{"buffer":0,"byteLength":17976,"byteOffset":0,"target":34963},{"buffer":0,"byteLength":49344,"byteOffset":17976,"target":34962},{"buffer":0,"byteLength":49344,"byteOffset":67320,"target":34962},{"buffer":0,"byteLength":32896,"byteOffset":116664,"target":34962}],"buffers":[{"byteLength":149560,"uri":"SM_Chuck_Pistol_Box_9.19.bin"}],"images":[{"name":"Polygon_Texture_vol3","uri":"Polygon_Texture_vol3.png"}],"materials":[{"alphaMode":"OPAQUE","doubleSided":false,"extras":{"fromFBX":{"isTruePBR":false,"shadingModel":"Phong"}},"name":"main","pbrMetallicRoughness":{"baseColorFactor":[1,1,1,1],"baseColorTexture":{"index":0,"texCoord":0},"metallicFactor":0.400000005960464,"roughnessFactor":0.229415729641914}}],"meshes":[{"name":"SM_Chuck_Pistol_Box_9.19","primitives":[{"attributes":{"NORMAL":2,"POSITION":1,"TEXCOORD_0":3},"indices":0,"material":0,"mode":4}]}],"nodes":[{"mesh":0,"name":"SM_Chuck_Pistol_Box_9.19","rotation":[0,0,0,1],"scale":[1,1,1],"translation":[1.02476799488068,0.0008011981844902,-0.0623581148684]}],"samplers":[{}],"scene":0,"scenes":[{"name":"Root Scene","nodes":[0]}],"textures":[{"name":"base_color_texture","sampler":0,"source":0}]}