{"accessors":[{"bufferView":0,"byteOffset":0,"componentType":5123,"count":3432,"type":"SCALAR"},{"bufferView":1,"byteOffset":0,"componentType":5126,"count":2102,"max":[0.048438660800457,1.7085223197937,0.119608148932457],"min":[-0.04843796044588,-0.31371214985848,-0.04687863215804],"type":"VEC3"},{"bufferView":2,"byteOffset":0,"componentType":5126,"count":2102,"type":"VEC3"},{"bufferView":3,"byteOffset":0,"componentType":5126,"count":2102,"type":"VEC2"},{"bufferView":4,"byteOffset":0,"componentType":5123,"count":438,"type":"SCALAR"},{"bufferView":5,"byteOffset":0,"componentType":5126,"count":292,"max":[0.00496742222458124,0.00269126892089844,0.00077093479922041],"min":[-0.00496591627598,-0.25988304615021,-0.01930800080299],"type":"VEC3"},{"bufferView":6,"byteOffset":0,"componentType":5126,"count":292,"type":"VEC3"},{"bufferView":7,"byteOffset":0,"componentType":5126,"count":292,"type":"VEC2"},{"bufferView":8,"byteOffset":0,"componentType":5123,"count":276,"type":"SCALAR"},{"bufferView":9,"byteOffset":0,"componentType":5126,"count":172,"max":[0.050876572728157,0.0660565197467804,0.00648877723142505],"min":[0.00974221527576447,0.0420537404716015,-0.00648876279593],"type":"VEC3"},{"bufferView":10,"byteOffset":0,"componentType":5126,"count":172,"type":"VEC3"},{"bufferView":11,"byteOffset":0,"componentType":5126,"count":172,"type":"VEC2"}],"asset":{"generator":"FBX2glTF v0.13.1","version":"2.0"},"bufferViews":[{"buffer":0,"byteLength":6864,"byteOffset":0,"target":34963},{"buffer":0,"byteLength":25224,"byteOffset":6864,"target":34962},{"buffer":0,"byteLength":25224,"byteOffset":32088,"target":34962},{"buffer":0,"byteLength":16816,"byteOffset":57312,"target":34962},{"buffer":0,"byteLength":876,"byteOffset":74128,"target":34963},{"buffer":0,"byteLength":3504,"byteOffset":75004,"target":34962},{"buffer":0,"byteLength":3504,"byteOffset":78508,"target":34962},{"buffer":0,"byteLength":2336,"byteOffset":82012,"target":34962},{"buffer":0,"byteLength":552,"byteOffset":84348,"target":34963},{"buffer":0,"byteLength":2064,"byteOffset":84900,"target":34962},{"buffer":0,"byteLength":2064,"byteOffset":86964,"target":34962},{"buffer":0,"byteLength":1376,"byteOffset":89028,"target":34962}],"buffers":[{"byteLength":90404,"uri":"SM_Fishing_Rod.bin"}],"images":[{"name":"Polygon_Texture_vol2","uri":"Polygon_Texture_vol2.png"}],"materials":[{"alphaMode":"OPAQUE","doubleSided":false,"extras":{"fromFBX":{"isTruePBR":false,"shadingModel":"Phong"}},"name":"main","pbrMetallicRoughness":{"baseColorFactor":[1,1,1,1],"baseColorTexture":{"index":0,"texCoord":0},"metallicFactor":0.400000005960464,"roughnessFactor":0.229415729641914}}],"meshes":[{"name":"SM_Fishing_Rod","primitives":[{"attributes":{"NORMAL":2,"POSITION":1,"TEXCOORD_0":3},"indices":0,"material":0,"mode":4}]},{"name":"HOOK_FOR_Fishing_Rod_01","primitives":[{"attributes":{"NORMAL":6,"POSITION":5,"TEXCOORD_0":7},"indices":4,"material":0,"mode":4}]},{"name":"HOLDER_FOR_Fishing_Rod","primitives":[{"attributes":{"NORMAL":10,"POSITION":9,"TEXCOORD_0":11},"indices":8,"material":0,"mode":4}]}],"nodes":[{"children":[1,2],"mesh":0,"name":"SM_Fishing_Rod","rotation":[0,0,0,1],"scale":[1,1,1],"translation":[115.533493041992,0.343971580266953,0.0000000819563865661621]},{"mesh":1,"name":"HOOK_FOR_Fishing_Rod_01","rotation":[0,0,0,1],"scale":[1,1,1],"translation":[0.00000976562478172127,1.7029846906662,-0.0105451317504]},{"mesh":2,"name":"HOLDER_FOR_Fishing_Rod","rotation":[0,0,0,1],"scale":[1,1,1],"translation":[0.0387109369039536,0.161097675561905,0.0694665685296059]}],"samplers":[{}],"scene":0,"scenes":[{"name":"Root Scene","nodes":[0]}],"textures":[{"name":"base_color_texture","sampler":0,"source":0}]}