{"accessors":[{"bufferView":0,"byteOffset":0,"componentType":5123,"count":5418,"type":"SCALAR"},{"bufferView":1,"byteOffset":0,"componentType":5126,"count":3547,"max":[0.189172834157944,0.271882951259613,0.218489855527878],"min":[-0.21635124087334,-0.26203185319901,-0.18755319714546],"type":"VEC3"},{"bufferView":2,"byteOffset":0,"componentType":5126,"count":3547,"type":"VEC3"},{"bufferView":3,"byteOffset":0,"componentType":5126,"count":3547,"type":"VEC2"}],"asset":{"generator":"FBX2glTF v0.13.1","version":"2.0"},"bufferViews":[{"buffer":0,"byteLength":10836,"byteOffset":0,"target":34963},{"buffer":0,"byteLength":42564,"byteOffset":10836,"target":34962},{"buffer":0,"byteLength":42564,"byteOffset":53400,"target":34962},{"buffer":0,"byteLength":28376,"byteOffset":95964,"target":34962}],"buffers":[{"byteLength":124340,"uri":"SM_FIREWOOD_LAYING.bin"}],"images":[{"name":"Polygon_Texture_vol2","uri":"Polygon_Texture_vol2.png"}],"materials":[{"alphaMode":"OPAQUE","doubleSided":false,"extras":{"fromFBX":{"isTruePBR":false,"shadingModel":"Phong"}},"name":"main","pbrMetallicRoughness":{"baseColorFactor":[1,1,1,1],"baseColorTexture":{"index":0,"texCoord":0},"metallicFactor":0.400000005960464,"roughnessFactor":0.229415729641914}}],"meshes":[{"name":"SM_FIREWOOD_LAYING","primitives":[{"attributes":{"NORMAL":2,"POSITION":1,"TEXCOORD_0":3},"indices":0,"material":0,"mode":4}]}],"nodes":[{"mesh":0,"name":"SM_FIREWOOD_LAYING","rotation":[0,0,0,1],"scale":[1,1,1],"translation":[67.5532760620117,0.234235122799873,0.0106567209586501]}],"samplers":[{}],"scene":0,"scenes":[{"name":"Root Scene","nodes":[0]}],"textures":[{"name":"base_color_texture","sampler":0,"source":0}]}