{"accessors":[{"bufferView":0,"byteOffset":0,"componentType":5123,"count":2511,"type":"SCALAR"},{"bufferView":1,"byteOffset":0,"componentType":5126,"count":1501,"max":[0.140532180666924,0.504169583320618,0.165490835905075],"min":[-0.15797984600067,0.0798967257142067,-0.16300795972347],"type":"VEC3"},{"bufferView":2,"byteOffset":0,"componentType":5126,"count":1501,"type":"VEC3"},{"bufferView":3,"byteOffset":0,"componentType":5126,"count":1501,"type":"VEC2"},{"bufferView":4,"byteOffset":0,"componentType":5123,"count":5451,"type":"SCALAR"},{"bufferView":5,"byteOffset":0,"componentType":5126,"count":3421,"max":[0.165660589933395,0.526904225349426,0.168647974729538],"min":[-0.16563881933689,-0.00000000139698,-0.16827885806561],"type":"VEC3"},{"bufferView":6,"byteOffset":0,"componentType":5126,"count":3421,"type":"VEC3"},{"bufferView":7,"byteOffset":0,"componentType":5126,"count":3421,"type":"VEC2"}],"asset":{"generator":"FBX2glTF v0.13.1","version":"2.0"},"bufferViews":[{"buffer":0,"byteLength":5022,"byteOffset":0,"target":34963},{"buffer":0,"byteLength":18012,"byteOffset":5024,"target":34962},{"buffer":0,"byteLength":18012,"byteOffset":23036,"target":34962},{"buffer":0,"byteLength":12008,"byteOffset":41048,"target":34962},{"buffer":0,"byteLength":10902,"byteOffset":53056,"target":34963},{"buffer":0,"byteLength":41052,"byteOffset":63960,"target":34962},{"buffer":0,"byteLength":41052,"byteOffset":105012,"target":34962},{"buffer":0,"byteLength":27368,"byteOffset":146064,"target":34962}],"buffers":[{"byteLength":173432,"uri":"SM_GAS_CYLINDER_02.bin"}],"images":[{"name":"Polygon_Texture_vol2","uri":"Polygon_Texture_vol2.png"}],"materials":[{"alphaMode":"OPAQUE","doubleSided":false,"extras":{"fromFBX":{"isTruePBR":false,"shadingModel":"Phong"}},"name":"Red","pbrMetallicRoughness":{"baseColorFactor":[0.00303096207790077,0,0.800000071525574,1],"metallicFactor":0.400000005960464,"roughnessFactor":0.272165536880493}},{"alphaMode":"OPAQUE","doubleSided":false,"extras":{"fromFBX":{"isTruePBR":false,"shadingModel":"Phong"}},"name":"main","pbrMetallicRoughness":{"baseColorFactor":[1,1,1,1],"baseColorTexture":{"index":0,"texCoord":0},"metallicFactor":0.400000005960464,"roughnessFactor":0.229415729641914}}],"meshes":[{"name":"SM_GAS_CYLINDER_02","primitives":[{"attributes":{"NORMAL":2,"POSITION":1,"TEXCOORD_0":3},"indices":0,"material":1,"mode":4},{"attributes":{"NORMAL":6,"POSITION":5,"TEXCOORD_0":7},"indices":4,"material":0,"mode":4}]}],"nodes":[{"mesh":0,"name":"SM_GAS_CYLINDER_02","rotation":[0,0,0,1],"scale":[1,1,1],"translation":[76.5246047973633,-0.00562614900991,0.0004017949104309]}],"samplers":[{}],"scene":0,"scenes":[{"name":"Root Scene","nodes":[0]}],"textures":[{"name":"base_color_texture","sampler":0,"source":0}]}