{"accessors":[{"bufferView":0,"byteOffset":0,"componentType":5123,"count":2043,"type":"SCALAR"},{"bufferView":1,"byteOffset":0,"componentType":5126,"count":1229,"max":[0.147619500756264,1.70331752300262,0.150000035762787],"min":[-0.13873565196991,0.0324464589357376,-0.15092250704765],"type":"VEC3"},{"bufferView":2,"byteOffset":0,"componentType":5126,"count":1229,"type":"VEC3"},{"bufferView":3,"byteOffset":0,"componentType":5126,"count":1229,"type":"VEC2"},{"bufferView":4,"byteOffset":0,"componentType":5123,"count":2667,"type":"SCALAR"},{"bufferView":5,"byteOffset":0,"componentType":5126,"count":1535,"max":[0.151844516396523,1.60280013084412,0.15116211771965],"min":[-0.15107342600822,0,-0.15437209606171],"type":"VEC3"},{"bufferView":6,"byteOffset":0,"componentType":5126,"count":1535,"type":"VEC3"},{"bufferView":7,"byteOffset":0,"componentType":5126,"count":1535,"type":"VEC2"}],"asset":{"generator":"FBX2glTF v0.13.1","version":"2.0"},"bufferViews":[{"buffer":0,"byteLength":4086,"byteOffset":0,"target":34963},{"buffer":0,"byteLength":14748,"byteOffset":4088,"target":34962},{"buffer":0,"byteLength":14748,"byteOffset":18836,"target":34962},{"buffer":0,"byteLength":9832,"byteOffset":33584,"target":34962},{"buffer":0,"byteLength":5334,"byteOffset":43416,"target":34963},{"buffer":0,"byteLength":18420,"byteOffset":48752,"target":34962},{"buffer":0,"byteLength":18420,"byteOffset":67172,"target":34962},{"buffer":0,"byteLength":12280,"byteOffset":85592,"target":34962}],"buffers":[{"byteLength":97872,"uri":"SM_GAS_CYLINDER_01.bin"}],"images":[{"name":"Polygon_Texture_vol2","uri":"Polygon_Texture_vol2.png"}],"materials":[{"alphaMode":"OPAQUE","doubleSided":false,"extras":{"fromFBX":{"isTruePBR":false,"shadingModel":"Phong"}},"name":"Red","pbrMetallicRoughness":{"baseColorFactor":[0.00303096207790077,0,0.800000071525574,1],"metallicFactor":0.400000005960464,"roughnessFactor":0.272165536880493}},{"alphaMode":"OPAQUE","doubleSided":false,"extras":{"fromFBX":{"isTruePBR":false,"shadingModel":"Phong"}},"name":"main","pbrMetallicRoughness":{"baseColorFactor":[1,1,1,1],"baseColorTexture":{"index":0,"texCoord":0},"metallicFactor":0.400000005960464,"roughnessFactor":0.229415729641914}}],"meshes":[{"name":"SM_GAS_CYLINDER_01","primitives":[{"attributes":{"NORMAL":2,"POSITION":1,"TEXCOORD_0":3},"indices":0,"material":1,"mode":4},{"attributes":{"NORMAL":6,"POSITION":5,"TEXCOORD_0":7},"indices":4,"material":0,"mode":4}]}],"nodes":[{"mesh":0,"name":"SM_GAS_CYLINDER_01","rotation":[0,0,0,1],"scale":[1,1,1],"translation":[77.0039291381836,0,0]}],"samplers":[{}],"scene":0,"scenes":[{"name":"Root Scene","nodes":[0]}],"textures":[{"name":"base_color_texture","sampler":0,"source":0}]}