{"accessors":[{"bufferView":0,"byteOffset":0,"componentType":5123,"count":1116,"type":"SCALAR"},{"bufferView":1,"byteOffset":0,"componentType":5126,"count":722,"max":[0.108147300779819,0.0208829492330551,0.0241841282695532],"min":[-0.05675721168518,-0.0348983258009,-0.02418413199484],"type":"VEC3"},{"bufferView":2,"byteOffset":0,"componentType":5126,"count":722,"type":"VEC3"},{"bufferView":3,"byteOffset":0,"componentType":5126,"count":722,"type":"VEC2"}],"asset":{"generator":"FBX2glTF v0.13.1","version":"2.0"},"bufferViews":[{"buffer":0,"byteLength":2232,"byteOffset":0,"target":34963},{"buffer":0,"byteLength":8664,"byteOffset":2232,"target":34962},{"buffer":0,"byteLength":8664,"byteOffset":10896,"target":34962},{"buffer":0,"byteLength":5776,"byteOffset":19560,"target":34962}],"buffers":[{"byteLength":25336,"uri":"SM_Handguard_For_Submachine_Gun_01.bin"}],"images":[{"name":"Polygon_Texture_vol2","uri":"Polygon_Texture_vol2.png"}],"materials":[{"alphaMode":"OPAQUE","doubleSided":false,"extras":{"fromFBX":{"isTruePBR":false,"shadingModel":"Phong"}},"name":"main","pbrMetallicRoughness":{"baseColorFactor":[1,1,1,1],"baseColorTexture":{"index":0,"texCoord":0},"metallicFactor":0.400000005960464,"roughnessFactor":0.229415729641914}}],"meshes":[{"name":"SM_Handguard_For_Submachine_Gun_01","primitives":[{"attributes":{"NORMAL":2,"POSITION":1,"TEXCOORD_0":3},"indices":0,"material":0,"mode":4}]}],"nodes":[{"mesh":0,"name":"SM_Handguard_For_Submachine_Gun_01","rotation":[0,0,0,1],"scale":[1,1,1],"translation":[12.2217121124268,0.655018925666809,-0.00000010664385]}],"samplers":[{}],"scene":0,"scenes":[{"name":"Root Scene","nodes":[0]}],"textures":[{"name":"base_color_texture","sampler":0,"source":0}]}