{"accessors":[{"bufferView":0,"byteOffset":0,"componentType":5123,"count":1698,"type":"SCALAR"},{"bufferView":1,"byteOffset":0,"componentType":5126,"count":1070,"max":[0.0463209897279739,0.190639108419418,0.0140096582472324],"min":[-0.06701137125492,-0.10035545378923,-0.01458401978016],"type":"VEC3"},{"bufferView":2,"byteOffset":0,"componentType":5126,"count":1070,"type":"VEC3"},{"bufferView":3,"byteOffset":0,"componentType":5126,"count":1070,"type":"VEC2"}],"asset":{"generator":"FBX2glTF v0.13.1","version":"2.0"},"bufferViews":[{"buffer":0,"byteLength":3396,"byteOffset":0,"target":34963},{"buffer":0,"byteLength":12840,"byteOffset":3396,"target":34962},{"buffer":0,"byteLength":12840,"byteOffset":16236,"target":34962},{"buffer":0,"byteLength":8560,"byteOffset":29076,"target":34962}],"buffers":[{"byteLength":37636,"uri":"SM_Hammer.bin"}],"images":[{"name":"Polygon_Texture_vol2","uri":"Polygon_Texture_vol2.png"}],"materials":[{"alphaMode":"OPAQUE","doubleSided":false,"extras":{"fromFBX":{"isTruePBR":false,"shadingModel":"Phong"}},"name":"main","pbrMetallicRoughness":{"baseColorFactor":[1,1,1,1],"baseColorTexture":{"index":0,"texCoord":0},"metallicFactor":0.400000005960464,"roughnessFactor":0.229415729641914}}],"meshes":[{"name":"SM_Hammer","primitives":[{"attributes":{"NORMAL":2,"POSITION":1,"TEXCOORD_0":3},"indices":0,"material":0,"mode":4}]}],"nodes":[{"mesh":0,"name":"SM_Hammer","rotation":[0,0,0,1],"scale":[1,1,1],"translation":[121.772880554199,0.0847418084740639,0.00049608200788497]}],"samplers":[{}],"scene":0,"scenes":[{"name":"Root Scene","nodes":[0]}],"textures":[{"name":"base_color_texture","sampler":0,"source":0}]}