{"accessors":[{"bufferView":0,"byteOffset":0,"componentType":5123,"count":9648,"type":"SCALAR"},{"bufferView":1,"byteOffset":0,"componentType":5126,"count":5397,"max":[0.0617233365774155,0.025400172919035,0.0268395617604256],"min":[-0.07109609246254,-0.02320206165314,-0.02683885768056],"type":"VEC3"},{"bufferView":2,"byteOffset":0,"componentType":5126,"count":5397,"type":"VEC3"},{"bufferView":3,"byteOffset":0,"componentType":5126,"count":5397,"type":"VEC2"}],"asset":{"generator":"FBX2glTF v0.13.1","version":"2.0"},"bufferViews":[{"buffer":0,"byteLength":19296,"byteOffset":0,"target":34963},{"buffer":0,"byteLength":64764,"byteOffset":19296,"target":34962},{"buffer":0,"byteLength":64764,"byteOffset":84060,"target":34962},{"buffer":0,"byteLength":43176,"byteOffset":148824,"target":34962}],"buffers":[{"byteLength":192000,"uri":"SM_Handguard_For_Submachine_Gun_02.bin"}],"images":[{"name":"Polygon_Texture_vol2","uri":"Polygon_Texture_vol2.png"}],"materials":[{"alphaMode":"OPAQUE","doubleSided":false,"extras":{"fromFBX":{"isTruePBR":false,"shadingModel":"Phong"}},"name":"main","pbrMetallicRoughness":{"baseColorFactor":[1,1,1,1],"baseColorTexture":{"index":0,"texCoord":0},"metallicFactor":0.400000005960464,"roughnessFactor":0.229415729641914}}],"meshes":[{"name":"SM_Handguard_For_Submachine_Gun_02","primitives":[{"attributes":{"NORMAL":2,"POSITION":1,"TEXCOORD_0":3},"indices":0,"material":0,"mode":4}]}],"nodes":[{"mesh":0,"name":"SM_Handguard_For_Submachine_Gun_02","rotation":[0,0,0,1],"scale":[1,1,1],"translation":[12.268120765686,0.755108237266541,-0.00000034535333]}],"samplers":[{}],"scene":0,"scenes":[{"name":"Root Scene","nodes":[0]}],"textures":[{"name":"base_color_texture","sampler":0,"source":0}]}