{"accessors":[{"bufferView":0,"byteOffset":0,"componentType":5123,"count":630,"type":"SCALAR"},{"bufferView":1,"byteOffset":0,"componentType":5126,"count":420,"max":[0.0049620047211647,1.38818955421448,0.00077093479922041],"min":[-0.00497133284807,-0.00057709217072,-0.74876528978348],"type":"VEC3"},{"bufferView":2,"byteOffset":0,"componentType":5126,"count":420,"type":"VEC3"},{"bufferView":3,"byteOffset":0,"componentType":5126,"count":420,"type":"VEC2"},{"bufferView":4,"byteOffset":0,"componentType":5123,"count":420,"type":"VEC4"},{"bufferView":5,"byteOffset":0,"componentType":5126,"count":420,"type":"VEC4"},{"bufferView":6,"byteOffset":0,"componentType":5126,"count":17,"type":"MAT4"}],"asset":{"generator":"FBX2glTF v0.13.1","version":"2.0"},"bufferViews":[{"buffer":0,"byteLength":1260,"byteOffset":0,"target":34963},{"buffer":0,"byteLength":5040,"byteOffset":1260,"target":34962},{"buffer":0,"byteLength":5040,"byteOffset":6300,"target":34962},{"buffer":0,"byteLength":3360,"byteOffset":11340,"target":34962},{"buffer":0,"byteLength":3360,"byteOffset":14700,"target":34962},{"buffer":0,"byteLength":6720,"byteOffset":18060,"target":34962},{"buffer":0,"byteLength":1088,"byteOffset":24780}],"buffers":[{"byteLength":25868,"uri":"SM_HOOK_FOR_Fishing_Rod_02.bin"}],"images":[{"name":"Polygon_Texture_vol2","uri":"Polygon_Texture_vol2.png"}],"materials":[{"alphaMode":"OPAQUE","doubleSided":false,"extras":{"fromFBX":{"isTruePBR":false,"shadingModel":"Phong"}},"name":"main","pbrMetallicRoughness":{"baseColorFactor":[1,1,1,1],"baseColorTexture":{"index":0,"texCoord":0},"metallicFactor":0.400000005960464,"roughnessFactor":0.229415729641914}}],"meshes":[{"name":"SM_HOOK_FOR_Fishing_Rod_02","primitives":[{"attributes":{"JOINTS_0":4,"NORMAL":2,"POSITION":1,"TEXCOORD_0":3,"WEIGHTS_0":5},"indices":0,"material":0,"mode":4}]}],"nodes":[{"mesh":0,"name":"SM_HOOK_FOR_Fishing_Rod_02","rotation":[0,0,0,1],"scale":[1,1,1],"skin":0,"translation":[115.606285095215,2.04695630073547,-0.01054504979402]},{"children":[2],"name":"Armature_FOR_HOOK_FOR_Fishing_Rod","rotation":[-0.70710682868957,0,0,0.707106709480286],"scale":[100,100,100],"translation":[115.606285095215,2.04695630073547,-0.01054504979402]},{"children":[3],"name":"Bone","rotation":[0.517319440841675,0.00097876391373574,-0.00097876309883,0.85579127073288],"scale":[0.999999940395355,0.999999940395355,1],"translation":[0,0,0]},{"children":[4],"name":"Bone.001","rotation":[-0.00493489718065,0.0000000416328269636779,0.00134063314180821,0.999986946582794],"scale":[1,1,1],"translation":[0.000000000000072759574515531,0.00096506311092525,0.00000000000506545673462089]},{"children":[5],"name":"Bone.002","rotation":[-0.00000049173838,-0.00000000001455,-0.00000000027418,1],"scale":[1,1,0.999999940395355],"translation":[0.000000000000363655774330424,0.00096357939764857,0.000000000039690063735609]},{"children":[6],"name":"Bone.003","rotation":[0.0000000149011469829929,-0.00000000002183,0.0000000000244812087268897,1],"scale":[1,0.999999940395355,0.999999940395355],"translation":[0.000000000000072759574515531,0.00096357701113447,0.0000000000769429658875609]},{"children":[7],"name":"Bone.004","rotation":[-0.00000001490118,-0.0000000000291,0.0000000000139056136397309,1],"scale":[1,0.999999940395355,1],"translation":[-0.00000000000007,0.00096357701113447,0.000000000150866694137441]},{"children":[8],"name":"Bone.005","rotation":[-0.00000000000001,0.0000000000109139364212751,-0.00000000000065,1],"scale":[1,1,1],"translation":[-0.00000000000015,0.00096357724396511,0.00000000000127286625250383]},{"children":[9],"name":"Bone.006","rotation":[-0.00000000000001,0.0000000000109139364212751,-0.00000000000065,1],"scale":[1,1,1],"translation":[-0.00000000000015,0.00096357730217278,0.00000000015028447930554]},{"children":[10],"name":"Bone.007","rotation":[-0.00000000000001,0.0000000000109139364212751,-0.00000000000065,1],"scale":[1,1,1],"translation":[-0.00000000000029,0.00096357718575745,0.00000000000127286180727493]},{"children":[11],"name":"Bone.008","rotation":[-0.00000000000001,0.0000000000109139364212751,-0.00000000000065,1],"scale":[1,1,1],"translation":[-0.00000000000029,0.00096357817528769,0.00000000000127286625250383]},{"children":[12],"name":"Bone.009","rotation":[-0.00000000000001,0.0000000000109139364212751,-0.00000000000065,1],"scale":[1,1,1],"translation":[-0.00000000000015,0.00096357683651149,0.000000000299296087913348]},{"children":[13],"name":"Bone.010","rotation":[-0.00000013411045,-0,-0.0000000000967,1],"scale":[1,1,1],"translation":[-0.00000000000029,0.00096357613801956,0.00000000000127286625250383]},{"children":[14],"name":"Bone.011","rotation":[0.000000268220901489258,0.00000000000363797880709171,0.000000000166001240531344,1],"scale":[1,1,0.999999940395355],"translation":[0,0.00096357701113447,0.000000000299878150089583]},{"children":[15],"name":"Bone.012","rotation":[-0.00000013411048,-0.00000000001455,-0.00000000011195,1],"scale":[1,0.99999988079071,0.99999988079071],"translation":[0.000000000000291038298062124,0.00096357549773529,0.000000000299878150089583]},{"children":[16],"name":"Bone.013","rotation":[-0.00000000000002,-0.00000000001819,-0.00000000000537,1],"scale":[1,1,1],"translation":[0.000000000000582076596124248,0.00096357642905786,0.000000000298713997981537]},{"children":[17],"name":"Bone.014","rotation":[-0.00000000000002,-0.00000000002183,-0.00000000000792,1],"scale":[1,1,1],"translation":[0.000000000000581934511429544,0.00096357759321108,0.000000000000690789656379587]},{"children":[18],"name":"Bone.015","rotation":[-0.00000000000002,-0.00000000001455,-0.00000000001264,1],"scale":[1,1,1],"translation":[0,0.00096357672009617,0.000000000000690789656379587]},{"name":"Bone.016","rotation":[-0.052625477314,-0.00047444217489,0.00636912928894162,0.998593866825104],"scale":[1,1,1],"translation":[0.000000000000291038298062124,0.00096357730217278,0.000000000000690789656379587]}],"samplers":[{}],"scene":0,"scenes":[{"name":"Root Scene","nodes":[0,1]}],"skins":[{"inverseBindMatrices":6,"joints":[2,3,4,5,6,7,8,9,10,11,12,13,14,15,16,17,18],"skeleton":2},{"joints":[2,3,4,5,6,7,8,9,10,11,12,13,14,15,16,17,18]}],"textures":[{"name":"base_color_texture","sampler":0,"source":0}]}