{"accessors":[{"bufferView":0,"byteOffset":0,"componentType":5123,"count":4350,"type":"SCALAR"},{"bufferView":1,"byteOffset":0,"componentType":5126,"count":3652,"max":[0.13600105047226,1.30763185024261,0.188151672482491],"min":[-0.1450363099575,-1.25343489646912,-0.19555461406708],"type":"VEC3"},{"bufferView":2,"byteOffset":0,"componentType":5126,"count":3652,"type":"VEC3"},{"bufferView":3,"byteOffset":0,"componentType":5126,"count":3652,"type":"VEC2"}],"asset":{"generator":"FBX2glTF v0.13.1","version":"2.0"},"bufferViews":[{"buffer":0,"byteLength":8700,"byteOffset":0,"target":34963},{"buffer":0,"byteLength":43824,"byteOffset":8700,"target":34962},{"buffer":0,"byteLength":43824,"byteOffset":52524,"target":34962},{"buffer":0,"byteLength":29216,"byteOffset":96348,"target":34962}],"buffers":[{"byteLength":125564,"uri":"SM_Log.bin"}],"images":[{"name":"Polygon_Texture_vol2","uri":"Polygon_Texture_vol2.png"}],"materials":[{"alphaMode":"OPAQUE","doubleSided":false,"extras":{"fromFBX":{"isTruePBR":false,"shadingModel":"Phong"}},"name":"main","pbrMetallicRoughness":{"baseColorFactor":[1,1,1,1],"baseColorTexture":{"index":0,"texCoord":0},"metallicFactor":0.400000005960464,"roughnessFactor":0.229415729641914}}],"meshes":[{"name":"SM_Log","primitives":[{"attributes":{"NORMAL":2,"POSITION":1,"TEXCOORD_0":3},"indices":0,"material":0,"mode":4}]}],"nodes":[{"mesh":0,"name":"SM_Log","rotation":[0,0,0,1],"scale":[1,1,1],"translation":[67.0026016235352,1.22738814353943,0.00047751516103744]}],"samplers":[{}],"scene":0,"scenes":[{"name":"Root Scene","nodes":[0]}],"textures":[{"name":"base_color_texture","sampler":0,"source":0}]}