{"accessors":[{"bufferView":0,"byteOffset":0,"componentType":5123,"count":1224,"type":"SCALAR"},{"bufferView":1,"byteOffset":0,"componentType":5126,"count":668,"max":[0.0145633816719055,0.00819024443626404,0.00819012708961964],"min":[-0.01559644937515,-0.00818982720375,-0.00819000974298],"type":"VEC3"},{"bufferView":2,"byteOffset":0,"componentType":5126,"count":668,"type":"VEC3"},{"bufferView":3,"byteOffset":0,"componentType":5126,"count":668,"type":"VEC2"}],"asset":{"generator":"FBX2glTF v0.13.1","version":"2.0"},"bufferViews":[{"buffer":0,"byteLength":2448,"byteOffset":0,"target":34963},{"buffer":0,"byteLength":8016,"byteOffset":2448,"target":34962},{"buffer":0,"byteLength":8016,"byteOffset":10464,"target":34962},{"buffer":0,"byteLength":5344,"byteOffset":18480,"target":34962}],"buffers":[{"byteLength":23824,"uri":"SM_Muzzle_Brake_Compensator_01.bin"}],"images":[{"name":"Polygon_Texture_vol2","uri":"Polygon_Texture_vol2.png"}],"materials":[{"alphaMode":"OPAQUE","doubleSided":false,"extras":{"fromFBX":{"isTruePBR":false,"shadingModel":"Phong"}},"name":"main","pbrMetallicRoughness":{"baseColorFactor":[1,1,1,1],"baseColorTexture":{"index":0,"texCoord":0},"metallicFactor":0.400000005960464,"roughnessFactor":0.229415729641914}}],"meshes":[{"name":"SM_Muzzle_Brake_Compensator_01","primitives":[{"attributes":{"NORMAL":2,"POSITION":1,"TEXCOORD_0":3},"indices":0,"material":0,"mode":4}]}],"nodes":[{"mesh":0,"name":"SM_Muzzle_Brake_Compensator_01","rotation":[0,0,0,1],"scale":[1,1,1],"translation":[11.848669052124,0.119392037391663,-0.00141845340841]}],"samplers":[{}],"scene":0,"scenes":[{"name":"Root Scene","nodes":[0]}],"textures":[{"name":"base_color_texture","sampler":0,"source":0}]}