{"accessors":[{"bufferView":0,"byteOffset":0,"componentType":5123,"count":1944,"type":"SCALAR"},{"bufferView":1,"byteOffset":0,"componentType":5126,"count":1288,"max":[0.0290532298386097,0.104541778564453,0.0131322890520096],"min":[-0.06544755399227,-0.09916912019253,-0.01313227508217],"type":"VEC3"},{"bufferView":2,"byteOffset":0,"componentType":5126,"count":1288,"type":"VEC3"},{"bufferView":3,"byteOffset":0,"componentType":5126,"count":1288,"type":"VEC2"}],"asset":{"generator":"FBX2glTF v0.13.1","version":"2.0"},"bufferViews":[{"buffer":0,"byteLength":3888,"byteOffset":0,"target":34963},{"buffer":0,"byteLength":15456,"byteOffset":3888,"target":34962},{"buffer":0,"byteLength":15456,"byteOffset":19344,"target":34962},{"buffer":0,"byteLength":10304,"byteOffset":34800,"target":34962}],"buffers":[{"byteLength":45104,"uri":"SM_Magazine_For_Special_Submachine_Gun.bin"}],"images":[{"name":"Polygon_Texture_vol2","uri":"Polygon_Texture_vol2.png"}],"materials":[{"alphaMode":"OPAQUE","doubleSided":false,"extras":{"fromFBX":{"isTruePBR":false,"shadingModel":"Phong"}},"name":"main","pbrMetallicRoughness":{"baseColorFactor":[1,1,1,1],"baseColorTexture":{"index":0,"texCoord":0},"metallicFactor":0.400000005960464,"roughnessFactor":0.229415729641914}}],"meshes":[{"name":"SM_Magazine_For_Special_Submachine_Gun","primitives":[{"attributes":{"NORMAL":2,"POSITION":1,"TEXCOORD_0":3},"indices":0,"material":0,"mode":4}]}],"nodes":[{"mesh":0,"name":"SM_Magazine_For_Special_Submachine_Gun","rotation":[0,0,0,1],"scale":[1,1,1],"translation":[13.7121419906616,0.08883136510849,0.00707565248012543]}],"samplers":[{}],"scene":0,"scenes":[{"name":"Root Scene","nodes":[0]}],"textures":[{"name":"base_color_texture","sampler":0,"source":0}]}