{"accessors":[{"bufferView":0,"byteOffset":0,"componentType":5123,"count":15456,"type":"SCALAR"},{"bufferView":1,"byteOffset":0,"componentType":5126,"count":9893,"max":[0.253436893224716,0.0646020397543907,0.159727334976196],"min":[-0.20445272326469,-0.00535923941061,-0.18469721078873],"type":"VEC3"},{"bufferView":2,"byteOffset":0,"componentType":5126,"count":9893,"type":"VEC3"},{"bufferView":3,"byteOffset":0,"componentType":5126,"count":9893,"type":"VEC2"}],"asset":{"generator":"FBX2glTF v0.13.1","version":"2.0"},"bufferViews":[{"buffer":0,"byteLength":30912,"byteOffset":0,"target":34963},{"buffer":0,"byteLength":118716,"byteOffset":30912,"target":34962},{"buffer":0,"byteLength":118716,"byteOffset":149628,"target":34962},{"buffer":0,"byteLength":79144,"byteOffset":268344,"target":34962}],"buffers":[{"byteLength":347488,"uri":"SM_Scrap_Metal_01.bin"}],"images":[{"name":"Polygon_Texture_vol2","uri":"Polygon_Texture_vol2.png"}],"materials":[{"alphaMode":"OPAQUE","doubleSided":false,"extras":{"fromFBX":{"isTruePBR":false,"shadingModel":"Phong"}},"name":"main","pbrMetallicRoughness":{"baseColorFactor":[1,1,1,1],"baseColorTexture":{"index":0,"texCoord":0},"metallicFactor":0.400000005960464,"roughnessFactor":0.229415729641914}}],"meshes":[{"name":"SM_Scrap_Metal_01","primitives":[{"attributes":{"NORMAL":2,"POSITION":1,"TEXCOORD_0":3},"indices":0,"material":0,"mode":4}]}],"nodes":[{"mesh":0,"name":"SM_Scrap_Metal_01","rotation":[0,0,0,1],"scale":[1,1,1],"translation":[44.5390701293945,0,-0.08837254345417]}],"samplers":[{}],"scene":0,"scenes":[{"name":"Root Scene","nodes":[0]}],"textures":[{"name":"base_color_texture","sampler":0,"source":0}]}