{"accessors":[{"bufferView":0,"byteOffset":0,"componentType":5123,"count":396,"type":"SCALAR"},{"bufferView":1,"byteOffset":0,"componentType":5126,"count":198,"max":[-0.04082499817014,0.0212381947785616,0.0139016387984157],"min":[-0.05219161882997,-0.01406682934612,-0.01390163600445],"type":"VEC3"},{"bufferView":2,"byteOffset":0,"componentType":5126,"count":198,"type":"VEC3"},{"bufferView":3,"byteOffset":0,"componentType":5126,"count":198,"type":"VEC2"},{"bufferView":4,"byteOffset":0,"componentType":5123,"count":20292,"type":"SCALAR"},{"bufferView":5,"byteOffset":0,"componentType":5126,"count":9059,"max":[0.082842081785202,0.168888375163078,0.0262960828840733],"min":[-0.4309641122818,-0.05004189535975,-0.02335114218295],"type":"VEC3"},{"bufferView":6,"byteOffset":0,"componentType":5126,"count":9059,"type":"VEC3"},{"bufferView":7,"byteOffset":0,"componentType":5126,"count":9059,"type":"VEC2"}],"asset":{"generator":"FBX2glTF v0.13.1","version":"2.0"},"bufferViews":[{"buffer":0,"byteLength":792,"byteOffset":0,"target":34963},{"buffer":0,"byteLength":2376,"byteOffset":792,"target":34962},{"buffer":0,"byteLength":2376,"byteOffset":3168,"target":34962},{"buffer":0,"byteLength":1584,"byteOffset":5544,"target":34962},{"buffer":0,"byteLength":40584,"byteOffset":7128,"target":34963},{"buffer":0,"byteLength":108708,"byteOffset":47712,"target":34962},{"buffer":0,"byteLength":108708,"byteOffset":156420,"target":34962},{"buffer":0,"byteLength":72472,"byteOffset":265128,"target":34962}],"buffers":[{"byteLength":337600,"uri":"SM_Special_Submachine_Gun_Clean.bin"}],"images":[{"name":"Polygon_Texture_vol2","uri":"Polygon_Texture_vol2.png"}],"materials":[{"alphaMode":"OPAQUE","doubleSided":false,"extras":{"fromFBX":{"isTruePBR":false,"shadingModel":"Phong"}},"name":"main","pbrMetallicRoughness":{"baseColorFactor":[1,1,1,1],"baseColorTexture":{"index":0,"texCoord":0},"metallicFactor":0.400000005960464,"roughnessFactor":0.229415729641914}}],"meshes":[{"name":"SM_Handguard_For_Submachine_Gun_02.001","primitives":[{"attributes":{"NORMAL":2,"POSITION":1,"TEXCOORD_0":3},"indices":0,"material":0,"mode":4}]},{"name":"SM_Special_Submachine_Gun_Clean","primitives":[{"attributes":{"NORMAL":6,"POSITION":5,"TEXCOORD_0":7},"indices":4,"material":0,"mode":4}]}],"nodes":[{"mesh":0,"name":"SM_Handguard_For_Submachine_Gun_02.001","rotation":[0,0,0,1],"scale":[1,1,1],"translation":[-0.28580576181412,0.105317875742912,-0.00000010664385]},{"mesh":1,"name":"SM_Special_Submachine_Gun_Clean","rotation":[0,0,0,1],"scale":[1,1,1],"translation":[0.0000371340429410338,-0.00027126411442,0.000000000586388215761957]}],"samplers":[{}],"scene":0,"scenes":[{"name":"Root Scene","nodes":[0,1]}],"textures":[{"name":"base_color_texture","sampler":0,"source":0}]}