{"accessors":[{"bufferView":0,"byteOffset":0,"componentType":5123,"count":10758,"type":"SCALAR"},{"bufferView":1,"byteOffset":0,"componentType":5126,"count":9354,"max":[0.358887284994125,0.0786156207323074,0.479658037424088],"min":[-0.48264971375465,0.00289538386277854,-0.68423825502396],"type":"VEC3"},{"bufferView":2,"byteOffset":0,"componentType":5126,"count":9354,"type":"VEC3"},{"bufferView":3,"byteOffset":0,"componentType":5126,"count":9354,"type":"VEC2"}],"asset":{"generator":"FBX2glTF v0.13.1","version":"2.0"},"bufferViews":[{"buffer":0,"byteLength":21516,"byteOffset":0,"target":34963},{"buffer":0,"byteLength":112248,"byteOffset":21516,"target":34962},{"buffer":0,"byteLength":112248,"byteOffset":133764,"target":34962},{"buffer":0,"byteLength":74832,"byteOffset":246012,"target":34962}],"buffers":[{"byteLength":320844,"uri":"SM_Scrap_Metal_03.bin"}],"images":[{"name":"Polygon_Texture_vol2","uri":"Polygon_Texture_vol2.png"}],"materials":[{"alphaMode":"OPAQUE","doubleSided":false,"extras":{"fromFBX":{"isTruePBR":false,"shadingModel":"Phong"}},"name":"main","pbrMetallicRoughness":{"baseColorFactor":[1,1,1,1],"baseColorTexture":{"index":0,"texCoord":0},"metallicFactor":0.400000005960464,"roughnessFactor":0.229415729641914}}],"meshes":[{"name":"SM_Scrap_Metal_03","primitives":[{"attributes":{"NORMAL":2,"POSITION":1,"TEXCOORD_0":3},"indices":0,"material":0,"mode":4}]}],"nodes":[{"mesh":0,"name":"SM_Scrap_Metal_03","rotation":[0,0,0,1],"scale":[1,1,1],"translation":[42.7380065917969,0,0]}],"samplers":[{}],"scene":0,"scenes":[{"name":"Root Scene","nodes":[0]}],"textures":[{"name":"base_color_texture","sampler":0,"source":0}]}