{"accessors":[{"bufferView":0,"byteOffset":0,"componentType":5123,"count":3492,"type":"SCALAR"},{"bufferView":1,"byteOffset":0,"componentType":5126,"count":2310,"max":[0.336423397064209,0.0634293258190155,0.264188170433044],"min":[-0.37741103768349,-0.04347727075219,-0.53489756584168],"type":"VEC3"},{"bufferView":2,"byteOffset":0,"componentType":5126,"count":2310,"type":"VEC3"},{"bufferView":3,"byteOffset":0,"componentType":5126,"count":2310,"type":"VEC2"}],"asset":{"generator":"FBX2glTF v0.13.1","version":"2.0"},"bufferViews":[{"buffer":0,"byteLength":6984,"byteOffset":0,"target":34963},{"buffer":0,"byteLength":27720,"byteOffset":6984,"target":34962},{"buffer":0,"byteLength":27720,"byteOffset":34704,"target":34962},{"buffer":0,"byteLength":18480,"byteOffset":62424,"target":34962}],"buffers":[{"byteLength":80904,"uri":"SM_SKIN_FLATCHES.bin"}],"images":[{"name":"Polygon_Texture_vol2","uri":"Polygon_Texture_vol2.png"}],"materials":[{"alphaMode":"OPAQUE","doubleSided":false,"extras":{"fromFBX":{"isTruePBR":false,"shadingModel":"Phong"}},"name":"main","pbrMetallicRoughness":{"baseColorFactor":[1,1,1,1],"baseColorTexture":{"index":0,"texCoord":0},"metallicFactor":0.400000005960464,"roughnessFactor":0.229415729641914}}],"meshes":[{"name":"SM_SKIN_FLATCHES","primitives":[{"attributes":{"NORMAL":2,"POSITION":1,"TEXCOORD_0":3},"indices":0,"material":0,"mode":4}]}],"nodes":[{"mesh":0,"name":"SM_SKIN_FLATCHES","rotation":[0,0,0,1],"scale":[1,1,1],"translation":[47.4040679931641,0.0261526312679052,-0.07367223501205]}],"samplers":[{}],"scene":0,"scenes":[{"name":"Root Scene","nodes":[0]}],"textures":[{"name":"base_color_texture","sampler":0,"source":0}]}