{"accessors":[{"bufferView":0,"byteOffset":0,"componentType":5123,"count":342,"type":"SCALAR"},{"bufferView":1,"byteOffset":0,"componentType":5126,"count":340,"max":[0.104186534881592,0.0184158012270927,1.00402903556824],"min":[-0.08620619773865,-0.02204612642527,-1.03801417350769],"type":"VEC3"},{"bufferView":2,"byteOffset":0,"componentType":5126,"count":340,"type":"VEC3"},{"bufferView":3,"byteOffset":0,"componentType":5126,"count":340,"type":"VEC2"}],"asset":{"generator":"FBX2glTF v0.13.1","version":"2.0"},"bufferViews":[{"buffer":0,"byteLength":684,"byteOffset":0,"target":34963},{"buffer":0,"byteLength":4080,"byteOffset":684,"target":34962},{"buffer":0,"byteLength":4080,"byteOffset":4764,"target":34962},{"buffer":0,"byteLength":2720,"byteOffset":8844,"target":34962}],"buffers":[{"byteLength":11564,"uri":"SM_Woods_03.bin"}],"images":[{"name":"Polygon_Texture_vol2","uri":"Polygon_Texture_vol2.png"}],"materials":[{"alphaMode":"OPAQUE","doubleSided":false,"extras":{"fromFBX":{"isTruePBR":false,"shadingModel":"Phong"}},"name":"main","pbrMetallicRoughness":{"baseColorFactor":[1,1,1,1],"baseColorTexture":{"index":0,"texCoord":0},"metallicFactor":0.400000005960464,"roughnessFactor":0.229415729641914}}],"meshes":[{"name":"SM_Woods_03","primitives":[{"attributes":{"NORMAL":2,"POSITION":1,"TEXCOORD_0":3},"indices":0,"material":0,"mode":4}]}],"nodes":[{"mesh":0,"name":"SM_Woods_03","rotation":[0,0,0,1],"scale":[1,1,1],"translation":[60.3606567382812,0.0106983538717031,0.0191010944545269]}],"samplers":[{}],"scene":0,"scenes":[{"name":"Root Scene","nodes":[0]}],"textures":[{"name":"base_color_texture","sampler":0,"source":0}]}