{"accessors":[{"bufferView":0,"byteOffset":0,"componentType":5123,"count":912,"type":"SCALAR"},{"bufferView":1,"byteOffset":0,"componentType":5126,"count":548,"max":[0.0712791904807091,0.0549017749726772,0.0450891852378845],"min":[-0.07127919048071,0.000000000931322574615479,-0.04508918523788],"type":"VEC3"},{"bufferView":2,"byteOffset":0,"componentType":5126,"count":548,"type":"VEC3"},{"bufferView":3,"byteOffset":0,"componentType":5126,"count":548,"type":"VEC2"}],"asset":{"generator":"FBX2glTF v0.13.1","version":"2.0"},"bufferViews":[{"buffer":0,"byteLength":1824,"byteOffset":0,"target":34963},{"buffer":0,"byteLength":6576,"byteOffset":1824,"target":34962},{"buffer":0,"byteLength":6576,"byteOffset":8400,"target":34962},{"buffer":0,"byteLength":4384,"byteOffset":14976,"target":34962}],"buffers":[{"byteLength":19360,"uri":"Small_Canned_Food_D_03.bin"}],"images":[{"name":"Polygon_Texture_vol3","uri":"Polygon_Texture_vol3.png"}],"materials":[{"alphaMode":"OPAQUE","doubleSided":false,"extras":{"fromFBX":{"isTruePBR":false,"shadingModel":"Phong"}},"name":"main","pbrMetallicRoughness":{"baseColorFactor":[1,1,1,1],"baseColorTexture":{"index":0,"texCoord":0},"metallicFactor":0.400000005960464,"roughnessFactor":0.229415729641914}}],"meshes":[{"name":"Small_Canned_Food_D_03","primitives":[{"attributes":{"NORMAL":2,"POSITION":1,"TEXCOORD_0":3},"indices":0,"material":0,"mode":4}]}],"nodes":[{"mesh":0,"name":"Small_Canned_Food_D_03","rotation":[0,0,0,1],"scale":[1,1,1],"translation":[50.057991027832,0,-0.27438420057297]}],"samplers":[{}],"scene":0,"scenes":[{"name":"Root Scene","nodes":[0]}],"textures":[{"name":"base_color_texture","sampler":0,"source":0}]}