{"accessors":[{"bufferView":0,"byteOffset":0,"componentType":5123,"count":2916,"type":"SCALAR"},{"bufferView":1,"byteOffset":0,"componentType":5126,"count":1860,"max":[0.476724237203598,0.828628540039062,0.337562322616577],"min":[-0.49834150075912,-0.00615007104352,-0.3375623524189],"type":"VEC3"},{"bufferView":2,"byteOffset":0,"componentType":5126,"count":1860,"type":"VEC3"},{"bufferView":3,"byteOffset":0,"componentType":5126,"count":1860,"type":"VEC2"}],"asset":{"generator":"FBX2glTF v0.13.1","version":"2.0"},"bufferViews":[{"buffer":0,"byteLength":5832,"byteOffset":0,"target":34963},{"buffer":0,"byteLength":22320,"byteOffset":5832,"target":34962},{"buffer":0,"byteLength":22320,"byteOffset":28152,"target":34962},{"buffer":0,"byteLength":14880,"byteOffset":50472,"target":34962}],"buffers":[{"byteLength":65352,"uri":"SM_Anvil_01.bin"}],"images":[{"name":"Polygon_Camping_Texture_vol2.0","uri":"Polygon_Camping_Texture_vol2.0.jpg"}],"materials":[{"alphaMode":"OPAQUE","doubleSided":false,"extras":{"fromFBX":{"isTruePBR":false,"shadingModel":"Phong"}},"name":"main","pbrMetallicRoughness":{"baseColorFactor":[1,1,1,1],"baseColorTexture":{"index":0,"texCoord":0},"metallicFactor":0.400000005960464,"roughnessFactor":0.272165536880493}}],"meshes":[{"name":"SM_Anvil_01","primitives":[{"attributes":{"NORMAL":2,"POSITION":1,"TEXCOORD_0":3},"indices":0,"material":0,"mode":4}]}],"nodes":[{"mesh":0,"name":"SM_Anvil_01","rotation":[0,0,0,1],"scale":[1,1,1],"translation":[-21.6899356842041,0,0]}],"samplers":[{}],"scene":0,"scenes":[{"name":"Root Scene","nodes":[0]}],"textures":[{"name":"base_color_texture","sampler":0,"source":0}]}