{"accessors":[{"bufferView":0,"byteOffset":0,"componentType":5123,"count":44538,"type":"SCALAR"},{"bufferView":1,"byteOffset":0,"componentType":5126,"count":26946,"max":[8.57310485839844,7.72579956054688,5.24846076965332],"min":[-8.57313537597656,-0.00529551506042,-3.44132375717163],"type":"VEC3"},{"bufferView":2,"byteOffset":0,"componentType":5126,"count":26946,"type":"VEC3"},{"bufferView":3,"byteOffset":0,"componentType":5126,"count":26946,"type":"VEC2"},{"bufferView":4,"byteOffset":0,"componentType":5123,"count":720,"type":"SCALAR"},{"bufferView":5,"byteOffset":0,"componentType":5126,"count":320,"max":[5.29680728912354,2.18244194984436,2.51745438575745],"min":[-5.29683685302734,1.29961037635803,-2.50603199005127],"type":"VEC3"},{"bufferView":6,"byteOffset":0,"componentType":5126,"count":320,"type":"VEC3"},{"bufferView":7,"byteOffset":0,"componentType":5126,"count":320,"type":"VEC2"}],"asset":{"generator":"FBX2glTF v0.13.1","version":"2.0"},"bufferViews":[{"buffer":0,"byteLength":89076,"byteOffset":0,"target":34963},{"buffer":0,"byteLength":323352,"byteOffset":89076,"target":34962},{"buffer":0,"byteLength":323352,"byteOffset":412428,"target":34962},{"buffer":0,"byteLength":215568,"byteOffset":735780,"target":34962},{"buffer":0,"byteLength":1440,"byteOffset":951348,"target":34963},{"buffer":0,"byteLength":3840,"byteOffset":952788,"target":34962},{"buffer":0,"byteLength":3840,"byteOffset":956628,"target":34962},{"buffer":0,"byteLength":2560,"byteOffset":960468,"target":34962}],"buffers":[{"byteLength":963028,"uri":"SM_Build_01.bin"}],"images":[{"name":"Polygon_Camping_Texture_vol2.0","uri":"Polygon_Camping_Texture_vol2.0.jpg"}],"materials":[{"alphaMode":"OPAQUE","doubleSided":false,"extras":{"fromFBX":{"isTruePBR":false,"shadingModel":"Phong"}},"name":"main","pbrMetallicRoughness":{"baseColorFactor":[1,1,1,1],"baseColorTexture":{"index":0,"texCoord":0},"metallicFactor":0.400000005960464,"roughnessFactor":0.272165536880493}},{"alphaMode":"OPAQUE","doubleSided":false,"extras":{"fromFBX":{"isTruePBR":false,"shadingModel":"Phong"}},"name":"Glass","pbrMetallicRoughness":{"baseColorFactor":[0.149527981877327,0.800000071525574,0.800000071525574,1],"metallicFactor":0.400000005960464,"roughnessFactor":0.272165536880493}}],"meshes":[{"name":"SM_Build_01","primitives":[{"attributes":{"NORMAL":2,"POSITION":1,"TEXCOORD_0":3},"indices":0,"material":0,"mode":4},{"attributes":{"NORMAL":6,"POSITION":5,"TEXCOORD_0":7},"indices":4,"material":1,"mode":4}]}],"nodes":[{"mesh":0,"name":"SM_Build_01","rotation":[0,0,0,1],"scale":[1,1,1],"translation":[-212.253509521484,0.0052955150604248,-1.5]}],"samplers":[{}],"scene":0,"scenes":[{"name":"Root Scene","nodes":[0]}],"textures":[{"name":"base_color_texture","sampler":0,"source":0}]}