{"accessors":[{"bufferView":0,"byteOffset":0,"componentType":5123,"count":5316,"type":"SCALAR"},{"bufferView":1,"byteOffset":0,"componentType":5126,"count":3432,"max":[0.693619191646576,1.3668931722641,0.693619191646576],"min":[-0.69361919164658,-0.01851980946958,-0.69361919164658],"type":"VEC3"},{"bufferView":2,"byteOffset":0,"componentType":5126,"count":3432,"type":"VEC3"},{"bufferView":3,"byteOffset":0,"componentType":5126,"count":3432,"type":"VEC2"}],"asset":{"generator":"FBX2glTF v0.13.1","version":"2.0"},"bufferViews":[{"buffer":0,"byteLength":10632,"byteOffset":0,"target":34963},{"buffer":0,"byteLength":41184,"byteOffset":10632,"target":34962},{"buffer":0,"byteLength":41184,"byteOffset":51816,"target":34962},{"buffer":0,"byteLength":27456,"byteOffset":93000,"target":34962}],"buffers":[{"byteLength":120456,"uri":"SM_Barrel_01.bin"}],"images":[{"name":"Polygon_Camping_Texture_vol2.0","uri":"Polygon_Camping_Texture_vol2.0.jpg"}],"materials":[{"alphaMode":"OPAQUE","doubleSided":false,"extras":{"fromFBX":{"isTruePBR":false,"shadingModel":"Phong"}},"name":"main","pbrMetallicRoughness":{"baseColorFactor":[1,1,1,1],"baseColorTexture":{"index":0,"texCoord":0},"metallicFactor":0.400000005960464,"roughnessFactor":0.272165536880493}}],"meshes":[{"name":"SM_Barrel_01","primitives":[{"attributes":{"NORMAL":2,"POSITION":1,"TEXCOORD_0":3},"indices":0,"material":0,"mode":4}]}],"nodes":[{"mesh":0,"name":"SM_Barrel_01","rotation":[0,0,0,1],"scale":[1,1,1],"translation":[-17.8604316711426,0,0]}],"samplers":[{}],"scene":0,"scenes":[{"name":"Root Scene","nodes":[0]}],"textures":[{"name":"base_color_texture","sampler":0,"source":0}]}