{"accessors":[{"bufferView":0,"byteOffset":0,"componentType":5123,"count":14193,"type":"SCALAR"},{"bufferView":1,"byteOffset":0,"componentType":5126,"count":8722,"max":[5.0417537689209,7.02091217041016,4.19156742095947],"min":[-3.90017175674438,-0.00990629196167,-4.48945617675781],"type":"VEC3"},{"bufferView":2,"byteOffset":0,"componentType":5126,"count":8722,"type":"VEC3"},{"bufferView":3,"byteOffset":0,"componentType":5126,"count":8722,"type":"VEC2"},{"bufferView":4,"byteOffset":0,"componentType":5123,"count":36,"type":"SCALAR"},{"bufferView":5,"byteOffset":0,"componentType":5126,"count":24,"max":[2.35026931762695,4.01228666305542,1.29877007007599],"min":[-1.90710949897766,0.982993841171265,-3.63439106941223],"type":"VEC3"},{"bufferView":6,"byteOffset":0,"componentType":5126,"count":24,"type":"VEC3"},{"bufferView":7,"byteOffset":0,"componentType":5126,"count":24,"type":"VEC2"}],"asset":{"generator":"FBX2glTF v0.13.1","version":"2.0"},"bufferViews":[{"buffer":0,"byteLength":28386,"byteOffset":0,"target":34963},{"buffer":0,"byteLength":104664,"byteOffset":28388,"target":34962},{"buffer":0,"byteLength":104664,"byteOffset":133052,"target":34962},{"buffer":0,"byteLength":69776,"byteOffset":237716,"target":34962},{"buffer":0,"byteLength":72,"byteOffset":307492,"target":34963},{"buffer":0,"byteLength":288,"byteOffset":307564,"target":34962},{"buffer":0,"byteLength":288,"byteOffset":307852,"target":34962},{"buffer":0,"byteLength":192,"byteOffset":308140,"target":34962}],"buffers":[{"byteLength":308332,"uri":"SM_Build_04.bin"}],"images":[{"name":"Polygon_Camping_Texture_vol2.0","uri":"Polygon_Camping_Texture_vol2.0.jpg"}],"materials":[{"alphaMode":"OPAQUE","doubleSided":false,"extras":{"fromFBX":{"isTruePBR":false,"shadingModel":"Phong"}},"name":"main","pbrMetallicRoughness":{"baseColorFactor":[1,1,1,1],"baseColorTexture":{"index":0,"texCoord":0},"metallicFactor":0.400000005960464,"roughnessFactor":0.272165536880493}},{"alphaMode":"OPAQUE","doubleSided":false,"extras":{"fromFBX":{"isTruePBR":false,"shadingModel":"Phong"}},"name":"Glass","pbrMetallicRoughness":{"baseColorFactor":[0.149527981877327,0.800000071525574,0.800000071525574,1],"metallicFactor":0.400000005960464,"roughnessFactor":0.272165536880493}}],"meshes":[{"name":"SM_Build_04","primitives":[{"attributes":{"NORMAL":2,"POSITION":1,"TEXCOORD_0":3},"indices":0,"material":0,"mode":4},{"attributes":{"NORMAL":6,"POSITION":5,"TEXCOORD_0":7},"indices":4,"material":1,"mode":4}]}],"nodes":[{"mesh":0,"name":"SM_Build_04","rotation":[0,0,0,1],"scale":[1,1,1],"translation":[-173.783660888672,-0.01999998092651,0.650696456432343]}],"samplers":[{}],"scene":0,"scenes":[{"name":"Root Scene","nodes":[0]}],"textures":[{"name":"base_color_texture","sampler":0,"source":0}]}