{"accessors":[{"bufferView":0,"byteOffset":0,"componentType":5123,"count":26982,"type":"SCALAR"},{"bufferView":1,"byteOffset":0,"componentType":5126,"count":16903,"max":[4.41819095611572,9.76878356933594,5.73614358901978],"min":[-4.41819095611572,0,-5.73614358901978],"type":"VEC3"},{"bufferView":2,"byteOffset":0,"componentType":5126,"count":16903,"type":"VEC3"},{"bufferView":3,"byteOffset":0,"componentType":5126,"count":16903,"type":"VEC2"},{"bufferView":4,"byteOffset":0,"componentType":5123,"count":54,"type":"SCALAR"},{"bufferView":5,"byteOffset":0,"componentType":5126,"count":36,"max":[3.87557053565979,6.00675630569458,4.80448532104492],"min":[-3.77248001098633,1.30284070968628,-4.84695339202881],"type":"VEC3"},{"bufferView":6,"byteOffset":0,"componentType":5126,"count":36,"type":"VEC3"},{"bufferView":7,"byteOffset":0,"componentType":5126,"count":36,"type":"VEC2"}],"asset":{"generator":"FBX2glTF v0.13.1","version":"2.0"},"bufferViews":[{"buffer":0,"byteLength":53964,"byteOffset":0,"target":34963},{"buffer":0,"byteLength":202836,"byteOffset":53964,"target":34962},{"buffer":0,"byteLength":202836,"byteOffset":256800,"target":34962},{"buffer":0,"byteLength":135224,"byteOffset":459636,"target":34962},{"buffer":0,"byteLength":108,"byteOffset":594860,"target":34963},{"buffer":0,"byteLength":432,"byteOffset":594968,"target":34962},{"buffer":0,"byteLength":432,"byteOffset":595400,"target":34962},{"buffer":0,"byteLength":288,"byteOffset":595832,"target":34962}],"buffers":[{"byteLength":596120,"uri":"SM_Build_02.bin"}],"images":[{"name":"Polygon_Camping_Texture_vol2.0","uri":"Polygon_Camping_Texture_vol2.0.jpg"}],"materials":[{"alphaMode":"OPAQUE","doubleSided":false,"extras":{"fromFBX":{"isTruePBR":false,"shadingModel":"Phong"}},"name":"main","pbrMetallicRoughness":{"baseColorFactor":[1,1,1,1],"baseColorTexture":{"index":0,"texCoord":0},"metallicFactor":0.400000005960464,"roughnessFactor":0.272165536880493}},{"alphaMode":"OPAQUE","doubleSided":false,"extras":{"fromFBX":{"isTruePBR":false,"shadingModel":"Phong"}},"name":"Glass","pbrMetallicRoughness":{"baseColorFactor":[0.149527981877327,0.800000071525574,0.800000071525574,1],"metallicFactor":0.400000005960464,"roughnessFactor":0.272165536880493}}],"meshes":[{"name":"SM_Build_02","primitives":[{"attributes":{"NORMAL":2,"POSITION":1,"TEXCOORD_0":3},"indices":0,"material":0,"mode":4},{"attributes":{"NORMAL":6,"POSITION":5,"TEXCOORD_0":7},"indices":4,"material":1,"mode":4}]}],"nodes":[{"mesh":0,"name":"SM_Build_02","rotation":[0,0,0,1],"scale":[1,1,1],"translation":[-197.635223388672,0.00904083251953125,0.00000095367431640625]}],"samplers":[{}],"scene":0,"scenes":[{"name":"Root Scene","nodes":[0]}],"textures":[{"name":"base_color_texture","sampler":0,"source":0}]}