{"accessors":[{"bufferView":0,"byteOffset":0,"componentType":5123,"count":47304,"type":"SCALAR"},{"bufferView":1,"byteOffset":0,"componentType":5126,"count":34738,"max":[2.47281050682068,8.02496337890625,2.33950686454773],"min":[-2.18077158927917,-0.03969727829099,-2.29218506813049],"type":"VEC3"},{"bufferView":2,"byteOffset":0,"componentType":5126,"count":34738,"type":"VEC3"},{"bufferView":3,"byteOffset":0,"componentType":5126,"count":34738,"type":"VEC2"},{"bufferView":4,"byteOffset":0,"componentType":5123,"count":6708,"type":"SCALAR"},{"bufferView":5,"byteOffset":0,"componentType":5126,"count":4464,"max":[3.32973074913025,3.37094068527222,0.524099588394165],"min":[-2.8942494392395,-3.08962845802307,-0.03914043307304],"type":"VEC3"},{"bufferView":6,"byteOffset":0,"componentType":5126,"count":4464,"type":"VEC3"},{"bufferView":7,"byteOffset":0,"componentType":5126,"count":4464,"type":"VEC2"}],"asset":{"generator":"FBX2glTF v0.13.1","version":"2.0"},"bufferViews":[{"buffer":0,"byteLength":94608,"byteOffset":0,"target":34963},{"buffer":0,"byteLength":416856,"byteOffset":94608,"target":34962},{"buffer":0,"byteLength":416856,"byteOffset":511464,"target":34962},{"buffer":0,"byteLength":277904,"byteOffset":928320,"target":34962},{"buffer":0,"byteLength":13416,"byteOffset":1206224,"target":34963},{"buffer":0,"byteLength":53568,"byteOffset":1219640,"target":34962},{"buffer":0,"byteLength":53568,"byteOffset":1273208,"target":34962},{"buffer":0,"byteLength":35712,"byteOffset":1326776,"target":34962}],"buffers":[{"byteLength":1362488,"uri":"SM_Build_07.bin"}],"images":[{"name":"Polygon_Camping_Texture_vol2.0","uri":"Polygon_Camping_Texture_vol2.0.jpg"}],"materials":[{"alphaMode":"OPAQUE","doubleSided":false,"extras":{"fromFBX":{"isTruePBR":false,"shadingModel":"Phong"}},"name":"main","pbrMetallicRoughness":{"baseColorFactor":[1,1,1,1],"baseColorTexture":{"index":0,"texCoord":0},"metallicFactor":0.400000005960464,"roughnessFactor":0.272165536880493}}],"meshes":[{"name":"SM_Build_07_A","primitives":[{"attributes":{"NORMAL":2,"POSITION":1,"TEXCOORD_0":3},"indices":0,"material":0,"mode":4}]},{"name":"SM_Build_07_B","primitives":[{"attributes":{"NORMAL":6,"POSITION":5,"TEXCOORD_0":7},"indices":4,"material":0,"mode":4}]}],"nodes":[{"children":[1],"mesh":0,"name":"SM_Build_07_A","rotation":[0,0,0,1],"scale":[1,1,1],"translation":[-148.791046142578,-0.06189566478133,0.195710003376007]},{"mesh":1,"name":"SM_Build_07_B","rotation":[0,0,0,1],"scale":[1,1,1],"translation":[0.146015629172325,6.8050651550293,2.08876132965088]}],"samplers":[{}],"scene":0,"scenes":[{"name":"Root Scene","nodes":[0]}],"textures":[{"name":"base_color_texture","sampler":0,"source":0}]}