{"accessors":[{"bufferView":0,"byteOffset":0,"componentType":5123,"count":32232,"type":"SCALAR"},{"bufferView":1,"byteOffset":0,"componentType":5126,"count":19950,"max":[2.95707154273987,5.261146068573,4.15487813949585],"min":[-2.97907209396362,0,-4.10083723068237],"type":"VEC3"},{"bufferView":2,"byteOffset":0,"componentType":5126,"count":19950,"type":"VEC3"},{"bufferView":3,"byteOffset":0,"componentType":5126,"count":19950,"type":"VEC2"},{"bufferView":4,"byteOffset":0,"componentType":5123,"count":36,"type":"SCALAR"},{"bufferView":5,"byteOffset":0,"componentType":5126,"count":24,"max":[2.61344242095947,1.67993974685669,3.62662506103516],"min":[-2.61344242095947,0.899816036224365,-1.99495995044708],"type":"VEC3"},{"bufferView":6,"byteOffset":0,"componentType":5126,"count":24,"type":"VEC3"},{"bufferView":7,"byteOffset":0,"componentType":5126,"count":24,"type":"VEC2"}],"asset":{"generator":"FBX2glTF v0.13.1","version":"2.0"},"bufferViews":[{"buffer":0,"byteLength":64464,"byteOffset":0,"target":34963},{"buffer":0,"byteLength":239400,"byteOffset":64464,"target":34962},{"buffer":0,"byteLength":239400,"byteOffset":303864,"target":34962},{"buffer":0,"byteLength":159600,"byteOffset":543264,"target":34962},{"buffer":0,"byteLength":72,"byteOffset":702864,"target":34963},{"buffer":0,"byteLength":288,"byteOffset":702936,"target":34962},{"buffer":0,"byteLength":288,"byteOffset":703224,"target":34962},{"buffer":0,"byteLength":192,"byteOffset":703512,"target":34962}],"buffers":[{"byteLength":703704,"uri":"SM_Build_05.bin"}],"images":[{"name":"Polygon_Camping_Texture_vol2.0","uri":"Polygon_Camping_Texture_vol2.0.jpg"}],"materials":[{"alphaMode":"OPAQUE","doubleSided":false,"extras":{"fromFBX":{"isTruePBR":false,"shadingModel":"Phong"}},"name":"main","pbrMetallicRoughness":{"baseColorFactor":[1,1,1,1],"baseColorTexture":{"index":0,"texCoord":0},"metallicFactor":0.400000005960464,"roughnessFactor":0.272165536880493}},{"alphaMode":"OPAQUE","doubleSided":false,"extras":{"fromFBX":{"isTruePBR":false,"shadingModel":"Phong"}},"name":"Glass","pbrMetallicRoughness":{"baseColorFactor":[0.149527981877327,0.800000071525574,0.800000071525574,1],"metallicFactor":0.400000005960464,"roughnessFactor":0.272165536880493}}],"meshes":[{"name":"SM_Build_05","primitives":[{"attributes":{"NORMAL":2,"POSITION":1,"TEXCOORD_0":3},"indices":0,"material":0,"mode":4},{"attributes":{"NORMAL":6,"POSITION":5,"TEXCOORD_0":7},"indices":4,"material":1,"mode":4}]}],"nodes":[{"mesh":0,"name":"SM_Build_05","rotation":[0,0,0,1],"scale":[1,1,1],"translation":[-164.667434692383,0,0.0186944007873535]}],"samplers":[{}],"scene":0,"scenes":[{"name":"Root Scene","nodes":[0]}],"textures":[{"name":"base_color_texture","sampler":0,"source":0}]}