{"accessors":[{"bufferView":0,"byteOffset":0,"componentType":5123,"count":25506,"type":"SCALAR"},{"bufferView":1,"byteOffset":0,"componentType":5126,"count":15480,"max":[5.77613162994385,9.92206954956055,6.4389820098877],"min":[-7.60512733459473,-0.02495670318604,-4.9992790222168],"type":"VEC3"},{"bufferView":2,"byteOffset":0,"componentType":5126,"count":15480,"type":"VEC3"},{"bufferView":3,"byteOffset":0,"componentType":5126,"count":15480,"type":"VEC2"},{"bufferView":4,"byteOffset":0,"componentType":5123,"count":48,"type":"SCALAR"},{"bufferView":5,"byteOffset":0,"componentType":5126,"count":32,"max":[4.03537321090698,7.97961044311523,5.52499008178711],"min":[-4.01845645904541,0.923234939575195,-2.84959769248962],"type":"VEC3"},{"bufferView":6,"byteOffset":0,"componentType":5126,"count":32,"type":"VEC3"},{"bufferView":7,"byteOffset":0,"componentType":5126,"count":32,"type":"VEC2"}],"asset":{"generator":"FBX2glTF v0.13.1","version":"2.0"},"bufferViews":[{"buffer":0,"byteLength":51012,"byteOffset":0,"target":34963},{"buffer":0,"byteLength":185760,"byteOffset":51012,"target":34962},{"buffer":0,"byteLength":185760,"byteOffset":236772,"target":34962},{"buffer":0,"byteLength":123840,"byteOffset":422532,"target":34962},{"buffer":0,"byteLength":96,"byteOffset":546372,"target":34963},{"buffer":0,"byteLength":384,"byteOffset":546468,"target":34962},{"buffer":0,"byteLength":384,"byteOffset":546852,"target":34962},{"buffer":0,"byteLength":256,"byteOffset":547236,"target":34962}],"buffers":[{"byteLength":547492,"uri":"SM_Build_03.bin"}],"images":[{"name":"Polygon_Camping_Texture_vol2.0","uri":"Polygon_Camping_Texture_vol2.0.jpg"}],"materials":[{"alphaMode":"OPAQUE","doubleSided":false,"extras":{"fromFBX":{"isTruePBR":false,"shadingModel":"Phong"}},"name":"main","pbrMetallicRoughness":{"baseColorFactor":[1,1,1,1],"baseColorTexture":{"index":0,"texCoord":0},"metallicFactor":0.400000005960464,"roughnessFactor":0.272165536880493}},{"alphaMode":"OPAQUE","doubleSided":false,"extras":{"fromFBX":{"isTruePBR":false,"shadingModel":"Phong"}},"name":"Glass","pbrMetallicRoughness":{"baseColorFactor":[0.149527981877327,0.800000071525574,0.800000071525574,1],"metallicFactor":0.400000005960464,"roughnessFactor":0.272165536880493}}],"meshes":[{"name":"SM_Build_03","primitives":[{"attributes":{"NORMAL":2,"POSITION":1,"TEXCOORD_0":3},"indices":0,"material":0,"mode":4},{"attributes":{"NORMAL":6,"POSITION":5,"TEXCOORD_0":7},"indices":4,"material":1,"mode":4}]}],"nodes":[{"mesh":0,"name":"SM_Build_03","rotation":[0,0,0,1],"scale":[1,1,1],"translation":[-183.616943359375,0,-0.00000011920929]}],"samplers":[{}],"scene":0,"scenes":[{"name":"Root Scene","nodes":[0]}],"textures":[{"name":"base_color_texture","sampler":0,"source":0}]}