{"accessors":[{"bufferView":0,"byteOffset":0,"componentType":5123,"count":55602,"type":"SCALAR"},{"bufferView":1,"byteOffset":0,"componentType":5126,"count":35724,"max":[3.53963923454285,12.0880556106567,3.11595630645752],"min":[-3.56771850585938,-0.0262593459338,-10.4175205230713],"type":"VEC3"},{"bufferView":2,"byteOffset":0,"componentType":5126,"count":35724,"type":"VEC3"},{"bufferView":3,"byteOffset":0,"componentType":5126,"count":35724,"type":"VEC2"},{"bufferView":4,"byteOffset":0,"componentType":5123,"count":1296,"type":"SCALAR"},{"bufferView":5,"byteOffset":0,"componentType":5126,"count":576,"max":[2.84126114845276,2.0243706703186,0.782194972038269],"min":[-2.84126019477844,0.866446137428284,-9.97218894958496],"type":"VEC3"},{"bufferView":6,"byteOffset":0,"componentType":5126,"count":576,"type":"VEC3"},{"bufferView":7,"byteOffset":0,"componentType":5126,"count":576,"type":"VEC2"}],"asset":{"generator":"FBX2glTF v0.13.1","version":"2.0"},"bufferViews":[{"buffer":0,"byteLength":111204,"byteOffset":0,"target":34963},{"buffer":0,"byteLength":428688,"byteOffset":111204,"target":34962},{"buffer":0,"byteLength":428688,"byteOffset":539892,"target":34962},{"buffer":0,"byteLength":285792,"byteOffset":968580,"target":34962},{"buffer":0,"byteLength":2592,"byteOffset":1254372,"target":34963},{"buffer":0,"byteLength":6912,"byteOffset":1256964,"target":34962},{"buffer":0,"byteLength":6912,"byteOffset":1263876,"target":34962},{"buffer":0,"byteLength":4608,"byteOffset":1270788,"target":34962}],"buffers":[{"byteLength":1275396,"uri":"SM_Church_01.bin"}],"images":[{"name":"Polygon_Camping_Texture_vol2.0","uri":"Polygon_Camping_Texture_vol2.0.jpg"}],"materials":[{"alphaMode":"OPAQUE","doubleSided":false,"extras":{"fromFBX":{"isTruePBR":false,"shadingModel":"Phong"}},"name":"main","pbrMetallicRoughness":{"baseColorFactor":[1,1,1,1],"baseColorTexture":{"index":0,"texCoord":0},"metallicFactor":0.400000005960464,"roughnessFactor":0.272165536880493}},{"alphaMode":"OPAQUE","doubleSided":false,"extras":{"fromFBX":{"isTruePBR":false,"shadingModel":"Phong"}},"name":"Glass","pbrMetallicRoughness":{"baseColorFactor":[0.149527981877327,0.800000071525574,0.800000071525574,1],"metallicFactor":0.400000005960464,"roughnessFactor":0.272165536880493}}],"meshes":[{"name":"SM_Church_01","primitives":[{"attributes":{"NORMAL":2,"POSITION":1,"TEXCOORD_0":3},"indices":0,"material":0,"mode":4},{"attributes":{"NORMAL":6,"POSITION":5,"TEXCOORD_0":7},"indices":4,"material":1,"mode":4}]}],"nodes":[{"mesh":0,"name":"SM_Church_01","rotation":[0,0,0,1],"scale":[1,1,1],"translation":[-32.4058723449707,0,0]}],"samplers":[{}],"scene":0,"scenes":[{"name":"Root Scene","nodes":[0]}],"textures":[{"name":"base_color_texture","sampler":0,"source":0}]}