{"accessors":[{"bufferView":0,"byteOffset":0,"componentType":5123,"count":1164,"type":"SCALAR"},{"bufferView":1,"byteOffset":0,"componentType":5126,"count":764,"max":[0.322658389806747,0.0962575525045395,0.336508870124817],"min":[-0.42775255441666,-0.00000000090597,-0.44388681650162],"type":"VEC3"},{"bufferView":2,"byteOffset":0,"componentType":5126,"count":764,"type":"VEC3"},{"bufferView":3,"byteOffset":0,"componentType":5126,"count":764,"type":"VEC2"}],"asset":{"generator":"FBX2glTF v0.13.1","version":"2.0"},"bufferViews":[{"buffer":0,"byteLength":2328,"byteOffset":0,"target":34963},{"buffer":0,"byteLength":9168,"byteOffset":2328,"target":34962},{"buffer":0,"byteLength":9168,"byteOffset":11496,"target":34962},{"buffer":0,"byteLength":6112,"byteOffset":20664,"target":34962}],"buffers":[{"byteLength":26776,"uri":"SM_Camp_01.bin"}],"images":[{"name":"Polygon_Camping_Texture_vol2.0","uri":"Polygon_Camping_Texture_vol2.0.jpg"}],"materials":[{"alphaMode":"OPAQUE","doubleSided":false,"extras":{"fromFBX":{"isTruePBR":false,"shadingModel":"Phong"}},"name":"main","pbrMetallicRoughness":{"baseColorFactor":[1,1,1,1],"baseColorTexture":{"index":0,"texCoord":0},"metallicFactor":0.400000005960464,"roughnessFactor":0.272165536880493}}],"meshes":[{"name":"SM_Camp_01","primitives":[{"attributes":{"NORMAL":2,"POSITION":1,"TEXCOORD_0":3},"indices":0,"material":0,"mode":4}]}],"nodes":[{"mesh":0,"name":"SM_Camp_01","rotation":[0,0,0,1],"scale":[1,1,1],"translation":[-59.2898025512695,0,-0.00878275558352]}],"samplers":[{}],"scene":0,"scenes":[{"name":"Root Scene","nodes":[0]}],"textures":[{"name":"base_color_texture","sampler":0,"source":0}]}