{"accessors":[{"bufferView":0,"byteOffset":0,"componentType":5123,"count":1926,"type":"SCALAR"},{"bufferView":1,"byteOffset":0,"componentType":5126,"count":1242,"max":[1.02127957344055,1.66837334632874,0.179215997457504],"min":[-1.01980328559875,0,-0.15754392743111],"type":"VEC3"},{"bufferView":2,"byteOffset":0,"componentType":5126,"count":1242,"type":"VEC3"},{"bufferView":3,"byteOffset":0,"componentType":5126,"count":1242,"type":"VEC2"}],"asset":{"generator":"FBX2glTF v0.13.1","version":"2.0"},"bufferViews":[{"buffer":0,"byteLength":3852,"byteOffset":0,"target":34963},{"buffer":0,"byteLength":14904,"byteOffset":3852,"target":34962},{"buffer":0,"byteLength":14904,"byteOffset":18756,"target":34962},{"buffer":0,"byteLength":9936,"byteOffset":33660,"target":34962}],"buffers":[{"byteLength":43596,"uri":"SM_Camp_02.bin"}],"images":[{"name":"Polygon_Camping_Texture_vol2.0","uri":"Polygon_Camping_Texture_vol2.0.jpg"}],"materials":[{"alphaMode":"OPAQUE","doubleSided":false,"extras":{"fromFBX":{"isTruePBR":false,"shadingModel":"Phong"}},"name":"main","pbrMetallicRoughness":{"baseColorFactor":[1,1,1,1],"baseColorTexture":{"index":0,"texCoord":0},"metallicFactor":0.400000005960464,"roughnessFactor":0.272165536880493}}],"meshes":[{"name":"SM_Camp_02","primitives":[{"attributes":{"NORMAL":2,"POSITION":1,"TEXCOORD_0":3},"indices":0,"material":0,"mode":4}]}],"nodes":[{"mesh":0,"name":"SM_Camp_02","rotation":[0,0,0,1],"scale":[1,1,1],"translation":[-57.7658615112305,0,0]}],"samplers":[{}],"scene":0,"scenes":[{"name":"Root Scene","nodes":[0]}],"textures":[{"name":"base_color_texture","sampler":0,"source":0}]}