{"accessors":[{"bufferView":0,"byteOffset":0,"componentType":5123,"count":4308,"type":"SCALAR"},{"bufferView":1,"byteOffset":0,"componentType":5126,"count":2762,"max":[1.09471249580383,0.674739718437195,0.783432126045227],"min":[-0.92630392313003,-0.16524821519852,-0.78343212604523],"type":"VEC3"},{"bufferView":2,"byteOffset":0,"componentType":5126,"count":2762,"type":"VEC3"},{"bufferView":3,"byteOffset":0,"componentType":5126,"count":2762,"type":"VEC2"},{"bufferView":4,"byteOffset":0,"componentType":5123,"count":288,"type":"SCALAR"},{"bufferView":5,"byteOffset":0,"componentType":5126,"count":160,"max":[2.09522795677185,0.0307077169418335,0.479665666818619],"min":[-0.03442364931107,-0.03070774488151,-0.47966566681862],"type":"VEC3"},{"bufferView":6,"byteOffset":0,"componentType":5126,"count":160,"type":"VEC3"},{"bufferView":7,"byteOffset":0,"componentType":5126,"count":160,"type":"VEC2"},{"bufferView":8,"byteOffset":0,"componentType":5123,"count":4512,"type":"SCALAR"},{"bufferView":9,"byteOffset":0,"componentType":5126,"count":2924,"max":[0.366351872682571,0.367431223392487,0.659000992774963],"min":[-0.36635306477547,-0.36743387579918,-0.65900075435638],"type":"VEC3"},{"bufferView":10,"byteOffset":0,"componentType":5126,"count":2924,"type":"VEC3"},{"bufferView":11,"byteOffset":0,"componentType":5126,"count":2924,"type":"VEC2"},{"bufferView":12,"byteOffset":0,"componentType":5123,"count":4512,"type":"SCALAR"},{"bufferView":13,"byteOffset":0,"componentType":5126,"count":2930,"max":[0.365162074565887,0.368007808923721,0.659000992774963],"min":[-0.36516112089157,-0.36800500750542,-0.65900075435638],"type":"VEC3"},{"bufferView":14,"byteOffset":0,"componentType":5126,"count":2930,"type":"VEC3"},{"bufferView":15,"byteOffset":0,"componentType":5126,"count":2930,"type":"VEC2"}],"asset":{"generator":"FBX2glTF v0.13.1","version":"2.0"},"bufferViews":[{"buffer":0,"byteLength":8616,"byteOffset":0,"target":34963},{"buffer":0,"byteLength":33144,"byteOffset":8616,"target":34962},{"buffer":0,"byteLength":33144,"byteOffset":41760,"target":34962},{"buffer":0,"byteLength":22096,"byteOffset":74904,"target":34962},{"buffer":0,"byteLength":576,"byteOffset":97000,"target":34963},{"buffer":0,"byteLength":1920,"byteOffset":97576,"target":34962},{"buffer":0,"byteLength":1920,"byteOffset":99496,"target":34962},{"buffer":0,"byteLength":1280,"byteOffset":101416,"target":34962},{"buffer":0,"byteLength":9024,"byteOffset":102696,"target":34963},{"buffer":0,"byteLength":35088,"byteOffset":111720,"target":34962},{"buffer":0,"byteLength":35088,"byteOffset":146808,"target":34962},{"buffer":0,"byteLength":23392,"byteOffset":181896,"target":34962},{"buffer":0,"byteLength":9024,"byteOffset":205288,"target":34963},{"buffer":0,"byteLength":35160,"byteOffset":214312,"target":34962},{"buffer":0,"byteLength":35160,"byteOffset":249472,"target":34962},{"buffer":0,"byteLength":23440,"byteOffset":284632,"target":34962}],"buffers":[{"byteLength":308072,"uri":"SM_Cart_02.bin"}],"images":[{"name":"Polygon_Camping_Texture_vol2.0","uri":"Polygon_Camping_Texture_vol2.0.jpg"}],"materials":[{"alphaMode":"OPAQUE","doubleSided":false,"extras":{"fromFBX":{"isTruePBR":false,"shadingModel":"Phong"}},"name":"main","pbrMetallicRoughness":{"baseColorFactor":[1,1,1,1],"baseColorTexture":{"index":0,"texCoord":0},"metallicFactor":0.400000005960464,"roughnessFactor":0.272165536880493}}],"meshes":[{"name":"SM_Cart_02","primitives":[{"attributes":{"NORMAL":2,"POSITION":1,"TEXCOORD_0":3},"indices":0,"material":0,"mode":4}]},{"name":"SM_Cart_02_A","primitives":[{"attributes":{"NORMAL":6,"POSITION":5,"TEXCOORD_0":7},"indices":4,"material":0,"mode":4}]},{"name":"SM_Wheel_02_B","primitives":[{"attributes":{"NORMAL":10,"POSITION":9,"TEXCOORD_0":11},"indices":8,"material":0,"mode":4}]},{"name":"SM_Wheel_02_A","primitives":[{"attributes":{"NORMAL":14,"POSITION":13,"TEXCOORD_0":15},"indices":12,"material":0,"mode":4}]}],"nodes":[{"children":[1,2,3],"mesh":0,"name":"SM_Cart_02","rotation":[0,0,0,1],"scale":[1,1,1],"translation":[-100.848609924316,0.504311442375183,0]},{"mesh":1,"name":"SM_Cart_02_A","rotation":[0,0,0,1],"scale":[1,1,1],"translation":[0.917783200740814,-0.14489550888538,0]},{"mesh":2,"name":"SM_Wheel_02_B","rotation":[0,0,0,1],"scale":[1,1,1],"translation":[-0.75110352039337,-0.14489550888538,-0.00000010232613]},{"mesh":3,"name":"SM_Wheel_02_A","rotation":[0,0,0,1],"scale":[1,1,1],"translation":[0.917783200740814,-0.14489550888538,-0.00000010234586]}],"samplers":[{}],"scene":0,"scenes":[{"name":"Root Scene","nodes":[0]}],"textures":[{"name":"base_color_texture","sampler":0,"source":0}]}