{"accessors":[{"bufferView":0,"byteOffset":0,"componentType":5123,"count":3474,"type":"SCALAR"},{"bufferView":1,"byteOffset":0,"componentType":5126,"count":2006,"max":[1.23905003070831,0.901351749897003,0.409976720809937],"min":[-0.54386907815933,-0.10659167915583,-0.40997672080994],"type":"VEC3"},{"bufferView":2,"byteOffset":0,"componentType":5126,"count":2006,"type":"VEC3"},{"bufferView":3,"byteOffset":0,"componentType":5126,"count":2006,"type":"VEC2"},{"bufferView":4,"byteOffset":0,"componentType":5123,"count":3324,"type":"SCALAR"},{"bufferView":5,"byteOffset":0,"componentType":5126,"count":1970,"max":[0.28665292263031,0.283848136663437,0.299868255853653],"min":[-0.28620788455009,-0.28356271982193,-0.29986733198166],"type":"VEC3"},{"bufferView":6,"byteOffset":0,"componentType":5126,"count":1970,"type":"VEC3"},{"bufferView":7,"byteOffset":0,"componentType":5126,"count":1970,"type":"VEC2"},{"bufferView":8,"byteOffset":0,"componentType":5123,"count":456,"type":"SCALAR"},{"bufferView":9,"byteOffset":0,"componentType":5126,"count":272,"max":[1.7445946931839,0.0276600662618876,0.215916097164154],"min":[-0.00530342850834,-0.24625363945961,-0.22227637469768],"type":"VEC3"},{"bufferView":10,"byteOffset":0,"componentType":5126,"count":272,"type":"VEC3"},{"bufferView":11,"byteOffset":0,"componentType":5126,"count":272,"type":"VEC2"},{"bufferView":12,"byteOffset":0,"componentType":5123,"count":3324,"type":"SCALAR"},{"bufferView":13,"byteOffset":0,"componentType":5126,"count":1962,"max":[0.283646553754807,0.286504596471786,0.299868255853653],"min":[-0.28411900997162,-0.28626725077629,-0.29986733198166],"type":"VEC3"},{"bufferView":14,"byteOffset":0,"componentType":5126,"count":1962,"type":"VEC3"},{"bufferView":15,"byteOffset":0,"componentType":5126,"count":1962,"type":"VEC2"}],"asset":{"generator":"FBX2glTF v0.13.1","version":"2.0"},"bufferViews":[{"buffer":0,"byteLength":6948,"byteOffset":0,"target":34963},{"buffer":0,"byteLength":24072,"byteOffset":6948,"target":34962},{"buffer":0,"byteLength":24072,"byteOffset":31020,"target":34962},{"buffer":0,"byteLength":16048,"byteOffset":55092,"target":34962},{"buffer":0,"byteLength":6648,"byteOffset":71140,"target":34963},{"buffer":0,"byteLength":23640,"byteOffset":77788,"target":34962},{"buffer":0,"byteLength":23640,"byteOffset":101428,"target":34962},{"buffer":0,"byteLength":15760,"byteOffset":125068,"target":34962},{"buffer":0,"byteLength":912,"byteOffset":140828,"target":34963},{"buffer":0,"byteLength":3264,"byteOffset":141740,"target":34962},{"buffer":0,"byteLength":3264,"byteOffset":145004,"target":34962},{"buffer":0,"byteLength":2176,"byteOffset":148268,"target":34962},{"buffer":0,"byteLength":6648,"byteOffset":150444,"target":34963},{"buffer":0,"byteLength":23544,"byteOffset":157092,"target":34962},{"buffer":0,"byteLength":23544,"byteOffset":180636,"target":34962},{"buffer":0,"byteLength":15696,"byteOffset":204180,"target":34962}],"buffers":[{"byteLength":219876,"uri":"SM_Cart_01.bin"}],"images":[{"name":"Polygon_Camping_Texture_vol2.0","uri":"Polygon_Camping_Texture_vol2.0.jpg"}],"materials":[{"alphaMode":"OPAQUE","doubleSided":false,"extras":{"fromFBX":{"isTruePBR":false,"shadingModel":"Phong"}},"name":"main","pbrMetallicRoughness":{"baseColorFactor":[1,1,1,1],"baseColorTexture":{"index":0,"texCoord":0},"metallicFactor":0.400000005960464,"roughnessFactor":0.272165536880493}}],"meshes":[{"name":"SM_Cart_01","primitives":[{"attributes":{"NORMAL":2,"POSITION":1,"TEXCOORD_0":3},"indices":0,"material":0,"mode":4}]},{"name":"SM_Wheel_01_A","primitives":[{"attributes":{"NORMAL":6,"POSITION":5,"TEXCOORD_0":7},"indices":4,"material":0,"mode":4}]},{"name":"SM_Cart_01_A","primitives":[{"attributes":{"NORMAL":10,"POSITION":9,"TEXCOORD_0":11},"indices":8,"material":0,"mode":4}]},{"name":"SM_Wheel_01_B","primitives":[{"attributes":{"NORMAL":14,"POSITION":13,"TEXCOORD_0":15},"indices":12,"material":0,"mode":4}]}],"nodes":[{"children":[1,2,3],"mesh":0,"name":"SM_Cart_01","rotation":[0,0,0,1],"scale":[1,1,1],"translation":[-105.38956451416,0.351105362176895,0]},{"mesh":1,"name":"SM_Wheel_01_A","rotation":[0,0,0,1],"scale":[1,1,1],"translation":[1.18726563453674,-0.08228281140327,-0.00000047683716]},{"mesh":2,"name":"SM_Cart_01_A","rotation":[0,0,0,1],"scale":[1,1,1],"translation":[1.17713868618011,-0.08205612003803,0]},{"mesh":3,"name":"SM_Wheel_01_B","rotation":[0,0,0,1],"scale":[1,1,1],"translation":[-0.35610350966454,-0.0804348513484,-0.00000047683716]}],"samplers":[{}],"scene":0,"scenes":[{"name":"Root Scene","nodes":[0]}],"textures":[{"name":"base_color_texture","sampler":0,"source":0}]}