{"accessors":[{"bufferView":0,"byteOffset":0,"componentType":5123,"count":336,"type":"SCALAR"},{"bufferView":1,"byteOffset":0,"componentType":5126,"count":224,"max":[0.169733196496964,0.492090851068497,0.108079344034195],"min":[-0.24008315801621,0.00234440760686994,-0.28191518783569],"type":"VEC3"},{"bufferView":2,"byteOffset":0,"componentType":5126,"count":224,"type":"VEC3"},{"bufferView":3,"byteOffset":0,"componentType":5126,"count":224,"type":"VEC2"}],"asset":{"generator":"FBX2glTF v0.13.1","version":"2.0"},"bufferViews":[{"buffer":0,"byteLength":672,"byteOffset":0,"target":34963},{"buffer":0,"byteLength":2688,"byteOffset":672,"target":34962},{"buffer":0,"byteLength":2688,"byteOffset":3360,"target":34962},{"buffer":0,"byteLength":1792,"byteOffset":6048,"target":34962}],"buffers":[{"byteLength":7840,"uri":"SM_Foliage_03.bin"}],"images":[{"name":"Polygon_Camping_Texture_vol2.0","uri":"Polygon_Camping_Texture_vol2.0.jpg"}],"materials":[{"alphaMode":"OPAQUE","doubleSided":false,"extras":{"fromFBX":{"isTruePBR":false,"shadingModel":"Phong"}},"name":"main","pbrMetallicRoughness":{"baseColorFactor":[1,1,1,1],"baseColorTexture":{"index":0,"texCoord":0},"metallicFactor":0.400000005960464,"roughnessFactor":0.272165536880493}}],"meshes":[{"name":"SM_Foliage_03","primitives":[{"attributes":{"NORMAL":2,"POSITION":1,"TEXCOORD_0":3},"indices":0,"material":0,"mode":4}]}],"nodes":[{"mesh":0,"name":"SM_Foliage_03","rotation":[0,0,0,1],"scale":[1,1,1],"translation":[-227.324890136719,-0.00005010783934,-0.00304722297005]}],"samplers":[{}],"scene":0,"scenes":[{"name":"Root Scene","nodes":[0]}],"textures":[{"name":"base_color_texture","sampler":0,"source":0}]}