{"accessors":[{"bufferView":0,"byteOffset":0,"componentType":5123,"count":552,"type":"SCALAR"},{"bufferView":1,"byteOffset":0,"componentType":5126,"count":384,"max":[0.551063239574432,0.58316034078598,0.269759029150009],"min":[-0.4257735311985,-0.00296514481306,-0.33263346552849],"type":"VEC3"},{"bufferView":2,"byteOffset":0,"componentType":5126,"count":384,"type":"VEC3"},{"bufferView":3,"byteOffset":0,"componentType":5126,"count":384,"type":"VEC2"}],"asset":{"generator":"FBX2glTF v0.13.1","version":"2.0"},"bufferViews":[{"buffer":0,"byteLength":1104,"byteOffset":0,"target":34963},{"buffer":0,"byteLength":4608,"byteOffset":1104,"target":34962},{"buffer":0,"byteLength":4608,"byteOffset":5712,"target":34962},{"buffer":0,"byteLength":3072,"byteOffset":10320,"target":34962}],"buffers":[{"byteLength":13392,"uri":"SM_Foliage_06.bin"}],"images":[{"name":"Polygon_Camping_Texture_vol2.0","uri":"Polygon_Camping_Texture_vol2.0.jpg"}],"materials":[{"alphaMode":"OPAQUE","doubleSided":false,"extras":{"fromFBX":{"isTruePBR":false,"shadingModel":"Phong"}},"name":"main","pbrMetallicRoughness":{"baseColorFactor":[1,1,1,1],"baseColorTexture":{"index":0,"texCoord":0},"metallicFactor":0.400000005960464,"roughnessFactor":0.272165536880493}}],"meshes":[{"name":"SM_Foliage_06","primitives":[{"attributes":{"NORMAL":2,"POSITION":1,"TEXCOORD_0":3},"indices":0,"material":0,"mode":4}]}],"nodes":[{"mesh":0,"name":"SM_Foliage_06","rotation":[0,0,0,1],"scale":[1,1,1],"translation":[-225.094833374023,0.00151750445365906,-0.01794880628586]}],"samplers":[{}],"scene":0,"scenes":[{"name":"Root Scene","nodes":[0]}],"textures":[{"name":"base_color_texture","sampler":0,"source":0}]}