{"accessors":[{"bufferView":0,"byteOffset":0,"componentType":5123,"count":21888,"type":"SCALAR"},{"bufferView":1,"byteOffset":0,"componentType":5126,"count":15042,"max":[1.07157576084137,0.103801503777504,0.76031368970871],"min":[-0.76165145635605,-0.49226692318916,-0.75146961212158],"type":"VEC3"},{"bufferView":2,"byteOffset":0,"componentType":5126,"count":15042,"type":"VEC3"},{"bufferView":3,"byteOffset":0,"componentType":5126,"count":15042,"type":"VEC2"}],"asset":{"generator":"FBX2glTF v0.13.1","version":"2.0"},"bufferViews":[{"buffer":0,"byteLength":43776,"byteOffset":0,"target":34963},{"buffer":0,"byteLength":180504,"byteOffset":43776,"target":34962},{"buffer":0,"byteLength":180504,"byteOffset":224280,"target":34962},{"buffer":0,"byteLength":120336,"byteOffset":404784,"target":34962}],"buffers":[{"byteLength":525120,"uri":"SM_Forge_01.bin"}],"images":[{"name":"Polygon_Camping_Texture_vol2.0","uri":"Polygon_Camping_Texture_vol2.0.jpg"}],"materials":[{"alphaMode":"OPAQUE","doubleSided":false,"extras":{"fromFBX":{"isTruePBR":false,"shadingModel":"Phong"}},"name":"main","pbrMetallicRoughness":{"baseColorFactor":[1,1,1,1],"baseColorTexture":{"index":0,"texCoord":0},"metallicFactor":0.400000005960464,"roughnessFactor":0.272165536880493}}],"meshes":[{"name":"SM_Forge_01","primitives":[{"attributes":{"NORMAL":2,"POSITION":1,"TEXCOORD_0":3},"indices":0,"material":0,"mode":4}]}],"nodes":[{"mesh":0,"name":"SM_Forge_01","rotation":[0,0,0,1],"scale":[1,1,1],"translation":[-19.9620494842529,0.415573298931122,0]}],"samplers":[{}],"scene":0,"scenes":[{"name":"Root Scene","nodes":[0]}],"textures":[{"name":"base_color_texture","sampler":0,"source":0}]}