{"accessors":[{"bufferView":0,"byteOffset":0,"componentType":5123,"count":744,"type":"SCALAR"},{"bufferView":1,"byteOffset":0,"componentType":5126,"count":476,"max":[0.628617286682129,0.598442792892456,0.411994159221649],"min":[-0.63069373369217,-0.00634479522705,-0.41414403915405],"type":"VEC3"},{"bufferView":2,"byteOffset":0,"componentType":5126,"count":476,"type":"VEC3"},{"bufferView":3,"byteOffset":0,"componentType":5126,"count":476,"type":"VEC2"}],"asset":{"generator":"FBX2glTF v0.13.1","version":"2.0"},"bufferViews":[{"buffer":0,"byteLength":1488,"byteOffset":0,"target":34963},{"buffer":0,"byteLength":5712,"byteOffset":1488,"target":34962},{"buffer":0,"byteLength":5712,"byteOffset":7200,"target":34962},{"buffer":0,"byteLength":3808,"byteOffset":12912,"target":34962}],"buffers":[{"byteLength":16720,"uri":"SM_Forge_02_C.bin"}],"images":[{"name":"Polygon_Camping_Texture_vol2.0","uri":"Polygon_Camping_Texture_vol2.0.jpg"}],"materials":[{"alphaMode":"OPAQUE","doubleSided":false,"extras":{"fromFBX":{"isTruePBR":false,"shadingModel":"Phong"}},"name":"main","pbrMetallicRoughness":{"baseColorFactor":[1,1,1,1],"baseColorTexture":{"index":0,"texCoord":0},"metallicFactor":0.400000005960464,"roughnessFactor":0.272165536880493}}],"meshes":[{"name":"SM_Forge_02_C","primitives":[{"attributes":{"NORMAL":2,"POSITION":1,"TEXCOORD_0":3},"indices":0,"material":0,"mode":4}]}],"nodes":[{"mesh":0,"name":"SM_Forge_02_C","rotation":[0,0,0,1],"scale":[1,1,1],"translation":[-11.8853912353516,3.41011905670166,-0.07089076936245]}],"samplers":[{}],"scene":0,"scenes":[{"name":"Root Scene","nodes":[0]}],"textures":[{"name":"base_color_texture","sampler":0,"source":0}]}