{"accessors":[{"bufferView":0,"byteOffset":0,"componentType":5123,"count":5700,"type":"SCALAR"},{"bufferView":1,"byteOffset":0,"componentType":5126,"count":3546,"max":[0.101047195494175,1.74954986572266,0.47797304391861],"min":[-0.84204357862473,-0.00506348768249,-0.24356611073017],"type":"VEC3"},{"bufferView":2,"byteOffset":0,"componentType":5126,"count":3546,"type":"VEC3"},{"bufferView":3,"byteOffset":0,"componentType":5126,"count":3546,"type":"VEC2"}],"asset":{"generator":"FBX2glTF v0.13.1","version":"2.0"},"bufferViews":[{"buffer":0,"byteLength":11400,"byteOffset":0,"target":34963},{"buffer":0,"byteLength":42552,"byteOffset":11400,"target":34962},{"buffer":0,"byteLength":42552,"byteOffset":53952,"target":34962},{"buffer":0,"byteLength":28368,"byteOffset":96504,"target":34962}],"buffers":[{"byteLength":124872,"uri":"SM_Foliage_02.bin"}],"images":[{"name":"Polygon_Camping_Texture_vol2.0","uri":"Polygon_Camping_Texture_vol2.0.jpg"}],"materials":[{"alphaMode":"OPAQUE","doubleSided":false,"extras":{"fromFBX":{"isTruePBR":false,"shadingModel":"Phong"}},"name":"main","pbrMetallicRoughness":{"baseColorFactor":[1,1,1,1],"baseColorTexture":{"index":0,"texCoord":0},"metallicFactor":0.400000005960464,"roughnessFactor":0.272165536880493}}],"meshes":[{"name":"SM_Foliage_02","primitives":[{"attributes":{"NORMAL":2,"POSITION":1,"TEXCOORD_0":3},"indices":0,"material":0,"mode":4}]}],"nodes":[{"mesh":0,"name":"SM_Foliage_02","rotation":[0,0,0,1],"scale":[1,1,1],"translation":[-228.836395263672,0,0]}],"samplers":[{}],"scene":0,"scenes":[{"name":"Root Scene","nodes":[0]}],"textures":[{"name":"base_color_texture","sampler":0,"source":0}]}