{"accessors":[{"bufferView":0,"byteOffset":0,"componentType":5123,"count":3948,"type":"SCALAR"},{"bufferView":1,"byteOffset":0,"componentType":5126,"count":2582,"max":[2.00059938430786,4.80728816986084,0.25804814696312],"min":[-2.00059151649475,0,-0.17120084166527],"type":"VEC3"},{"bufferView":2,"byteOffset":0,"componentType":5126,"count":2582,"type":"VEC3"},{"bufferView":3,"byteOffset":0,"componentType":5126,"count":2582,"type":"VEC2"}],"asset":{"generator":"FBX2glTF v0.13.1","version":"2.0"},"bufferViews":[{"buffer":0,"byteLength":7896,"byteOffset":0,"target":34963},{"buffer":0,"byteLength":30984,"byteOffset":7896,"target":34962},{"buffer":0,"byteLength":30984,"byteOffset":38880,"target":34962},{"buffer":0,"byteLength":20656,"byteOffset":69864,"target":34962}],"buffers":[{"byteLength":90520,"uri":"SM_Fence_03.bin"}],"images":[{"name":"Polygon_Camping_Texture_vol2.0","uri":"Polygon_Camping_Texture_vol2.0.jpg"}],"materials":[{"alphaMode":"OPAQUE","doubleSided":false,"extras":{"fromFBX":{"isTruePBR":false,"shadingModel":"Phong"}},"name":"main","pbrMetallicRoughness":{"baseColorFactor":[1,1,1,1],"baseColorTexture":{"index":0,"texCoord":0},"metallicFactor":0.400000005960464,"roughnessFactor":0.272165536880493}}],"meshes":[{"name":"SM_Fence_03","primitives":[{"attributes":{"NORMAL":2,"POSITION":1,"TEXCOORD_0":3},"indices":0,"material":0,"mode":4}]}],"nodes":[{"mesh":0,"name":"SM_Fence_03","rotation":[0,0,0,1],"scale":[1,1,1],"translation":[-134.170349121094,0,0.00051057338714599]}],"samplers":[{}],"scene":0,"scenes":[{"name":"Root Scene","nodes":[0]}],"textures":[{"name":"base_color_texture","sampler":0,"source":0}]}