{"accessors":[{"bufferView":0,"byteOffset":0,"componentType":5123,"count":438,"type":"SCALAR"},{"bufferView":1,"byteOffset":0,"componentType":5126,"count":278,"max":[1.34090113639832,0.331514269113541,0.901822626590729],"min":[-1.37002909183502,-0.01447432488203,-0.9441425204277],"type":"VEC3"},{"bufferView":2,"byteOffset":0,"componentType":5126,"count":278,"type":"VEC3"},{"bufferView":3,"byteOffset":0,"componentType":5126,"count":278,"type":"VEC2"}],"asset":{"generator":"FBX2glTF v0.13.1","version":"2.0"},"bufferViews":[{"buffer":0,"byteLength":876,"byteOffset":0,"target":34963},{"buffer":0,"byteLength":3336,"byteOffset":876,"target":34962},{"buffer":0,"byteLength":3336,"byteOffset":4212,"target":34962},{"buffer":0,"byteLength":2224,"byteOffset":7548,"target":34962}],"buffers":[{"byteLength":9772,"uri":"SM_Forge_02_B.bin"}],"images":[{"name":"Polygon_Camping_Texture_vol2.0","uri":"Polygon_Camping_Texture_vol2.0.jpg"}],"materials":[{"alphaMode":"OPAQUE","doubleSided":false,"extras":{"fromFBX":{"isTruePBR":false,"shadingModel":"Phong"}},"name":"main","pbrMetallicRoughness":{"baseColorFactor":[1,1,1,1],"baseColorTexture":{"index":0,"texCoord":0},"metallicFactor":0.400000005960464,"roughnessFactor":0.272165536880493}}],"meshes":[{"name":"SM_Forge_02_B","primitives":[{"attributes":{"NORMAL":2,"POSITION":1,"TEXCOORD_0":3},"indices":0,"material":0,"mode":4}]}],"nodes":[{"mesh":0,"name":"SM_Forge_02_B","rotation":[0,0,0,1],"scale":[1,1,1],"translation":[-11.8400325775146,2.76215887069702,0.316909044981003]}],"samplers":[{}],"scene":0,"scenes":[{"name":"Root Scene","nodes":[0]}],"textures":[{"name":"base_color_texture","sampler":0,"source":0}]}