{"accessors":[{"bufferView":0,"byteOffset":0,"componentType":5123,"count":1806,"type":"SCALAR"},{"bufferView":1,"byteOffset":0,"componentType":5126,"count":1150,"max":[1.35088539123535,0.505858361721039,0.22763404250145],"min":[-1.56138467788696,-0.01974059455097,-0.24275988340378],"type":"VEC3"},{"bufferView":2,"byteOffset":0,"componentType":5126,"count":1150,"type":"VEC3"},{"bufferView":3,"byteOffset":0,"componentType":5126,"count":1150,"type":"VEC2"}],"asset":{"generator":"FBX2glTF v0.13.1","version":"2.0"},"bufferViews":[{"buffer":0,"byteLength":3612,"byteOffset":0,"target":34963},{"buffer":0,"byteLength":13800,"byteOffset":3612,"target":34962},{"buffer":0,"byteLength":13800,"byteOffset":17412,"target":34962},{"buffer":0,"byteLength":9200,"byteOffset":31212,"target":34962}],"buffers":[{"byteLength":40412,"uri":"SM_Foliage_07.bin"}],"images":[{"name":"Polygon_Camping_Texture_vol2.0","uri":"Polygon_Camping_Texture_vol2.0.jpg"}],"materials":[{"alphaMode":"OPAQUE","doubleSided":false,"extras":{"fromFBX":{"isTruePBR":false,"shadingModel":"Phong"}},"name":"main","pbrMetallicRoughness":{"baseColorFactor":[1,1,1,1],"baseColorTexture":{"index":0,"texCoord":0},"metallicFactor":0.400000005960464,"roughnessFactor":0.272165536880493}}],"meshes":[{"name":"SM_Foliage_07","primitives":[{"attributes":{"NORMAL":2,"POSITION":1,"TEXCOORD_0":3},"indices":0,"material":0,"mode":4}]}],"nodes":[{"mesh":0,"name":"SM_Foliage_07","rotation":[0,0,0,1],"scale":[1,1,1],"translation":[-223.293518066406,0.0190531145781279,-0.01166471093893]}],"samplers":[{}],"scene":0,"scenes":[{"name":"Root Scene","nodes":[0]}],"textures":[{"name":"base_color_texture","sampler":0,"source":0}]}