{"accessors":[{"bufferView":0,"byteOffset":0,"componentType":5123,"count":378,"type":"SCALAR"},{"bufferView":1,"byteOffset":0,"componentType":5126,"count":224,"max":[1.38594603538513,1.39999997615814,0.0763733386993408],"min":[-0.07637333869934,-0.00000001256877,-0.07637333869934],"type":"VEC3"},{"bufferView":2,"byteOffset":0,"componentType":5126,"count":224,"type":"VEC3"},{"bufferView":3,"byteOffset":0,"componentType":5126,"count":224,"type":"VEC2"}],"asset":{"generator":"FBX2glTF v0.13.1","version":"2.0"},"bufferViews":[{"buffer":0,"byteLength":756,"byteOffset":0,"target":34963},{"buffer":0,"byteLength":2688,"byteOffset":756,"target":34962},{"buffer":0,"byteLength":2688,"byteOffset":3444,"target":34962},{"buffer":0,"byteLength":1792,"byteOffset":6132,"target":34962}],"buffers":[{"byteLength":7924,"uri":"SM_Fence_05.bin"}],"images":[{"name":"Polygon_Camping_Texture_vol2.0","uri":"Polygon_Camping_Texture_vol2.0.jpg"}],"materials":[{"alphaMode":"OPAQUE","doubleSided":false,"extras":{"fromFBX":{"isTruePBR":false,"shadingModel":"Phong"}},"name":"main","pbrMetallicRoughness":{"baseColorFactor":[1,1,1,1],"baseColorTexture":{"index":0,"texCoord":0},"metallicFactor":0.400000005960464,"roughnessFactor":0.272165536880493}}],"meshes":[{"name":"SM_Fence_05","primitives":[{"attributes":{"NORMAL":2,"POSITION":1,"TEXCOORD_0":3},"indices":0,"material":0,"mode":4}]}],"nodes":[{"mesh":0,"name":"SM_Fence_05","rotation":[0,0,0,1],"scale":[1,1,1],"translation":[-65.9489212036133,0,1.29557704925537]}],"samplers":[{}],"scene":0,"scenes":[{"name":"Root Scene","nodes":[0]}],"textures":[{"name":"base_color_texture","sampler":0,"source":0}]}