{"accessors":[{"bufferView":0,"byteOffset":0,"componentType":5123,"count":540,"type":"SCALAR"},{"bufferView":1,"byteOffset":0,"componentType":5126,"count":472,"max":[1.40508556365967,4.20149230957031,0.999999821186066],"min":[-1.09256827831268,-0.00000023841858,-0.99999988079071],"type":"VEC3"},{"bufferView":2,"byteOffset":0,"componentType":5126,"count":472,"type":"VEC3"},{"bufferView":3,"byteOffset":0,"componentType":5126,"count":472,"type":"VEC2"}],"asset":{"generator":"FBX2glTF v0.13.1","version":"2.0"},"bufferViews":[{"buffer":0,"byteLength":1080,"byteOffset":0,"target":34963},{"buffer":0,"byteLength":5664,"byteOffset":1080,"target":34962},{"buffer":0,"byteLength":5664,"byteOffset":6744,"target":34962},{"buffer":0,"byteLength":3776,"byteOffset":12408,"target":34962}],"buffers":[{"byteLength":16184,"uri":"SM_Ground_04_H.bin"}],"images":[{"name":"Polygon_Camping_Texture_vol2.0","uri":"Polygon_Camping_Texture_vol2.0.jpg"}],"materials":[{"alphaMode":"OPAQUE","doubleSided":false,"extras":{"fromFBX":{"isTruePBR":false,"shadingModel":"Phong"}},"name":"main","pbrMetallicRoughness":{"baseColorFactor":[1,1,1,1],"baseColorTexture":{"index":0,"texCoord":0},"metallicFactor":0.400000005960464,"roughnessFactor":0.272165536880493}}],"meshes":[{"name":"SM_Ground_04_H","primitives":[{"attributes":{"NORMAL":2,"POSITION":1,"TEXCOORD_0":3},"indices":0,"material":0,"mode":4}]}],"nodes":[{"mesh":0,"name":"SM_Ground_04_H","rotation":[0,0,0,1],"scale":[1,1,1],"translation":[-336.172088623047,-2.01072311401367,-0.00000001490116]}],"samplers":[{}],"scene":0,"scenes":[{"name":"Root Scene","nodes":[0]}],"textures":[{"name":"base_color_texture","sampler":0,"source":0}]}