{"accessors":[{"bufferView":0,"byteOffset":0,"componentType":5123,"count":1698,"type":"SCALAR"},{"bufferView":1,"byteOffset":0,"componentType":5126,"count":1554,"max":[2.00428342819214,0.564037084579468,3.1047956943512],"min":[-2.00424861907959,0,-3.1047956943512],"type":"VEC3"},{"bufferView":2,"byteOffset":0,"componentType":5126,"count":1554,"type":"VEC3"},{"bufferView":3,"byteOffset":0,"componentType":5126,"count":1554,"type":"VEC2"}],"asset":{"generator":"FBX2glTF v0.13.1","version":"2.0"},"bufferViews":[{"buffer":0,"byteLength":3396,"byteOffset":0,"target":34963},{"buffer":0,"byteLength":18648,"byteOffset":3396,"target":34962},{"buffer":0,"byteLength":18648,"byteOffset":22044,"target":34962},{"buffer":0,"byteLength":12432,"byteOffset":40692,"target":34962}],"buffers":[{"byteLength":53124,"uri":"SM_Ground_06_C.bin"}],"images":[{"name":"Polygon_Camping_Texture_vol2.0","uri":"Polygon_Camping_Texture_vol2.0.jpg"}],"materials":[{"alphaMode":"OPAQUE","doubleSided":false,"extras":{"fromFBX":{"isTruePBR":false,"shadingModel":"Phong"}},"name":"main","pbrMetallicRoughness":{"baseColorFactor":[1,1,1,1],"baseColorTexture":{"index":0,"texCoord":0},"metallicFactor":0.400000005960464,"roughnessFactor":0.272165536880493}}],"meshes":[{"name":"SM_Ground_06_C","primitives":[{"attributes":{"NORMAL":2,"POSITION":1,"TEXCOORD_0":3},"indices":0,"material":0,"mode":4}]}],"nodes":[{"mesh":0,"name":"SM_Ground_06_C","rotation":[0,0,0,1],"scale":[1,1,1],"translation":[-318.158874511719,-0.03978184238076,-1.51798915863037]}],"samplers":[{}],"scene":0,"scenes":[{"name":"Root Scene","nodes":[0]}],"textures":[{"name":"base_color_texture","sampler":0,"source":0}]}