{"accessors":[{"bufferView":0,"byteOffset":0,"componentType":5123,"count":2952,"type":"SCALAR"},{"bufferView":1,"byteOffset":0,"componentType":5126,"count":1775,"max":[1.17993712425232,1.20301079750061,0.609214961528778],"min":[-0.90430128574371,-0.44118148088455,-0.60921496152878],"type":"VEC3"},{"bufferView":2,"byteOffset":0,"componentType":5126,"count":1775,"type":"VEC3"},{"bufferView":3,"byteOffset":0,"componentType":5126,"count":1775,"type":"VEC2"},{"bufferView":4,"byteOffset":0,"componentType":5123,"count":732,"type":"SCALAR"},{"bufferView":5,"byteOffset":0,"componentType":5126,"count":466,"max":[0.329037517309189,0.332466036081314,0.13755752146244],"min":[-0.32784694433212,-0.33142995834351,-0.1368263065815],"type":"VEC3"},{"bufferView":6,"byteOffset":0,"componentType":5126,"count":466,"type":"VEC3"},{"bufferView":7,"byteOffset":0,"componentType":5126,"count":466,"type":"VEC2"}],"asset":{"generator":"FBX2glTF v0.13.1","version":"2.0"},"bufferViews":[{"buffer":0,"byteLength":5904,"byteOffset":0,"target":34963},{"buffer":0,"byteLength":21300,"byteOffset":5904,"target":34962},{"buffer":0,"byteLength":21300,"byteOffset":27204,"target":34962},{"buffer":0,"byteLength":14200,"byteOffset":48504,"target":34962},{"buffer":0,"byteLength":1464,"byteOffset":62704,"target":34963},{"buffer":0,"byteLength":5592,"byteOffset":64168,"target":34962},{"buffer":0,"byteLength":5592,"byteOffset":69760,"target":34962},{"buffer":0,"byteLength":3728,"byteOffset":75352,"target":34962}],"buffers":[{"byteLength":79080,"uri":"SM_Grinder_01.bin"}],"images":[{"name":"Polygon_Camping_Texture_vol2.0","uri":"Polygon_Camping_Texture_vol2.0.jpg"}],"materials":[{"alphaMode":"OPAQUE","doubleSided":false,"extras":{"fromFBX":{"isTruePBR":false,"shadingModel":"Phong"}},"name":"main","pbrMetallicRoughness":{"baseColorFactor":[1,1,1,1],"baseColorTexture":{"index":0,"texCoord":0},"metallicFactor":0.400000005960464,"roughnessFactor":0.272165536880493}}],"meshes":[{"name":"SM_Grinder_01","primitives":[{"attributes":{"NORMAL":2,"POSITION":1,"TEXCOORD_0":3},"indices":0,"material":0,"mode":4}]},{"name":"SM_Grinder_Wheel","primitives":[{"attributes":{"NORMAL":6,"POSITION":5,"TEXCOORD_0":7},"indices":4,"material":0,"mode":4}]}],"nodes":[{"children":[1],"mesh":0,"name":"SM_Grinder_01","rotation":[0,0,0,1],"scale":[1,1,1],"translation":[-15.8941879272461,0.426554203033447,0]},{"mesh":1,"name":"SM_Grinder_Wheel","rotation":[0,0,0,1],"scale":[1,1,1],"translation":[0.26216185092926,1.00077724456787,0]}],"samplers":[{}],"scene":0,"scenes":[{"name":"Root Scene","nodes":[0]}],"textures":[{"name":"base_color_texture","sampler":0,"source":0}]}