{"accessors":[{"bufferView":0,"byteOffset":0,"componentType":5123,"count":582,"type":"SCALAR"},{"bufferView":1,"byteOffset":0,"componentType":5126,"count":520,"max":[0.999999821186066,4.28846549987793,1.08948683738708],"min":[-0.99999982118607,-0.00000023841858,-1.6358528137207],"type":"VEC3"},{"bufferView":2,"byteOffset":0,"componentType":5126,"count":520,"type":"VEC3"},{"bufferView":3,"byteOffset":0,"componentType":5126,"count":520,"type":"VEC2"}],"asset":{"generator":"FBX2glTF v0.13.1","version":"2.0"},"bufferViews":[{"buffer":0,"byteLength":1164,"byteOffset":0,"target":34963},{"buffer":0,"byteLength":6240,"byteOffset":1164,"target":34962},{"buffer":0,"byteLength":6240,"byteOffset":7404,"target":34962},{"buffer":0,"byteLength":4160,"byteOffset":13644,"target":34962}],"buffers":[{"byteLength":17804,"uri":"SM_Ground_04_D.bin"}],"images":[{"name":"Polygon_Camping_Texture_vol2.0","uri":"Polygon_Camping_Texture_vol2.0.jpg"}],"materials":[{"alphaMode":"OPAQUE","doubleSided":false,"extras":{"fromFBX":{"isTruePBR":false,"shadingModel":"Phong"}},"name":"main","pbrMetallicRoughness":{"baseColorFactor":[1,1,1,1],"baseColorTexture":{"index":0,"texCoord":0},"metallicFactor":0.400000005960464,"roughnessFactor":0.272165536880493}}],"meshes":[{"name":"SM_Ground_04_D","primitives":[{"attributes":{"NORMAL":2,"POSITION":1,"TEXCOORD_0":3},"indices":0,"material":0,"mode":4}]}],"nodes":[{"mesh":0,"name":"SM_Ground_04_D","rotation":[0,0,0,1],"scale":[1,1,1],"translation":[-346.860656738281,-2.01072311401367,-2.08948659896851]}],"samplers":[{}],"scene":0,"scenes":[{"name":"Root Scene","nodes":[0]}],"textures":[{"name":"base_color_texture","sampler":0,"source":0}]}