{"accessors":[{"bufferView":0,"byteOffset":0,"componentType":5123,"count":1074,"type":"SCALAR"},{"bufferView":1,"byteOffset":0,"componentType":5126,"count":972,"max":[0.65224415063858,0.167474702000618,2.08995723724365],"min":[-0.6522501707077,0,-2.08995723724365],"type":"VEC3"},{"bufferView":2,"byteOffset":0,"componentType":5126,"count":972,"type":"VEC3"},{"bufferView":3,"byteOffset":0,"componentType":5126,"count":972,"type":"VEC2"}],"asset":{"generator":"FBX2glTF v0.13.1","version":"2.0"},"bufferViews":[{"buffer":0,"byteLength":2148,"byteOffset":0,"target":34963},{"buffer":0,"byteLength":11664,"byteOffset":2148,"target":34962},{"buffer":0,"byteLength":11664,"byteOffset":13812,"target":34962},{"buffer":0,"byteLength":7776,"byteOffset":25476,"target":34962}],"buffers":[{"byteLength":33252,"uri":"SM_Ground_06_B.bin"}],"images":[{"name":"Polygon_Camping_Texture_vol2.0","uri":"Polygon_Camping_Texture_vol2.0.jpg"}],"materials":[{"alphaMode":"OPAQUE","doubleSided":false,"extras":{"fromFBX":{"isTruePBR":false,"shadingModel":"Phong"}},"name":"main","pbrMetallicRoughness":{"baseColorFactor":[1,1,1,1],"baseColorTexture":{"index":0,"texCoord":0},"metallicFactor":0.400000005960464,"roughnessFactor":0.272165536880493}}],"meshes":[{"name":"SM_Ground_06_B","primitives":[{"attributes":{"NORMAL":2,"POSITION":1,"TEXCOORD_0":3},"indices":0,"material":0,"mode":4}]}],"nodes":[{"mesh":0,"name":"SM_Ground_06_B","rotation":[0,0,0,1],"scale":[1,1,1],"translation":[-321.174194335938,-0.03037687204778,-1.12609624862671]}],"samplers":[{}],"scene":0,"scenes":[{"name":"Root Scene","nodes":[0]}],"textures":[{"name":"base_color_texture","sampler":0,"source":0}]}