{"accessors":[{"bufferView":0,"byteOffset":0,"componentType":5123,"count":810,"type":"SCALAR"},{"bufferView":1,"byteOffset":0,"componentType":5126,"count":634,"max":[1.90488922595978,3.13153338432312,1.84892404079437],"min":[-1.85530984401703,-0.03765272349119,-1.85990798473358],"type":"VEC3"},{"bufferView":2,"byteOffset":0,"componentType":5126,"count":634,"type":"VEC3"},{"bufferView":3,"byteOffset":0,"componentType":5126,"count":634,"type":"VEC2"}],"asset":{"generator":"FBX2glTF v0.13.1","version":"2.0"},"bufferViews":[{"buffer":0,"byteLength":1620,"byteOffset":0,"target":34963},{"buffer":0,"byteLength":7608,"byteOffset":1620,"target":34962},{"buffer":0,"byteLength":7608,"byteOffset":9228,"target":34962},{"buffer":0,"byteLength":5072,"byteOffset":16836,"target":34962}],"buffers":[{"byteLength":21908,"uri":"SM_Haystack_01.bin"}],"images":[{"name":"Polygon_Camping_Texture_vol2.0","uri":"Polygon_Camping_Texture_vol2.0.jpg"}],"materials":[{"alphaMode":"OPAQUE","doubleSided":false,"extras":{"fromFBX":{"isTruePBR":false,"shadingModel":"Phong"}},"name":"main","pbrMetallicRoughness":{"baseColorFactor":[1,1,1,1],"baseColorTexture":{"index":0,"texCoord":0},"metallicFactor":0.400000005960464,"roughnessFactor":0.272165536880493}}],"meshes":[{"name":"SM_Haystack_01","primitives":[{"attributes":{"NORMAL":2,"POSITION":1,"TEXCOORD_0":3},"indices":0,"material":0,"mode":4}]}],"nodes":[{"mesh":0,"name":"SM_Haystack_01","rotation":[0,0,0,1],"scale":[1,1,1],"translation":[-70.3096618652344,0,0]}],"samplers":[{}],"scene":0,"scenes":[{"name":"Root Scene","nodes":[0]}],"textures":[{"name":"base_color_texture","sampler":0,"source":0}]}