{"accessors":[{"bufferView":0,"byteOffset":0,"componentType":5123,"count":52554,"type":"SCALAR"},{"bufferView":1,"byteOffset":0,"componentType":5126,"count":34878,"max":[3.41630220413208,13.9571752548218,3.16809177398682],"min":[-4.68808746337891,-0.00180800259113,-4.81083822250366],"type":"VEC3"},{"bufferView":2,"byteOffset":0,"componentType":5126,"count":34878,"type":"VEC3"},{"bufferView":3,"byteOffset":0,"componentType":5126,"count":34878,"type":"VEC2"},{"bufferView":4,"byteOffset":0,"componentType":5123,"count":618,"type":"SCALAR"},{"bufferView":5,"byteOffset":0,"componentType":5126,"count":400,"max":[0.100022606551647,12.5376605987549,-3.21219038963318],"min":[-0.09571233391762,12.0375280380249,-3.40792560577393],"type":"VEC3"},{"bufferView":6,"byteOffset":0,"componentType":5126,"count":400,"type":"VEC3"},{"bufferView":7,"byteOffset":0,"componentType":5126,"count":400,"type":"VEC2"}],"asset":{"generator":"FBX2glTF v0.13.1","version":"2.0"},"bufferViews":[{"buffer":0,"byteLength":105108,"byteOffset":0,"target":34963},{"buffer":0,"byteLength":418536,"byteOffset":105108,"target":34962},{"buffer":0,"byteLength":418536,"byteOffset":523644,"target":34962},{"buffer":0,"byteLength":279024,"byteOffset":942180,"target":34962},{"buffer":0,"byteLength":1236,"byteOffset":1221204,"target":34963},{"buffer":0,"byteLength":4800,"byteOffset":1222440,"target":34962},{"buffer":0,"byteLength":4800,"byteOffset":1227240,"target":34962},{"buffer":0,"byteLength":3200,"byteOffset":1232040,"target":34962}],"buffers":[{"byteLength":1235240,"uri":"SM_Lighthouse_01.bin"}],"images":[{"name":"Polygon_Camping_Texture_vol2.0","uri":"Polygon_Camping_Texture_vol2.0.jpg"}],"materials":[{"alphaMode":"OPAQUE","doubleSided":false,"extras":{"fromFBX":{"isTruePBR":false,"shadingModel":"Phong"}},"name":"main","pbrMetallicRoughness":{"baseColorFactor":[1,1,1,1],"baseColorTexture":{"index":0,"texCoord":0},"metallicFactor":0.400000005960464,"roughnessFactor":0.272165536880493}},{"alphaMode":"OPAQUE","doubleSided":false,"extras":{"fromFBX":{"isTruePBR":false,"shadingModel":"Phong"}},"name":"Glass","pbrMetallicRoughness":{"baseColorFactor":[0.149527981877327,0.800000071525574,0.800000071525574,1],"metallicFactor":0.400000005960464,"roughnessFactor":0.272165536880493}}],"meshes":[{"name":"SM_Lighthouse_01","primitives":[{"attributes":{"NORMAL":2,"POSITION":1,"TEXCOORD_0":3},"indices":0,"material":0,"mode":4},{"attributes":{"NORMAL":6,"POSITION":5,"TEXCOORD_0":7},"indices":4,"material":1,"mode":4}]}],"nodes":[{"mesh":0,"name":"SM_Lighthouse_01","rotation":[0,0,0,1],"scale":[1,1,1],"translation":[-110.616401672363,0,0.00052833557128906]}],"samplers":[{}],"scene":0,"scenes":[{"name":"Root Scene","nodes":[0]}],"textures":[{"name":"base_color_texture","sampler":0,"source":0}]}