{"accessors":[{"bufferView":0,"byteOffset":0,"componentType":5123,"count":234,"type":"SCALAR"},{"bufferView":1,"byteOffset":0,"componentType":5126,"count":166,"max":[2.2025408744812,0.52154415845871,1.10944139957428],"min":[-2.23169612884521,0,-1.10944139957428],"type":"VEC3"},{"bufferView":2,"byteOffset":0,"componentType":5126,"count":166,"type":"VEC3"},{"bufferView":3,"byteOffset":0,"componentType":5126,"count":166,"type":"VEC2"}],"asset":{"generator":"FBX2glTF v0.13.1","version":"2.0"},"bufferViews":[{"buffer":0,"byteLength":468,"byteOffset":0,"target":34963},{"buffer":0,"byteLength":1992,"byteOffset":468,"target":34962},{"buffer":0,"byteLength":1992,"byteOffset":2460,"target":34962},{"buffer":0,"byteLength":1328,"byteOffset":4452,"target":34962}],"buffers":[{"byteLength":5780,"uri":"SM_Rock_04.bin"}],"images":[{"name":"Polygon_Camping_Texture_vol2.0","uri":"Polygon_Camping_Texture_vol2.0.jpg"}],"materials":[{"alphaMode":"OPAQUE","doubleSided":false,"extras":{"fromFBX":{"isTruePBR":false,"shadingModel":"Phong"}},"name":"main","pbrMetallicRoughness":{"baseColorFactor":[1,1,1,1],"baseColorTexture":{"index":0,"texCoord":0},"metallicFactor":0.400000005960464,"roughnessFactor":0.272165536880493}}],"meshes":[{"name":"SM_Rock_04","primitives":[{"attributes":{"NORMAL":2,"POSITION":1,"TEXCOORD_0":3},"indices":0,"material":0,"mode":4}]}],"nodes":[{"mesh":0,"name":"SM_Rock_04","rotation":[0,0,0,1],"scale":[1,1,1],"translation":[-293.001495361328,-0.05068717896938,0.0636307001113892]}],"samplers":[{}],"scene":0,"scenes":[{"name":"Root Scene","nodes":[0]}],"textures":[{"name":"base_color_texture","sampler":0,"source":0}]}