{"accessors":[{"bufferView":0,"byteOffset":0,"componentType":5123,"count":402,"type":"SCALAR"},{"bufferView":1,"byteOffset":0,"componentType":5126,"count":333,"max":[4.36184501647949,7.97350978851318,3.18225240707397],"min":[-5.01674556732178,0,-3.38612842559814],"type":"VEC3"},{"bufferView":2,"byteOffset":0,"componentType":5126,"count":333,"type":"VEC3"},{"bufferView":3,"byteOffset":0,"componentType":5126,"count":333,"type":"VEC2"}],"asset":{"generator":"FBX2glTF v0.13.1","version":"2.0"},"bufferViews":[{"buffer":0,"byteLength":804,"byteOffset":0,"target":34963},{"buffer":0,"byteLength":3996,"byteOffset":804,"target":34962},{"buffer":0,"byteLength":3996,"byteOffset":4800,"target":34962},{"buffer":0,"byteLength":2664,"byteOffset":8796,"target":34962}],"buffers":[{"byteLength":11460,"uri":"SM_Rock_09.bin"}],"images":[{"name":"Polygon_Camping_Texture_vol2.0","uri":"Polygon_Camping_Texture_vol2.0.jpg"}],"materials":[{"alphaMode":"OPAQUE","doubleSided":false,"extras":{"fromFBX":{"isTruePBR":false,"shadingModel":"Phong"}},"name":"main","pbrMetallicRoughness":{"baseColorFactor":[1,1,1,1],"baseColorTexture":{"index":0,"texCoord":0},"metallicFactor":0.400000005960464,"roughnessFactor":0.272165536880493}}],"meshes":[{"name":"SM_Rock_09","primitives":[{"attributes":{"NORMAL":2,"POSITION":1,"TEXCOORD_0":3},"indices":0,"material":0,"mode":4}]}],"nodes":[{"mesh":0,"name":"SM_Rock_09","rotation":[0,0,0,1],"scale":[1,1,1],"translation":[-259.231597900391,0.0355820283293724,0.000000238418579101562]}],"samplers":[{}],"scene":0,"scenes":[{"name":"Root Scene","nodes":[0]}],"textures":[{"name":"base_color_texture","sampler":0,"source":0}]}