{"accessors":[{"bufferView":0,"byteOffset":0,"componentType":5123,"count":168,"type":"SCALAR"},{"bufferView":1,"byteOffset":0,"componentType":5126,"count":124,"max":[0.858745276927948,1.19324350357056,0.820659697055817],"min":[-0.85873264074326,0.000000000814907252788544,-0.82065969705582],"type":"VEC3"},{"bufferView":2,"byteOffset":0,"componentType":5126,"count":124,"type":"VEC3"},{"bufferView":3,"byteOffset":0,"componentType":5126,"count":124,"type":"VEC2"}],"asset":{"generator":"FBX2glTF v0.13.1","version":"2.0"},"bufferViews":[{"buffer":0,"byteLength":336,"byteOffset":0,"target":34963},{"buffer":0,"byteLength":1488,"byteOffset":336,"target":34962},{"buffer":0,"byteLength":1488,"byteOffset":1824,"target":34962},{"buffer":0,"byteLength":992,"byteOffset":3312,"target":34962}],"buffers":[{"byteLength":4304,"uri":"SM_Rock_05.bin"}],"images":[{"name":"Polygon_Camping_Texture_vol2.0","uri":"Polygon_Camping_Texture_vol2.0.jpg"}],"materials":[{"alphaMode":"OPAQUE","doubleSided":false,"extras":{"fromFBX":{"isTruePBR":false,"shadingModel":"Phong"}},"name":"main","pbrMetallicRoughness":{"baseColorFactor":[1,1,1,1],"baseColorTexture":{"index":0,"texCoord":0},"metallicFactor":0.400000005960464,"roughnessFactor":0.272165536880493}}],"meshes":[{"name":"SM_Rock_05","primitives":[{"attributes":{"NORMAL":2,"POSITION":1,"TEXCOORD_0":3},"indices":0,"material":0,"mode":4}]}],"nodes":[{"mesh":0,"name":"SM_Rock_05","rotation":[0,0,0,1],"scale":[1,1,1],"translation":[-289.659301757812,0.0258459225296974,0.0880577564239502]}],"samplers":[{}],"scene":0,"scenes":[{"name":"Root Scene","nodes":[0]}],"textures":[{"name":"base_color_texture","sampler":0,"source":0}]}