{"accessors":[{"bufferView":0,"byteOffset":0,"componentType":5123,"count":342,"type":"SCALAR"},{"bufferView":1,"byteOffset":0,"componentType":5126,"count":234,"max":[4.40540981292725,3.14795160293579,3.71730732917786],"min":[-5.45130300521851,0,-3.22674703598022],"type":"VEC3"},{"bufferView":2,"byteOffset":0,"componentType":5126,"count":234,"type":"VEC3"},{"bufferView":3,"byteOffset":0,"componentType":5126,"count":234,"type":"VEC2"}],"asset":{"generator":"FBX2glTF v0.13.1","version":"2.0"},"bufferViews":[{"buffer":0,"byteLength":684,"byteOffset":0,"target":34963},{"buffer":0,"byteLength":2808,"byteOffset":684,"target":34962},{"buffer":0,"byteLength":2808,"byteOffset":3492,"target":34962},{"buffer":0,"byteLength":1872,"byteOffset":6300,"target":34962}],"buffers":[{"byteLength":8172,"uri":"SM_Rock_08.bin"}],"images":[{"name":"Polygon_Camping_Texture_vol2.0","uri":"Polygon_Camping_Texture_vol2.0.jpg"}],"materials":[{"alphaMode":"OPAQUE","doubleSided":false,"extras":{"fromFBX":{"isTruePBR":false,"shadingModel":"Phong"}},"name":"main","pbrMetallicRoughness":{"baseColorFactor":[1,1,1,1],"baseColorTexture":{"index":0,"texCoord":0},"metallicFactor":0.400000005960464,"roughnessFactor":0.272165536880493}}],"meshes":[{"name":"SM_Rock_08","primitives":[{"attributes":{"NORMAL":2,"POSITION":1,"TEXCOORD_0":3},"indices":0,"material":0,"mode":4}]}],"nodes":[{"mesh":0,"name":"SM_Rock_08","rotation":[0,0,0,1],"scale":[1,1,1],"translation":[-271.063781738281,0.0101218819618225,-0.52952766418457]}],"samplers":[{}],"scene":0,"scenes":[{"name":"Root Scene","nodes":[0]}],"textures":[{"name":"base_color_texture","sampler":0,"source":0}]}