{"accessors":[{"bufferView":0,"byteOffset":0,"componentType":5123,"count":762,"type":"SCALAR"},{"bufferView":1,"byteOffset":0,"componentType":5126,"count":563,"max":[3.95675349235535,7.61891269683838,3.28837728500366],"min":[-4.26879692077637,0,-3.54907035827637],"type":"VEC3"},{"bufferView":2,"byteOffset":0,"componentType":5126,"count":563,"type":"VEC3"},{"bufferView":3,"byteOffset":0,"componentType":5126,"count":563,"type":"VEC2"}],"asset":{"generator":"FBX2glTF v0.13.1","version":"2.0"},"bufferViews":[{"buffer":0,"byteLength":1524,"byteOffset":0,"target":34963},{"buffer":0,"byteLength":6756,"byteOffset":1524,"target":34962},{"buffer":0,"byteLength":6756,"byteOffset":8280,"target":34962},{"buffer":0,"byteLength":4504,"byteOffset":15036,"target":34962}],"buffers":[{"byteLength":19540,"uri":"SM_Rock_10.bin"}],"images":[{"name":"Polygon_Camping_Texture_vol2.0","uri":"Polygon_Camping_Texture_vol2.0.jpg"}],"materials":[{"alphaMode":"OPAQUE","doubleSided":false,"extras":{"fromFBX":{"isTruePBR":false,"shadingModel":"Phong"}},"name":"main","pbrMetallicRoughness":{"baseColorFactor":[1,1,1,1],"baseColorTexture":{"index":0,"texCoord":0},"metallicFactor":0.400000005960464,"roughnessFactor":0.272165536880493}}],"meshes":[{"name":"SM_Rock_10","primitives":[{"attributes":{"NORMAL":2,"POSITION":1,"TEXCOORD_0":3},"indices":0,"material":0,"mode":4}]}],"nodes":[{"mesh":0,"name":"SM_Rock_10","rotation":[0,0,0,1],"scale":[1,1,1],"translation":[-249.689071655273,-0.02605397626758,-0.10802340507507]}],"samplers":[{}],"scene":0,"scenes":[{"name":"Root Scene","nodes":[0]}],"textures":[{"name":"base_color_texture","sampler":0,"source":0}]}