{"accessors":[{"bufferView":0,"byteOffset":0,"componentType":5123,"count":444,"type":"SCALAR"},{"bufferView":1,"byteOffset":0,"componentType":5126,"count":282,"max":[2.37652349472046,0.811205744743347,1.29847943782806],"min":[-2.54076528549194,-0.0000000028208,-1.36577129364014],"type":"VEC3"},{"bufferView":2,"byteOffset":0,"componentType":5126,"count":282,"type":"VEC3"},{"bufferView":3,"byteOffset":0,"componentType":5126,"count":282,"type":"VEC2"}],"asset":{"generator":"FBX2glTF v0.13.1","version":"2.0"},"bufferViews":[{"buffer":0,"byteLength":888,"byteOffset":0,"target":34963},{"buffer":0,"byteLength":3384,"byteOffset":888,"target":34962},{"buffer":0,"byteLength":3384,"byteOffset":4272,"target":34962},{"buffer":0,"byteLength":2256,"byteOffset":7656,"target":34962}],"buffers":[{"byteLength":9912,"uri":"SM_Rock_07.bin"}],"images":[{"name":"Polygon_Camping_Texture_vol2.0","uri":"Polygon_Camping_Texture_vol2.0.jpg"}],"materials":[{"alphaMode":"OPAQUE","doubleSided":false,"extras":{"fromFBX":{"isTruePBR":false,"shadingModel":"Phong"}},"name":"main","pbrMetallicRoughness":{"baseColorFactor":[1,1,1,1],"baseColorTexture":{"index":0,"texCoord":0},"metallicFactor":0.400000005960464,"roughnessFactor":0.272165536880493}}],"meshes":[{"name":"SM_Rock_07","primitives":[{"attributes":{"NORMAL":2,"POSITION":1,"TEXCOORD_0":3},"indices":0,"material":0,"mode":4}]}],"nodes":[{"mesh":0,"name":"SM_Rock_07","rotation":[0,0,0,1],"scale":[1,1,1],"translation":[-280.157745361328,0.0244538187980652,-0.2236694842577]}],"samplers":[{}],"scene":0,"scenes":[{"name":"Root Scene","nodes":[0]}],"textures":[{"name":"base_color_texture","sampler":0,"source":0}]}