{"accessors":[{"bufferView":0,"byteOffset":0,"componentType":5123,"count":5004,"type":"SCALAR"},{"bufferView":1,"byteOffset":0,"componentType":5126,"count":3336,"max":[1.63263428211212,0.0372557640075684,1.81316828727722],"min":[-1.6396017074585,-0.02598476409912,-2.16889595985413],"type":"VEC3"},{"bufferView":2,"byteOffset":0,"componentType":5126,"count":3336,"type":"VEC3"},{"bufferView":3,"byteOffset":0,"componentType":5126,"count":3336,"type":"VEC2"}],"asset":{"generator":"FBX2glTF v0.13.1","version":"2.0"},"bufferViews":[{"buffer":0,"byteLength":10008,"byteOffset":0,"target":34963},{"buffer":0,"byteLength":40032,"byteOffset":10008,"target":34962},{"buffer":0,"byteLength":40032,"byteOffset":50040,"target":34962},{"buffer":0,"byteLength":26688,"byteOffset":90072,"target":34962}],"buffers":[{"byteLength":116760,"uri":"SM_Support_01_E.bin"}],"images":[{"name":"Polygon_Camping_Texture_vol2.0","uri":"Polygon_Camping_Texture_vol2.0.jpg"}],"materials":[{"alphaMode":"OPAQUE","doubleSided":false,"extras":{"fromFBX":{"isTruePBR":false,"shadingModel":"Phong"}},"name":"main","pbrMetallicRoughness":{"baseColorFactor":[1,1,1,1],"baseColorTexture":{"index":0,"texCoord":0},"metallicFactor":0.400000005960464,"roughnessFactor":0.272165536880493}}],"meshes":[{"name":"SM_Support_01_E","primitives":[{"attributes":{"NORMAL":2,"POSITION":1,"TEXCOORD_0":3},"indices":0,"material":0,"mode":4}]}],"nodes":[{"mesh":0,"name":"SM_Support_01_E","rotation":[0,0,0,1],"scale":[1,1,1],"translation":[-124.71565246582,2.56597399711609,19.1611862182617]}],"samplers":[{}],"scene":0,"scenes":[{"name":"Root Scene","nodes":[0]}],"textures":[{"name":"base_color_texture","sampler":0,"source":0}]}