{"accessors":[{"bufferView":0,"byteOffset":0,"componentType":5123,"count":3678,"type":"SCALAR"},{"bufferView":1,"byteOffset":0,"componentType":5126,"count":2310,"max":[0.783143222332001,2.02163243293762,0.294033825397491],"min":[-0.7331737279892,0,-0.29403325915337],"type":"VEC3"},{"bufferView":2,"byteOffset":0,"componentType":5126,"count":2310,"type":"VEC3"},{"bufferView":3,"byteOffset":0,"componentType":5126,"count":2310,"type":"VEC2"}],"asset":{"generator":"FBX2glTF v0.13.1","version":"2.0"},"bufferViews":[{"buffer":0,"byteLength":7356,"byteOffset":0,"target":34963},{"buffer":0,"byteLength":27720,"byteOffset":7356,"target":34962},{"buffer":0,"byteLength":27720,"byteOffset":35076,"target":34962},{"buffer":0,"byteLength":18480,"byteOffset":62796,"target":34962}],"buffers":[{"byteLength":81276,"uri":"SM_Scarecrow_01.bin"}],"images":[{"name":"Polygon_Camping_Texture_vol2.0","uri":"Polygon_Camping_Texture_vol2.0.jpg"}],"materials":[{"alphaMode":"OPAQUE","doubleSided":false,"extras":{"fromFBX":{"isTruePBR":false,"shadingModel":"Phong"}},"name":"main","pbrMetallicRoughness":{"baseColorFactor":[1,1,1,1],"baseColorTexture":{"index":0,"texCoord":0},"metallicFactor":0.400000005960464,"roughnessFactor":0.272165536880493}}],"meshes":[{"name":"SM_Scarecrow_01","primitives":[{"attributes":{"NORMAL":2,"POSITION":1,"TEXCOORD_0":3},"indices":0,"material":0,"mode":4}]}],"nodes":[{"mesh":0,"name":"SM_Scarecrow_01","rotation":[0,0,0,1],"scale":[1,1,1],"translation":[-37.069709777832,0,0]}],"samplers":[{}],"scene":0,"scenes":[{"name":"Root Scene","nodes":[0]}],"textures":[{"name":"base_color_texture","sampler":0,"source":0}]}