{"accessors":[{"bufferView":0,"byteOffset":0,"componentType":5123,"count":1632,"type":"SCALAR"},{"bufferView":1,"byteOffset":0,"componentType":5126,"count":1018,"max":[2.16992831230164,3.1520369052887,0.122745037078857],"min":[-2.16992831230164,-0.01590896211565,-0.12088584899902],"type":"VEC3"},{"bufferView":2,"byteOffset":0,"componentType":5126,"count":1018,"type":"VEC3"},{"bufferView":3,"byteOffset":0,"componentType":5126,"count":1018,"type":"VEC2"}],"asset":{"generator":"FBX2glTF v0.13.1","version":"2.0"},"bufferViews":[{"buffer":0,"byteLength":3264,"byteOffset":0,"target":34963},{"buffer":0,"byteLength":12216,"byteOffset":3264,"target":34962},{"buffer":0,"byteLength":12216,"byteOffset":15480,"target":34962},{"buffer":0,"byteLength":8144,"byteOffset":27696,"target":34962}],"buffers":[{"byteLength":35840,"uri":"SM_Support_01_B.bin"}],"images":[{"name":"Polygon_Camping_Texture_vol2.0","uri":"Polygon_Camping_Texture_vol2.0.jpg"}],"materials":[{"alphaMode":"OPAQUE","doubleSided":false,"extras":{"fromFBX":{"isTruePBR":false,"shadingModel":"Phong"}},"name":"main","pbrMetallicRoughness":{"baseColorFactor":[1,1,1,1],"baseColorTexture":{"index":0,"texCoord":0},"metallicFactor":0.400000005960464,"roughnessFactor":0.272165536880493}}],"meshes":[{"name":"SM_Support_01_B","primitives":[{"attributes":{"NORMAL":2,"POSITION":1,"TEXCOORD_0":3},"indices":0,"material":0,"mode":4}]}],"nodes":[{"mesh":0,"name":"SM_Support_01_B","rotation":[0,0,0,1],"scale":[1,1,1],"translation":[-124.854736328125,0.00228402228094637,5.04926013946533]}],"samplers":[{}],"scene":0,"scenes":[{"name":"Root Scene","nodes":[0]}],"textures":[{"name":"base_color_texture","sampler":0,"source":0}]}