{"accessors":[{"bufferView":0,"byteOffset":0,"componentType":5123,"count":9384,"type":"SCALAR"},{"bufferView":1,"byteOffset":0,"componentType":5126,"count":6256,"max":[2.06486344337463,0.0927062034606934,2.12682938575745],"min":[-2.06486344337463,-0.02445125579834,-2.12682938575745],"type":"VEC3"},{"bufferView":2,"byteOffset":0,"componentType":5126,"count":6256,"type":"VEC3"},{"bufferView":3,"byteOffset":0,"componentType":5126,"count":6256,"type":"VEC2"}],"asset":{"generator":"FBX2glTF v0.13.1","version":"2.0"},"bufferViews":[{"buffer":0,"byteLength":18768,"byteOffset":0,"target":34963},{"buffer":0,"byteLength":75072,"byteOffset":18768,"target":34962},{"buffer":0,"byteLength":75072,"byteOffset":93840,"target":34962},{"buffer":0,"byteLength":50048,"byteOffset":168912,"target":34962}],"buffers":[{"byteLength":218960,"uri":"SM_Support_01_C.bin"}],"images":[{"name":"Polygon_Camping_Texture_vol2.0","uri":"Polygon_Camping_Texture_vol2.0.jpg"}],"materials":[{"alphaMode":"OPAQUE","doubleSided":false,"extras":{"fromFBX":{"isTruePBR":false,"shadingModel":"Phong"}},"name":"main","pbrMetallicRoughness":{"baseColorFactor":[1,1,1,1],"baseColorTexture":{"index":0,"texCoord":0},"metallicFactor":0.400000005960464,"roughnessFactor":0.272165536880493}}],"meshes":[{"name":"SM_Support_01_C","primitives":[{"attributes":{"NORMAL":2,"POSITION":1,"TEXCOORD_0":3},"indices":0,"material":0,"mode":4}]}],"nodes":[{"mesh":0,"name":"SM_Support_01_C","rotation":[0,0,0,1],"scale":[1,1,1],"translation":[-124.854736328125,2.43076658248901,9.40008735656738]}],"samplers":[{}],"scene":0,"scenes":[{"name":"Root Scene","nodes":[0]}],"textures":[{"name":"base_color_texture","sampler":0,"source":0}]}