{"accessors":[{"bufferView":0,"byteOffset":0,"componentType":5123,"count":6000,"type":"SCALAR"},{"bufferView":1,"byteOffset":0,"componentType":5126,"count":4250,"max":[1.3718980550766,3.04250073432922,1.38988244533539],"min":[-1.3718980550766,-0.15722481906414,-1.38988244533539],"type":"VEC3"},{"bufferView":2,"byteOffset":0,"componentType":5126,"count":4250,"type":"VEC3"},{"bufferView":3,"byteOffset":0,"componentType":5126,"count":4250,"type":"VEC2"}],"asset":{"generator":"FBX2glTF v0.13.1","version":"2.0"},"bufferViews":[{"buffer":0,"byteLength":12000,"byteOffset":0,"target":34963},{"buffer":0,"byteLength":51000,"byteOffset":12000,"target":34962},{"buffer":0,"byteLength":51000,"byteOffset":63000,"target":34962},{"buffer":0,"byteLength":34000,"byteOffset":114000,"target":34962}],"buffers":[{"byteLength":148000,"uri":"SM_Tent_02.bin"}],"images":[{"name":"Polygon_Camping_Texture_vol2.0","uri":"Polygon_Camping_Texture_vol2.0.jpg"}],"materials":[{"alphaMode":"OPAQUE","doubleSided":false,"extras":{"fromFBX":{"isTruePBR":false,"shadingModel":"Phong"}},"name":"main.001","pbrMetallicRoughness":{"baseColorFactor":[1,1,1,1],"baseColorTexture":{"index":0,"texCoord":0},"metallicFactor":0.400000005960464,"roughnessFactor":0.272165536880493}}],"meshes":[{"name":"SM_Tent_02","primitives":[{"attributes":{"NORMAL":2,"POSITION":1,"TEXCOORD_0":3},"indices":0,"material":0,"mode":4}]}],"nodes":[{"mesh":0,"name":"SM_Tent_02","rotation":[0,0,0,1],"scale":[1,1,1],"translation":[-24.8055324554443,0,-4.6278920173645]}],"samplers":[{}],"scene":0,"scenes":[{"name":"Root Scene","nodes":[0]}],"textures":[{"name":"base_color_texture","sampler":0,"source":0}]}