{"accessors":[{"bufferView":0,"byteOffset":0,"componentType":5123,"count":12372,"type":"SCALAR"},{"bufferView":1,"byteOffset":0,"componentType":5126,"count":8032,"max":[1.72162592411041,5.05977725982666,1.94549858570099],"min":[-1.68303918838501,-0.01122208777815,-1.72538805007935],"type":"VEC3"},{"bufferView":2,"byteOffset":0,"componentType":5126,"count":8032,"type":"VEC3"},{"bufferView":3,"byteOffset":0,"componentType":5126,"count":8032,"type":"VEC2"}],"asset":{"generator":"FBX2glTF v0.13.1","version":"2.0"},"bufferViews":[{"buffer":0,"byteLength":24744,"byteOffset":0,"target":34963},{"buffer":0,"byteLength":96384,"byteOffset":24744,"target":34962},{"buffer":0,"byteLength":96384,"byteOffset":121128,"target":34962},{"buffer":0,"byteLength":64256,"byteOffset":217512,"target":34962}],"buffers":[{"byteLength":281768,"uri":"SM_Tree_01.bin"}],"images":[{"name":"Polygon_Camping_Texture_vol2.0","uri":"Polygon_Camping_Texture_vol2.0.jpg"}],"materials":[{"alphaMode":"OPAQUE","doubleSided":false,"extras":{"fromFBX":{"isTruePBR":false,"shadingModel":"Phong"}},"name":"main","pbrMetallicRoughness":{"baseColorFactor":[1,1,1,1],"baseColorTexture":{"index":0,"texCoord":0},"metallicFactor":0.400000005960464,"roughnessFactor":0.272165536880493}}],"meshes":[{"name":"SM_Tree_01","primitives":[{"attributes":{"NORMAL":2,"POSITION":1,"TEXCOORD_0":3},"indices":0,"material":0,"mode":4}]}],"nodes":[{"mesh":0,"name":"SM_Tree_01","rotation":[0,0,0,1],"scale":[1,1,1],"translation":[-314.800598144531,-0.01122208777815,0.00552217662334442]}],"samplers":[{}],"scene":0,"scenes":[{"name":"Root Scene","nodes":[0]}],"textures":[{"name":"base_color_texture","sampler":0,"source":0}]}