{"accessors":[{"bufferView":0,"byteOffset":0,"componentType":5123,"count":24882,"type":"SCALAR"},{"bufferView":1,"byteOffset":0,"componentType":5126,"count":15423,"max":[2.55413746833801,10.5873994827271,2.79235768318176],"min":[-2.5541980266571,0,-2.30579853057861],"type":"VEC3"},{"bufferView":2,"byteOffset":0,"componentType":5126,"count":15423,"type":"VEC3"},{"bufferView":3,"byteOffset":0,"componentType":5126,"count":15423,"type":"VEC2"}],"asset":{"generator":"FBX2glTF v0.13.1","version":"2.0"},"bufferViews":[{"buffer":0,"byteLength":49764,"byteOffset":0,"target":34963},{"buffer":0,"byteLength":185076,"byteOffset":49764,"target":34962},{"buffer":0,"byteLength":185076,"byteOffset":234840,"target":34962},{"buffer":0,"byteLength":123384,"byteOffset":419916,"target":34962}],"buffers":[{"byteLength":543300,"uri":"SM_Tower_01.bin"}],"images":[{"name":"Polygon_Camping_Texture_vol2.0","uri":"Polygon_Camping_Texture_vol2.0.jpg"}],"materials":[{"alphaMode":"OPAQUE","doubleSided":false,"extras":{"fromFBX":{"isTruePBR":false,"shadingModel":"Phong"}},"name":"main","pbrMetallicRoughness":{"baseColorFactor":[1,1,1,1],"baseColorTexture":{"index":0,"texCoord":0},"metallicFactor":0.400000005960464,"roughnessFactor":0.272165536880493}}],"meshes":[{"name":"SM_Tower_01","primitives":[{"attributes":{"NORMAL":2,"POSITION":1,"TEXCOORD_0":3},"indices":0,"material":0,"mode":4}]}],"nodes":[{"mesh":0,"name":"SM_Tower_01","rotation":[0,0,0,1],"scale":[1,1,1],"translation":[-47.8672676086426,0,-0.24327975511551]}],"samplers":[{}],"scene":0,"scenes":[{"name":"Root Scene","nodes":[0]}],"textures":[{"name":"base_color_texture","sampler":0,"source":0}]}