{"accessors":[{"bufferView":0,"byteOffset":0,"componentType":5123,"count":4644,"type":"SCALAR"},{"bufferView":1,"byteOffset":0,"componentType":5126,"count":3012,"max":[1.91458833217621,4.89145565032959,1.95957851409912],"min":[-1.89424026012421,0,-1.74453520774841],"type":"VEC3"},{"bufferView":2,"byteOffset":0,"componentType":5126,"count":3012,"type":"VEC3"},{"bufferView":3,"byteOffset":0,"componentType":5126,"count":3012,"type":"VEC2"}],"asset":{"generator":"FBX2glTF v0.13.1","version":"2.0"},"bufferViews":[{"buffer":0,"byteLength":9288,"byteOffset":0,"target":34963},{"buffer":0,"byteLength":36144,"byteOffset":9288,"target":34962},{"buffer":0,"byteLength":36144,"byteOffset":45432,"target":34962},{"buffer":0,"byteLength":24096,"byteOffset":81576,"target":34962}],"buffers":[{"byteLength":105672,"uri":"SM_Tree_02.bin"}],"images":[{"name":"Polygon_Camping_Texture_vol2.0","uri":"Polygon_Camping_Texture_vol2.0.jpg"}],"materials":[{"alphaMode":"OPAQUE","doubleSided":false,"extras":{"fromFBX":{"isTruePBR":false,"shadingModel":"Phong"}},"name":"main","pbrMetallicRoughness":{"baseColorFactor":[1,1,1,1],"baseColorTexture":{"index":0,"texCoord":0},"metallicFactor":0.400000005960464,"roughnessFactor":0.272165536880493}}],"meshes":[{"name":"SM_Tree_02","primitives":[{"attributes":{"NORMAL":2,"POSITION":1,"TEXCOORD_0":3},"indices":0,"material":0,"mode":4}]}],"nodes":[{"mesh":0,"name":"SM_Tree_02","rotation":[0,0,0,1],"scale":[1,1,1],"translation":[-311.152709960938,0,-0.03325130045414]}],"samplers":[{}],"scene":0,"scenes":[{"name":"Root Scene","nodes":[0]}],"textures":[{"name":"base_color_texture","sampler":0,"source":0}]}