{"accessors":[{"bufferView":0,"byteOffset":0,"componentType":5123,"count":12990,"type":"SCALAR"},{"bufferView":1,"byteOffset":0,"componentType":5126,"count":8136,"max":[1.26880967617035,5.72785425186157,1.02424514293671],"min":[-1.70909178256989,-0.00000023841858,-0.57051384449005],"type":"VEC3"},{"bufferView":2,"byteOffset":0,"componentType":5126,"count":8136,"type":"VEC3"},{"bufferView":3,"byteOffset":0,"componentType":5126,"count":8136,"type":"VEC2"}],"asset":{"generator":"FBX2glTF v0.13.1","version":"2.0"},"bufferViews":[{"buffer":0,"byteLength":25980,"byteOffset":0,"target":34963},{"buffer":0,"byteLength":97632,"byteOffset":25980,"target":34962},{"buffer":0,"byteLength":97632,"byteOffset":123612,"target":34962},{"buffer":0,"byteLength":65088,"byteOffset":221244,"target":34962}],"buffers":[{"byteLength":286332,"uri":"SM_Tree_08.bin"}],"images":[{"name":"Polygon_Camping_Texture_vol2.0","uri":"Polygon_Camping_Texture_vol2.0.jpg"}],"materials":[{"alphaMode":"OPAQUE","doubleSided":false,"extras":{"fromFBX":{"isTruePBR":false,"shadingModel":"Phong"}},"name":"main","pbrMetallicRoughness":{"baseColorFactor":[1,1,1,1],"baseColorTexture":{"index":0,"texCoord":0},"metallicFactor":0.400000005960464,"roughnessFactor":0.272165536880493}}],"meshes":[{"name":"SM_Tree_08","primitives":[{"attributes":{"NORMAL":2,"POSITION":1,"TEXCOORD_0":3},"indices":0,"material":0,"mode":4}]}],"nodes":[{"mesh":0,"name":"SM_Tree_08","rotation":[0,0,0,1],"scale":[1,1,1],"translation":[-227.880096435547,-0.00000071525574,-0.0000001937151]}],"samplers":[{}],"scene":0,"scenes":[{"name":"Root Scene","nodes":[0]}],"textures":[{"name":"base_color_texture","sampler":0,"source":0}]}