{"accessors":[{"bufferView":0,"byteOffset":0,"componentType":5123,"count":480,"type":"SCALAR"},{"bufferView":1,"byteOffset":0,"componentType":5126,"count":356,"max":[0.570798873901367,2.23626399040222,0.675885438919067],"min":[-0.59251165390015,-0.00000000046566,-0.42405095696449],"type":"VEC3"},{"bufferView":2,"byteOffset":0,"componentType":5126,"count":356,"type":"VEC3"},{"bufferView":3,"byteOffset":0,"componentType":5126,"count":356,"type":"VEC2"}],"asset":{"generator":"FBX2glTF v0.13.1","version":"2.0"},"bufferViews":[{"buffer":0,"byteLength":960,"byteOffset":0,"target":34963},{"buffer":0,"byteLength":4272,"byteOffset":960,"target":34962},{"buffer":0,"byteLength":4272,"byteOffset":5232,"target":34962},{"buffer":0,"byteLength":2848,"byteOffset":9504,"target":34962}],"buffers":[{"byteLength":12352,"uri":"SM_Tree_07.bin"}],"images":[{"name":"Polygon_Camping_Texture_vol2.0","uri":"Polygon_Camping_Texture_vol2.0.jpg"}],"materials":[{"alphaMode":"OPAQUE","doubleSided":false,"extras":{"fromFBX":{"isTruePBR":false,"shadingModel":"Phong"}},"name":"main","pbrMetallicRoughness":{"baseColorFactor":[1,1,1,1],"baseColorTexture":{"index":0,"texCoord":0},"metallicFactor":0.400000005960464,"roughnessFactor":0.272165536880493}}],"meshes":[{"name":"SM_Tree_07","primitives":[{"attributes":{"NORMAL":2,"POSITION":1,"TEXCOORD_0":3},"indices":0,"material":0,"mode":4}]}],"nodes":[{"mesh":0,"name":"SM_Tree_07","rotation":[0,0,0,1],"scale":[1,1,1],"translation":[-232.58039855957,-0.00308430520818,0.00407310575246811]}],"samplers":[{}],"scene":0,"scenes":[{"name":"Root Scene","nodes":[0]}],"textures":[{"name":"base_color_texture","sampler":0,"source":0}]}