{"accessors":[{"bufferView":0,"byteOffset":0,"componentType":5123,"count":660,"type":"SCALAR"},{"bufferView":1,"byteOffset":0,"componentType":5126,"count":632,"max":[0.421886771917343,0.0123848207294941,0.413095235824585],"min":[-0.41829094290733,-0.01305703818798,-0.42894113063812],"type":"VEC3"},{"bufferView":2,"byteOffset":0,"componentType":5126,"count":632,"type":"VEC3"},{"bufferView":3,"byteOffset":0,"componentType":5126,"count":632,"type":"VEC2"}],"asset":{"generator":"FBX2glTF v0.13.1","version":"2.0"},"bufferViews":[{"buffer":0,"byteLength":1320,"byteOffset":0,"target":34963},{"buffer":0,"byteLength":7584,"byteOffset":1320,"target":34962},{"buffer":0,"byteLength":7584,"byteOffset":8904,"target":34962},{"buffer":0,"byteLength":5056,"byteOffset":16488,"target":34962}],"buffers":[{"byteLength":21544,"uri":"SM_Well_Water_01.bin"}],"images":[{"name":"Polygon_Camping_Texture_vol2.0","uri":"Polygon_Camping_Texture_vol2.0.jpg"}],"materials":[{"alphaMode":"OPAQUE","doubleSided":false,"extras":{"fromFBX":{"isTruePBR":false,"shadingModel":"Phong"}},"name":"main","pbrMetallicRoughness":{"baseColorFactor":[1,1,1,1],"baseColorTexture":{"index":0,"texCoord":0},"metallicFactor":0.400000005960464,"roughnessFactor":0.272165536880493}}],"meshes":[{"name":"SM_Well_Water_01","primitives":[{"attributes":{"NORMAL":2,"POSITION":1,"TEXCOORD_0":3},"indices":0,"material":0,"mode":4}]}],"nodes":[{"mesh":0,"name":"SM_Well_Water_01","rotation":[0,0,0,1],"scale":[1,1,1],"translation":[-38.8054885864258,0.182316735386848,5.30621576309204]}],"samplers":[{}],"scene":0,"scenes":[{"name":"Root Scene","nodes":[0]}],"textures":[{"name":"base_color_texture","sampler":0,"source":0}]}