{"accessors":[{"bufferView":0,"byteOffset":0,"componentType":5123,"count":4608,"type":"SCALAR"},{"bufferView":1,"byteOffset":0,"componentType":5126,"count":2860,"max":[2.56842708587646,2.55266141891479,0.568808734416962],"min":[-2.57376194000244,-2.57485461235046,-1.95432007312775],"type":"VEC3"},{"bufferView":2,"byteOffset":0,"componentType":5126,"count":2860,"type":"VEC3"},{"bufferView":3,"byteOffset":0,"componentType":5126,"count":2860,"type":"VEC2"}],"asset":{"generator":"FBX2glTF v0.13.1","version":"2.0"},"bufferViews":[{"buffer":0,"byteLength":9216,"byteOffset":0,"target":34963},{"buffer":0,"byteLength":34320,"byteOffset":9216,"target":34962},{"buffer":0,"byteLength":34320,"byteOffset":43536,"target":34962},{"buffer":0,"byteLength":22880,"byteOffset":77856,"target":34962}],"buffers":[{"byteLength":100736,"uri":"SM_WaterWheel_01.bin"}],"images":[{"name":"Polygon_Camping_Texture_vol2.0","uri":"Polygon_Camping_Texture_vol2.0.jpg"}],"materials":[{"alphaMode":"OPAQUE","doubleSided":false,"extras":{"fromFBX":{"isTruePBR":false,"shadingModel":"Phong"}},"name":"main","pbrMetallicRoughness":{"baseColorFactor":[1,1,1,1],"baseColorTexture":{"index":0,"texCoord":0},"metallicFactor":0.400000005960464,"roughnessFactor":0.272165536880493}}],"meshes":[{"name":"SM_WaterWheel_01","primitives":[{"attributes":{"NORMAL":2,"POSITION":1,"TEXCOORD_0":3},"indices":0,"material":0,"mode":4}]}],"nodes":[{"mesh":0,"name":"SM_WaterWheel_01","rotation":[0,0,0,1],"scale":[1,1,1],"translation":[-42.7160339355469,2.57889556884766,0.000000164572696803589]}],"samplers":[{}],"scene":0,"scenes":[{"name":"Root Scene","nodes":[0]}],"textures":[{"name":"base_color_texture","sampler":0,"source":0}]}