{"accessors":[{"bufferView":0,"byteOffset":0,"componentType":5123,"count":3000,"type":"SCALAR"},{"bufferView":1,"byteOffset":0,"componentType":5126,"count":1920,"max":[0.555696249008179,0.562406897544861,0.52138614654541],"min":[-0.55568635463715,-0.01155431102961,-0.52562522888184],"type":"VEC3"},{"bufferView":2,"byteOffset":0,"componentType":5126,"count":1920,"type":"VEC3"},{"bufferView":3,"byteOffset":0,"componentType":5126,"count":1920,"type":"VEC2"}],"asset":{"generator":"FBX2glTF v0.13.1","version":"2.0"},"bufferViews":[{"buffer":0,"byteLength":6000,"byteOffset":0,"target":34963},{"buffer":0,"byteLength":23040,"byteOffset":6000,"target":34962},{"buffer":0,"byteLength":23040,"byteOffset":29040,"target":34962},{"buffer":0,"byteLength":15360,"byteOffset":52080,"target":34962}],"buffers":[{"byteLength":67440,"uri":"SM_Well_02_A.bin"}],"images":[{"name":"Polygon_Camping_Texture_vol2.0","uri":"Polygon_Camping_Texture_vol2.0.jpg"}],"materials":[{"alphaMode":"OPAQUE","doubleSided":false,"extras":{"fromFBX":{"isTruePBR":false,"shadingModel":"Phong"}},"name":"main","pbrMetallicRoughness":{"baseColorFactor":[1,1,1,1],"baseColorTexture":{"index":0,"texCoord":0},"metallicFactor":0.400000005960464,"roughnessFactor":0.272165536880493}}],"meshes":[{"name":"SM_Well_02_A","primitives":[{"attributes":{"NORMAL":2,"POSITION":1,"TEXCOORD_0":3},"indices":0,"material":0,"mode":4}]}],"nodes":[{"mesh":0,"name":"SM_Well_02_A","rotation":[0,0,0,1],"scale":[1,1,1],"translation":[-38.809024810791,0.0630079805850983,5.30530023574829]}],"samplers":[{}],"scene":0,"scenes":[{"name":"Root Scene","nodes":[0]}],"textures":[{"name":"base_color_texture","sampler":0,"source":0}]}