{"accessors":[{"bufferView":0,"byteOffset":0,"componentType":5123,"count":17712,"type":"SCALAR"},{"bufferView":1,"byteOffset":0,"componentType":5126,"count":13816,"max":[1.01909697055817,2.47515964508057,1.39236307144165],"min":[-1.02464592456818,-0.01512023806572,-1.38986039161682],"type":"VEC3"},{"bufferView":2,"byteOffset":0,"componentType":5126,"count":13816,"type":"VEC3"},{"bufferView":3,"byteOffset":0,"componentType":5126,"count":13816,"type":"VEC2"}],"asset":{"generator":"FBX2glTF v0.13.1","version":"2.0"},"bufferViews":[{"buffer":0,"byteLength":35424,"byteOffset":0,"target":34963},{"buffer":0,"byteLength":165792,"byteOffset":35424,"target":34962},{"buffer":0,"byteLength":165792,"byteOffset":201216,"target":34962},{"buffer":0,"byteLength":110528,"byteOffset":367008,"target":34962}],"buffers":[{"byteLength":477536,"uri":"SM_Well_01.bin"}],"images":[{"name":"Polygon_Camping_Texture_vol2.0","uri":"Polygon_Camping_Texture_vol2.0.jpg"}],"materials":[{"alphaMode":"OPAQUE","doubleSided":false,"extras":{"fromFBX":{"isTruePBR":false,"shadingModel":"Phong"}},"name":"main","pbrMetallicRoughness":{"baseColorFactor":[1,1,1,1],"baseColorTexture":{"index":0,"texCoord":0},"metallicFactor":0.400000005960464,"roughnessFactor":0.272165536880493}}],"meshes":[{"name":"SM_Well_01","primitives":[{"attributes":{"NORMAL":2,"POSITION":1,"TEXCOORD_0":3},"indices":0,"material":0,"mode":4}]}],"nodes":[{"mesh":0,"name":"SM_Well_01","rotation":[0,0,0,1],"scale":[1,1,1],"translation":[-120.836860656738,-0.03280717879534,0.0115616917610168]}],"samplers":[{}],"scene":0,"scenes":[{"name":"Root Scene","nodes":[0]}],"textures":[{"name":"base_color_texture","sampler":0,"source":0}]}