{"accessors":[{"bufferView":0,"byteOffset":0,"componentType":5123,"count":2994,"type":"SCALAR"},{"bufferView":1,"byteOffset":0,"componentType":5126,"count":1945,"max":[1.13302481174469,2.00131011009216,0.353472352027893],"min":[-1.1403888463974,-0.00412449240685,-0.36645248532295],"type":"VEC3"},{"bufferView":2,"byteOffset":0,"componentType":5126,"count":1945,"type":"VEC3"},{"bufferView":3,"byteOffset":0,"componentType":5126,"count":1945,"type":"VEC2"}],"asset":{"generator":"FBX2glTF v0.13.1","version":"2.0"},"bufferViews":[{"buffer":0,"byteLength":5988,"byteOffset":0,"target":34963},{"buffer":0,"byteLength":23340,"byteOffset":5988,"target":34962},{"buffer":0,"byteLength":23340,"byteOffset":29328,"target":34962},{"buffer":0,"byteLength":15560,"byteOffset":52668,"target":34962}],"buffers":[{"byteLength":68228,"uri":"SM_Waterhole_01.bin"}],"images":[{"name":"Polygon_Camping_Texture_vol2.0","uri":"Polygon_Camping_Texture_vol2.0.jpg"}],"materials":[{"alphaMode":"OPAQUE","doubleSided":false,"extras":{"fromFBX":{"isTruePBR":false,"shadingModel":"Phong"}},"name":"main","pbrMetallicRoughness":{"baseColorFactor":[1,1,1,1],"baseColorTexture":{"index":0,"texCoord":0},"metallicFactor":0.400000005960464,"roughnessFactor":0.272165536880493}}],"meshes":[{"name":"SM_Waterhole_01","primitives":[{"attributes":{"NORMAL":2,"POSITION":1,"TEXCOORD_0":3},"indices":0,"material":0,"mode":4}]}],"nodes":[{"mesh":0,"name":"SM_Waterhole_01","rotation":[0,0,0,1],"scale":[1,1,1],"translation":[-55.0994071960449,0.0471175611019135,0.00753112463280559]}],"samplers":[{}],"scene":0,"scenes":[{"name":"Root Scene","nodes":[0]}],"textures":[{"name":"base_color_texture","sampler":0,"source":0}]}