{"accessors":[{"bufferView":0,"byteOffset":0,"componentType":5123,"count":7599,"type":"SCALAR"},{"bufferView":1,"byteOffset":0,"componentType":5126,"count":4200,"max":[0.491659462451935,1.05163216590881,0.457637876272202],"min":[-0.52291870117188,0.00550536019727588,-0.48896989226341],"type":"VEC3"},{"bufferView":2,"byteOffset":0,"componentType":5126,"count":4200,"type":"VEC3"},{"bufferView":3,"byteOffset":0,"componentType":5126,"count":4200,"type":"VEC2"}],"asset":{"generator":"FBX2glTF v0.13.1","version":"2.0"},"bufferViews":[{"buffer":0,"byteLength":15198,"byteOffset":0,"target":34963},{"buffer":0,"byteLength":50400,"byteOffset":15200,"target":34962},{"buffer":0,"byteLength":50400,"byteOffset":65600,"target":34962},{"buffer":0,"byteLength":33600,"byteOffset":116000,"target":34962}],"buffers":[{"byteLength":149600,"uri":"SM_Wheat_02_A.bin"}],"images":[{"name":"Polygon_Camping_Texture_vol2.0","uri":"Polygon_Camping_Texture_vol2.0.jpg"}],"materials":[{"alphaMode":"OPAQUE","doubleSided":false,"extras":{"fromFBX":{"isTruePBR":false,"shadingModel":"Phong"}},"name":"main","pbrMetallicRoughness":{"baseColorFactor":[1,1,1,1],"baseColorTexture":{"index":0,"texCoord":0},"metallicFactor":0.400000005960464,"roughnessFactor":0.272165536880493}}],"meshes":[{"name":"SM_Wheat_02_A","primitives":[{"attributes":{"NORMAL":2,"POSITION":1,"TEXCOORD_0":3},"indices":0,"material":0,"mode":4}]}],"nodes":[{"mesh":0,"name":"SM_Wheat_02_A","rotation":[0,0,0,1],"scale":[1,1,1],"translation":[-97.3195190429688,0,-0.89024573564529]}],"samplers":[{}],"scene":0,"scenes":[{"name":"Root Scene","nodes":[0]}],"textures":[{"name":"base_color_texture","sampler":0,"source":0}]}