{"accessors":[{"bufferView":0,"byteOffset":0,"componentType":5123,"count":192,"type":"SCALAR"},{"bufferView":1,"byteOffset":0,"componentType":5126,"count":128,"max":[20.0000438690186,16,20.0000076293945],"min":[-19.9999523162842,0,-19.9999942779541],"type":"VEC3"},{"bufferView":2,"byteOffset":0,"componentType":5126,"count":128,"type":"VEC3"},{"bufferView":3,"byteOffset":0,"componentType":5126,"count":128,"type":"VEC2"}],"asset":{"generator":"FBX2glTF v0.13.1","version":"2.0"},"bufferViews":[{"buffer":0,"byteLength":384,"byteOffset":0,"target":34963},{"buffer":0,"byteLength":1536,"byteOffset":384,"target":34962},{"buffer":0,"byteLength":1536,"byteOffset":1920,"target":34962},{"buffer":0,"byteLength":1024,"byteOffset":3456,"target":34962}],"buffers":[{"byteLength":4480,"uri":"SM_Env_01_A.bin"}],"images":[{"name":"Polygon_Texture_vol2","uri":"Polygon_Texture_vol2.png"}],"materials":[{"alphaMode":"OPAQUE","doubleSided":false,"extras":{"fromFBX":{"isTruePBR":false,"shadingModel":"Phong"}},"name":"Material","pbrMetallicRoughness":{"baseColorFactor":[1,1,1,1],"baseColorTexture":{"index":0,"texCoord":0},"metallicFactor":0.400000005960464,"roughnessFactor":0.272165536880493}}],"meshes":[{"name":"Cylinder","primitives":[{"attributes":{"NORMAL":2,"POSITION":1,"TEXCOORD_0":3},"indices":0,"material":0,"mode":4}]}],"nodes":[{"mesh":0,"name":"Cylinder","rotation":[0,0,0,1],"scale":[1,1,1],"translation":[403.277252197266,0,-0.00000017881393]}],"samplers":[{}],"scene":0,"scenes":[{"name":"Root Scene","nodes":[0]}],"textures":[{"name":"base_color_texture","sampler":0,"source":0}]}